<svg width="1047" height="680" viewBox="0 0 1047 680" fill="none" xmlns="http://www.w3.org/2000/svg">
<g clip-path="url(#clip0)">
<path opacity="0.1" d="M75 606.39C75 619.075 279.419 629.362 531.504 629.362C783.589 629.362 988 619.075 988 606.39C988 593.705 783.581 583.418 531.504 583.418C279.426 583.418 75 593.705 75 606.39Z" fill="#231F20"/>
<path d="M773.895 433.982H798.781V315.687H773.895V433.982Z" fill="#381F7A"/>
<path d="M734.033 428.227H836.297C839.718 428.227 842.491 425.437 842.491 421.997V388.38C842.491 384.939 839.718 382.15 836.297 382.15H734.033C730.612 382.15 727.839 384.939 727.839 388.38V421.997C727.839 425.437 730.612 428.227 734.033 428.227Z" fill="#381F7A"/>
<path d="M661.541 405.185H845.967C858.617 405.185 868.871 394.872 868.871 382.15V382.142C868.871 369.421 858.617 359.108 845.967 359.108H661.541C648.892 359.108 638.637 369.421 638.637 382.142V382.15C638.637 394.872 648.892 405.185 661.541 405.185Z" fill="#9B87FF"/>
<path opacity="0.2" d="M649.55 361.172C648.87 363.154 648.522 365.235 648.52 367.332V375.259C648.52 380.318 650.517 385.169 654.073 388.747C657.629 392.324 662.453 394.335 667.483 394.338H859.791C862.772 394.335 865.709 393.622 868.363 392.258C867.087 396.023 864.671 399.292 861.456 401.607C858.24 403.922 854.385 405.168 850.43 405.169H658.144C655.651 405.174 653.182 404.683 650.877 403.726C648.573 402.769 646.479 401.364 644.716 399.592C642.952 397.819 641.553 395.715 640.6 393.398C639.646 391.081 639.156 388.598 639.158 386.091V378.195C639.153 374.668 640.122 371.209 641.957 368.204C643.792 365.198 646.42 362.764 649.55 361.172Z" fill="#231F20"/>
<path d="M773.895 478.438H798.781V414.747H773.895V478.438Z" fill="#381F7A"/>
<path d="M767.615 514.471H805.061V450.779H767.615V514.471Z" fill="#381F7A"/>
<path d="M729.603 560.976H742.688C742.688 538.962 756.943 521.059 774.435 521.059H854.646C872.161 521.059 886.393 538.969 886.393 560.976H899.479C899.479 531.704 879.347 507.891 854.623 507.891H774.458C749.727 507.891 729.603 531.712 729.603 560.976Z" fill="#381F7A"/>
<path d="M669.354 560.976H682.44C682.44 538.962 696.696 521.059 714.187 521.059H794.422C811.944 521.059 826.168 538.969 826.168 560.976H839.262C839.262 531.704 819.13 507.891 794.398 507.891H714.21C689.479 507.891 669.354 531.712 669.354 560.976Z" fill="#381F7A"/>
<path d="M705.516 328.98H870.065C882.709 328.98 892.969 319.41 892.969 307.604V163.175C892.969 108.961 845.875 65.0098 787.794 65.0098C729.721 65.0098 682.619 108.961 682.619 163.175V307.604C682.611 319.41 692.863 328.98 705.516 328.98Z" fill="#9B87FF"/>
<path d="M892.987 601.633C903.554 601.633 912.12 593.018 912.12 582.391C912.12 571.763 903.554 563.148 892.987 563.148C882.42 563.148 873.854 571.763 873.854 582.391C873.854 593.018 882.42 601.633 892.987 601.633Z" fill="#381F7A"/>
<path d="M916.763 582.398C916.763 576.055 914.257 569.973 909.798 565.488C905.338 561.003 899.29 558.483 892.983 558.483C886.677 558.483 880.628 561.003 876.169 565.488C871.709 569.973 869.204 576.055 869.204 582.398" fill="#381F7A"/>
<path d="M832.425 601.633C842.992 601.633 851.559 593.018 851.559 582.391C851.559 571.763 842.992 563.148 832.425 563.148C821.858 563.148 813.292 571.763 813.292 582.391C813.292 593.018 821.858 601.633 832.425 601.633Z" fill="#381F7A"/>
<path d="M856.205 582.398C856.205 576.055 853.7 569.973 849.24 565.488C844.781 561.003 838.732 558.483 832.426 558.483C826.119 558.483 820.071 561.003 815.611 565.488C811.152 569.973 808.646 576.055 808.646 582.398" fill="#381F7A"/>
<path d="M736.31 601.633C746.877 601.633 755.443 593.018 755.443 582.391C755.443 571.763 746.877 563.148 736.31 563.148C725.743 563.148 717.177 571.763 717.177 582.391C717.177 593.018 725.743 601.633 736.31 601.633Z" fill="#381F7A"/>
<path d="M760.087 582.397C760.144 579.221 759.571 576.065 758.402 573.113C757.233 570.162 755.49 567.475 753.277 565.208C751.064 562.942 748.423 561.142 745.511 559.913C742.598 558.684 739.47 558.051 736.312 558.051C733.153 558.051 730.026 558.684 727.113 559.913C724.2 561.142 721.559 562.942 719.346 565.208C717.133 567.475 715.39 570.162 714.221 573.113C713.052 576.065 712.479 579.221 712.536 582.397" fill="#381F7A"/>
<path d="M675.75 601.633C686.317 601.633 694.884 593.018 694.884 582.391C694.884 571.763 686.317 563.148 675.75 563.148C665.183 563.148 656.617 571.763 656.617 582.391C656.617 593.018 665.183 601.633 675.75 601.633Z" fill="#381F7A"/>
<path d="M699.53 582.397C699.587 579.221 699.014 576.065 697.845 573.113C696.676 570.162 694.933 567.475 692.72 565.208C690.507 562.942 687.867 561.142 684.954 559.913C682.041 558.684 678.914 558.051 675.755 558.051C672.596 558.051 669.469 558.684 666.556 559.913C663.643 561.142 661.003 562.942 658.789 565.208C656.576 567.475 654.834 570.162 653.664 573.113C652.495 576.065 651.922 579.221 651.979 582.397" fill="#381F7A"/>
<path opacity="0.2" d="M717.295 90.3242C703.357 106.981 695.049 127.913 695.049 150.667V295.096C695.049 306.902 705.301 316.472 717.953 316.472H882.502C885.639 316.477 888.747 315.872 891.655 314.689C888.557 323.005 880.04 328.978 870.067 328.978H705.518C692.865 328.978 682.613 319.408 682.613 307.602V163.173C682.613 134.275 696.001 108.289 717.295 90.3242Z" fill="#231F20"/>
<path d="M102.45 267.236L557.22 267.236V237.809L102.45 237.809V267.236Z" fill="#381F7A"/>
<path d="M122.473 296.529L537.194 296.529V267.102L122.473 267.102V296.529Z" fill="#0B2D4E"/>
<path d="M512.472 606.389H485.177L451.417 296.529H478.712L512.472 606.389Z" fill="#0B2D4E"/>
<path d="M146.678 606.389H173.972L207.732 296.529H180.438L146.678 606.389Z" fill="#0B2D4E"/>
<path d="M502.202 604.132C504.959 605.144 507.754 606.164 510.681 606.375C517.65 606.873 524.433 599.265 526.446 593.386C530.318 582.125 526.082 574.019 527.569 562.447C529.056 550.875 532.54 540.222 537.279 529.523C542.614 517.476 548.429 505.694 553.965 493.702C559.253 482.433 563.907 470.874 567.903 459.08C573.493 442.228 577.195 424.738 581.291 407.505C585.502 389.717 587.23 371.426 586.424 353.158C586.068 345.091 584.783 336.19 578.681 330.988C570.814 324.322 558.139 327.157 550.744 334.345C540.244 344.554 536.806 360.595 534.298 374.456C528.699 405.138 521.816 435.547 515.459 466.073C512.083 482.293 509.133 498.6 506.384 514.937C504.99 523.246 503.48 532.513 500.367 540.23C494.777 554.084 486.43 564.799 473.328 572.158C466.359 576.051 456.921 578.574 451.694 585.006C451.313 585.432 451.075 585.966 451.013 586.535C450.95 587.103 451.066 587.677 451.346 588.176C451.701 588.615 452.148 588.971 452.654 589.219C459.984 593.411 468.001 596.248 476.325 597.598C480.196 598.237 484.517 597.918 488.226 599.008C492.949 600.363 497.58 602.419 502.202 604.132Z" fill="#E5785C"/>
<path d="M547.29 507.898C549.528 503.179 551.766 498.452 553.965 493.702C559.253 482.433 563.906 470.874 567.903 459.08C573.493 442.228 577.194 424.738 581.291 407.505C585.502 389.717 587.23 371.426 586.424 353.158C586.068 345.091 584.783 336.19 578.681 330.988C570.814 324.322 558.139 327.157 550.744 334.345C540.244 344.554 536.806 360.595 534.297 374.456C528.699 405.138 521.816 435.547 515.458 466.073C513.652 474.732 511.959 483.417 510.379 492.129" fill="#061F33"/>
<path d="M775.167 263.379C745.968 265.084 717.868 277.154 690.767 287.48C659.075 299.579 626.623 309.558 593.622 317.352C574.264 321.938 546.629 330.162 545.421 354.535C544.259 377.858 571.6 386.167 590.85 385.334C625.957 383.776 661.103 384.867 696.226 384.555C722.436 384.337 748.825 384.158 774.733 379.649C797.607 375.67 816.972 366.785 826.194 343.828C836.067 319.252 827.96 285.338 806.898 268.884C801.92 264.991 795.423 263.604 789.089 263.301C784.45 263.076 779.803 263.102 775.167 263.379V263.379Z" fill="#F8A17A"/>
<path d="M662.303 564.489C659.469 552.925 651.54 548.424 646.545 537.895C641.551 527.367 638.717 516.52 636.921 504.94C634.9 491.92 633.421 478.853 631.593 465.763C629.959 453.404 627.633 441.148 624.624 429.054C621.349 416.252 617.416 402.102 610.431 390.896C602.084 377.479 593.598 364.14 585.173 350.761C582.85 347.117 580.527 343.418 577.291 340.599C566.915 331.581 553.109 337.811 548.347 349.492C544.367 359.226 546.938 367.239 550.67 376.397C562.532 405.209 573.125 434.513 584.306 463.613C590.23 479.079 596.556 494.388 603.068 509.604C606.382 517.345 610.114 525.958 611.67 534.134C613.304 542.7 614.651 550.238 610.896 558.586C608.968 562.846 604.469 567.152 600.884 570.111C598.651 571.867 596.302 573.47 593.853 574.908L577.167 585.226C575.395 586.218 573.765 587.447 572.32 588.878C571.603 589.599 571.038 590.458 570.662 591.405C570.285 592.351 570.104 593.365 570.128 594.384C570.322 596.961 572.304 599.118 574.612 600.255C578.05 601.945 581.379 601.922 584.987 601.096L647.707 586.783C650.564 586.129 653.468 585.46 656.038 584.042C662.171 580.639 663.789 570.532 662.303 564.489Z" fill="#F8A17A"/>
<path d="M634.249 485.876C633.374 479.179 632.53 472.474 631.593 465.762C629.96 453.403 627.633 441.147 624.624 429.053C621.349 416.251 617.415 402.102 610.431 390.896C609.176 388.871 607.899 386.862 606.629 384.837C636.494 384.129 666.375 384.837 696.24 384.588C722.451 384.37 748.839 384.191 774.74 379.682C797.621 375.703 816.987 366.818 826.209 343.861C836.081 319.285 827.974 285.372 806.913 268.917C801.934 265.024 795.437 263.638 789.104 263.334C784.442 263.106 779.771 263.132 775.112 263.412C745.912 265.117 717.813 277.187 690.712 287.513C659.02 299.613 626.567 309.592 593.566 317.385C574.208 321.971 546.573 330.195 545.365 354.569C545.17 357.851 545.628 361.139 546.713 364.24C547.567 368.42 548.865 372.495 550.584 376.396C562.447 405.209 573.039 434.512 584.22 463.613C588.541 474.896 593.078 486.094 597.748 497.23" fill="#0B2D4E"/>
<path d="M665.148 565.79C663.667 561.215 661.417 556.93 658.497 553.12C658.048 552.528 652.783 547.599 652.759 547.669C651.211 553.12 648.369 557.636 645.396 562.363C642.051 567.674 635.035 570.524 629.453 572.712C621.202 575.975 612.392 577.563 603.529 577.385C599.874 577.291 596.126 576.871 592.897 575.15C592.529 574.912 592.115 574.755 591.682 574.69C591.18 574.7 590.691 574.845 590.265 575.111C583.714 578.436 577.241 582.049 570.497 584.954C565.285 587.189 558.487 588.637 554.886 593.426C552.726 596.3 552.494 600.84 555.15 603.262C560.214 607.934 567.453 608.541 573.996 608.533C581.77 608.644 589.544 608.306 597.28 607.521C608.348 606.182 619.288 603.939 629.995 600.816C635.42 599.259 640.786 597.504 646.092 595.552C650.916 593.8 656.6 592.258 660.998 589.595C668.408 585.141 667.378 572.884 665.148 565.79Z" fill="#8070F2"/>
<path d="M527.602 566.565C517.807 574.135 509.421 580.886 496.885 583.292C490.428 584.54 483.804 584.646 477.31 583.604C473.999 583.064 470.745 582.211 467.593 581.057C466.299 580.649 465.084 580.023 464 579.204C463.094 578.425 462.931 577.553 461.522 577.335C460.26 577.236 458.991 577.417 457.805 577.865C447.592 580.909 437.34 583.962 427.607 588.385C424.889 589.623 422.117 591.056 420.313 593.447C418.153 596.32 417.928 600.86 420.576 603.282C427.599 609.699 438.386 608.383 447.058 608.538C464.093 608.858 481.368 605.782 498.333 607.152C506.417 607.799 514.415 607.931 522.561 606.654C528.841 605.649 532.465 601.436 533.053 595.168C533.972 585.307 532.082 575.386 527.602 566.565V566.565Z" fill="#8070F2"/>
<path d="M519.664 219.836H317.677V237.832H519.664V219.836Z" fill="#8070F2"/>
<path d="M338.474 230.402L274.555 49.4428C274.07 48.0693 273.321 46.8053 272.35 45.723C271.38 44.6407 270.206 43.7613 268.898 43.1351C267.589 42.5089 266.171 42.148 264.723 42.0732C263.276 41.9984 261.828 42.2111 260.462 42.6991V42.6991C257.706 43.6854 255.451 45.7327 254.195 48.3905C252.939 51.0483 252.784 54.0991 253.765 56.8718L317.684 237.831L338.474 230.402Z" fill="#8070F2"/>
<path d="M630.552 151.137C631.713 159.352 632.187 167.651 631.969 175.947C631.543 192.012 631.566 215.342 609.599 202.844C602.282 198.678 596.753 192.004 590.156 186.755C578.441 177.403 563.644 172.848 548.731 174.004C533.817 175.159 519.889 181.939 509.736 192.985C502.473 200.772 498.477 206.854 489.449 212.733C467.722 226.883 434.558 220.17 419.761 197.65C408.448 180.518 400.759 158.519 403.5 137.688C406.024 118.524 420.28 100.099 435.789 89.4622C447.504 81.4258 460.923 76.2863 474.435 71.9488C510.696 60.268 549.605 55.7748 584.473 74.6354C592.686 78.9335 600.093 84.6356 606.362 91.4868C613.579 99.6011 618.651 109.452 622.522 119.63C626.357 129.798 629.051 140.366 630.552 151.137V151.137Z" fill="#0B2D4E"/>
<path d="M582.021 161.693C575.896 165.852 570.298 171.661 565.404 175.796C564.205 176.933 562.816 177.848 561.3 178.498C556.236 180.313 551.002 175.827 546.279 172.564C541.927 169.559 537.095 167.363 533.208 163.609C529.321 159.856 526.51 153.828 528.059 148.634C528.555 147.015 528.191 147.902 529.406 146.89C533.704 143.308 538.164 139.539 542.438 135.583C558.559 140.364 573.581 149.07 582.021 161.693Z" fill="#E5785C"/>
<path d="M512.571 130.953C503.396 129.925 494.561 130.174 487.065 131.677C454.722 138.219 442.449 176.368 462.047 202.541C468.753 211.496 479.911 218.559 490.898 219.805C507.654 221.713 524.759 221.277 540.594 227.919C541.135 228.177 541.712 228.35 542.305 228.433C544.527 228.589 545.983 226.097 546.331 223.854C547.106 219.065 547.593 217.383 552.108 215.242C558.342 212.414 564.014 208.472 568.848 203.608C572.065 200.209 574.478 196.126 575.91 191.661C577.342 187.196 577.755 182.464 577.118 177.816C573.053 149.821 541.221 134.177 512.571 130.953Z" fill="#F8A17A"/>
<path d="M491.125 219.843H490.892C479.905 218.597 468.747 211.534 462.041 202.579C442.443 176.399 454.716 138.249 487.059 131.716C494.555 130.205 503.39 129.964 512.565 130.992C519.496 131.771 526.335 133.229 532.984 135.345C529.839 138.397 525.92 140.52 521.656 141.481C517.993 142.296 514.234 142.59 510.49 142.353C503.978 142.042 496.94 143.856 494.013 150.662C492.333 154.556 493.184 159.571 496.413 162.343C498.976 164.523 502.724 165.224 505.991 164.803C507.54 164.609 513.735 163.316 511.621 166.968C509.182 171.142 504.76 173.494 501.795 177.209C498.829 180.923 496.56 184.63 495.848 189.536C494.934 195.82 495.422 202.26 494.446 208.544C493.87 212.448 492.752 216.252 491.125 219.843V219.843Z" fill="#E5785C"/>
<path d="M785.132 289.452C786.967 289.102 788.794 288.736 790.629 288.378C800.362 286.431 828.516 285.162 824.537 268.785C810.839 212.515 796.506 153.535 748.034 116.935C707.073 86.0276 653.251 79.7745 603.664 86.4247C593.791 87.7563 584.058 90.3183 575.246 95.0763C554.154 106.461 541.045 128.25 528.966 149.034L594.403 183.889C610.199 192.299 626.204 200.819 639.824 212.608C650.959 222.249 667.335 229.359 673.584 243.609C680.747 259.962 679.655 277.873 673.05 294.016C678.602 296.959 699.926 299.568 702.768 299.56C713.072 299.586 723.368 298.99 733.601 297.777C750.876 295.635 768.097 292.77 785.132 289.452Z" fill="#3DC8E8"/>
<path d="M604.483 92.5978C601.641 87.1188 597.579 82.3748 592.612 78.7366C582.182 70.8949 568.918 66.1214 556.08 64.3148C528.732 60.4601 489.102 74.4381 470.829 95.6426C453.84 115.336 443.031 150.153 445.934 176.139C446.469 180.128 447.44 184.045 448.83 187.82C451.3 195.085 454.336 202.241 458.68 208.596C459.454 209.733 460.298 210.807 461.111 211.921C461.712 212.894 462.364 213.835 463.062 214.74C464.928 216.827 467.871 217.645 470.527 218.151C471.489 218.35 472.472 218.429 473.453 218.384C474.437 218.33 475.343 218.011 476.311 217.863C477.728 217.637 479.408 217.699 480.763 217.084C483.76 215.737 486.09 210.395 487.778 205.255C489.76 199.212 490.326 192.796 492.246 186.729C493.748 182.01 496.52 178.779 500.121 175.547C503.721 172.315 508.398 170.781 511.48 167.067C514.182 163.812 507.81 164.061 506.284 163.999C502.993 163.882 499.408 162.574 497.233 159.996C494.499 156.749 494.468 151.671 496.76 148.089C502.955 138.48 513.191 140.606 523.172 147.202C536.041 155.713 548.461 171.661 551.047 179.511C554.013 188.404 553.742 198.161 556.955 206.961C561.562 219.576 571.76 230.322 571.667 244.432C571.621 250.662 569.584 256.674 568.431 262.795C567.277 268.915 567.122 275.659 570.459 280.908C573.317 285.401 578.249 288.056 583.088 290.252C591.459 294.037 600.41 297.027 609.585 296.949C620.426 296.856 630.639 292.425 639.675 286.631C647.163 281.827 657.539 275.729 661.17 267.405C668.913 249.673 667.628 228.469 654.201 213.673C644.468 202.966 630.252 198.948 622.083 186.862C614.321 175.386 609.737 162.038 608.803 148.191C608.168 138.215 609.454 128.232 609.578 118.241C609.709 108.733 608.339 100.105 604.483 92.5978Z" fill="#0B2D4E"/>
<path d="M454.677 211.348C452.594 210.222 450.619 208.906 448.777 207.415C446.957 205.89 445.261 204.221 443.705 202.424L442.567 201.045C442.374 200.819 442.203 200.578 442.025 200.337L441.491 199.62L440.964 198.904L440.461 198.164L439.965 197.424C439.795 197.175 439.625 196.934 439.47 196.645L438.541 195.127C438.223 194.621 437.944 194.091 437.65 193.57L437.217 192.791L436.806 192.012C436.535 191.483 436.249 190.953 436.032 190.416C434.987 188.282 434.057 186.078 433.206 183.859L432.594 182.177C432.385 181.616 432.215 181.048 432.021 180.479C431.634 179.35 431.332 178.19 431.007 177.045L430.89 176.609L430.79 176.173L430.581 175.309L430.372 174.436C430.31 174.141 430.232 173.852 430.186 173.556L429.837 171.804C429.783 171.508 429.713 171.213 429.667 170.924L429.528 170.037L429.249 168.269L429.032 166.486C428.869 165.302 428.784 164.15 428.676 162.927C428.614 162.327 428.598 161.728 428.568 161.136L428.475 159.345V157.554C428.475 156.954 428.475 156.355 428.475 155.763C428.475 154.564 428.475 153.364 428.591 152.173C428.591 151.581 428.653 150.981 428.699 150.382L428.862 148.599C429.278 143.824 430.247 139.114 431.75 134.566C433.334 129.994 435.674 125.724 438.672 121.935C440.183 120.043 441.877 118.306 443.729 116.749C445.583 115.184 447.607 113.834 449.76 112.723L450.535 112.318L451.356 111.929C451.627 111.804 451.905 111.679 452.184 111.57L453.02 111.22C454.143 110.776 455.274 110.371 456.42 110.013C458.711 109.318 461.037 108.743 463.388 108.292C468.034 107.373 472.758 106.789 477.372 105.956C481.966 105.221 486.45 103.913 490.722 102.062C494.93 100.049 498.917 97.5951 502.615 94.7423C506.386 91.9311 510.033 88.9175 513.812 86.0207C517.569 83.0378 521.591 80.4102 525.829 78.1712C530.136 75.8717 534.868 74.4905 539.729 74.114C544.591 73.7375 549.478 74.3738 554.084 75.983C558.676 77.5338 562.986 79.8274 566.844 82.7734C567.812 83.5054 568.741 84.2841 569.647 85.1095L570.321 85.7169L570.979 86.3477C571.413 86.7682 571.831 87.1887 572.257 87.617C573.938 89.3341 575.533 91.1352 577.034 93.0136C580.109 96.7654 582.598 100.967 584.413 105.473C585.314 107.772 585.89 110.186 586.125 112.645C586.229 113.884 586.229 115.129 586.125 116.367C586.027 117.585 585.861 118.797 585.629 119.996C585.188 122.379 584.591 124.668 584.08 127.005C583.606 129.291 583.277 131.606 583.097 133.935C582.761 138.613 582.938 143.313 583.624 147.952C584.321 152.611 585.356 157.213 586.721 161.72C588.045 166.244 589.625 170.699 591.367 175.114C592.218 177.325 593.109 179.521 594.007 181.71C594.905 183.898 595.819 186.102 596.671 188.337C597.522 190.571 598.305 192.838 598.94 195.158C599.594 197.485 600.037 199.868 600.264 202.276C600.488 204.703 600.387 207.149 599.962 209.549C599.482 211.895 598.877 214.214 598.15 216.495C597.824 217.632 597.515 218.769 597.259 219.906C597.008 221.037 596.84 222.184 596.756 223.34C596.692 224.482 596.765 225.627 596.973 226.751C597.207 227.864 597.595 228.939 598.126 229.944C600.279 234.032 604.321 236.952 606.582 241.313C607.72 243.478 608.358 245.874 608.448 248.321C608.5 249.529 608.435 250.739 608.254 251.935C608.177 252.534 608.038 253.118 607.906 253.71C607.882 253.858 607.846 254.004 607.798 254.146L607.674 254.582L607.55 255.011C607.503 255.158 607.465 255.306 607.41 255.447C607.201 256.007 607.016 256.584 606.76 257.129C606.644 257.401 606.536 257.682 606.396 257.907L605.993 258.686C605.862 258.951 605.707 259.208 605.56 259.465L605.103 260.244L604.6 261.022L604.352 261.396L604.081 261.754L603.539 262.463L602.95 263.148L602.664 263.483C602.563 263.6 602.455 263.701 602.354 263.81L601.727 264.449C600.869 265.28 599.942 266.035 598.955 266.707C596.988 268.063 594.767 269.004 592.428 269.471C590.089 269.9 587.684 269.799 585.389 269.175C587.685 269.747 590.08 269.795 592.397 269.316C594.695 268.806 596.866 267.831 598.777 266.45C599.735 265.772 600.633 265.014 601.464 264.184L602.068 263.545L602.362 263.218L602.648 262.883L603.206 262.198L603.725 261.489L603.988 261.139L604.228 260.765L604.7 260.025C604.847 259.768 604.987 259.511 605.134 259.247C605.284 258.995 605.421 258.735 605.544 258.468L605.931 257.689C606.055 257.425 606.156 257.152 606.272 256.911C606.505 256.373 606.675 255.813 606.868 255.26C606.92 255.123 606.962 254.982 606.992 254.839L607.108 254.411L607.225 253.99C607.266 253.85 607.3 253.707 607.325 253.562C607.434 252.994 607.565 252.417 607.627 251.841C607.803 250.656 607.865 249.456 607.813 248.259C607.684 245.934 607.041 243.668 605.931 241.624L605.506 240.846L605.033 240.114C604.7 239.639 604.352 239.171 603.988 238.72C603.214 237.801 602.439 236.929 601.665 236.041C599.981 234.317 598.508 232.399 597.275 230.325C596.678 229.242 596.24 228.077 595.974 226.868C595.739 225.658 595.645 224.424 595.695 223.192C595.772 221.975 595.935 220.765 596.183 219.571C596.431 218.395 596.733 217.235 597.05 216.082C597.737 213.832 598.306 211.548 598.754 209.237C599.125 206.946 599.195 204.616 598.963 202.307C598.711 199.985 598.257 197.689 597.608 195.446C596.973 193.196 596.183 190.976 595.285 188.78C594.386 186.584 593.496 184.404 592.582 182.216C591.669 180.028 590.755 177.824 589.88 175.612C588.122 171.181 586.489 166.696 585.103 162.117C583.693 157.531 582.625 152.846 581.905 148.1C581.174 143.335 580.969 138.504 581.293 133.694C581.466 131.282 581.792 128.884 582.269 126.514C582.749 124.178 583.337 121.842 583.748 119.568C584.196 117.324 584.339 115.029 584.173 112.746C583.947 110.471 583.408 108.238 582.571 106.112C580.821 101.799 578.427 97.7816 575.47 94.1972C574.01 92.375 572.46 90.6284 570.824 88.9642C570.414 88.5437 569.996 88.131 569.578 87.726L568.95 87.1342L568.308 86.5502C567.44 85.7715 566.55 85.0395 565.629 84.3464C561.943 81.5393 557.826 79.3561 553.441 77.883C549.09 76.3482 544.471 75.7357 539.873 76.0842C535.276 76.4326 530.8 77.7344 526.727 79.9077C522.595 82.0876 518.671 84.6447 515.004 87.5469C511.256 90.4048 507.609 93.4263 503.761 96.253C499.941 99.1655 495.828 101.666 491.488 103.713C490.389 104.201 489.268 104.653 488.128 105.068C486.989 105.465 485.805 105.847 484.69 106.143C482.367 106.781 480.044 107.272 477.721 107.7C473.075 108.533 468.344 109.102 463.737 109.974C461.442 110.395 459.17 110.936 456.931 111.594C455.823 111.929 454.724 112.31 453.64 112.723L452.865 113.05C452.594 113.167 452.331 113.276 452.091 113.4L451.317 113.759L450.543 114.14C446.379 116.252 442.713 119.234 439.787 122.885C436.864 126.531 434.561 130.638 432.973 135.041C431.429 139.482 430.405 144.09 429.923 148.77L429.737 150.522C429.69 151.114 429.659 151.698 429.613 152.29C429.52 153.466 429.497 154.626 429.458 155.825C429.458 156.409 429.458 157.001 429.458 157.593V159.36L429.528 161.128C429.528 161.72 429.528 162.312 429.613 162.904C429.706 164.079 429.768 165.24 429.907 166.431L430.101 168.191L430.348 169.943L430.48 170.823C430.48 171.111 430.581 171.399 430.627 171.695L430.945 173.432C430.991 173.728 431.061 174.016 431.123 174.304L431.316 175.168L431.502 176.033L431.603 176.461L431.711 176.889C432.013 178.034 432.292 179.179 432.664 180.3C432.842 180.861 433.004 181.429 433.198 181.99L433.786 183.664C434.599 185.884 435.482 188.08 436.481 190.221C436.721 190.758 437 191.28 437.255 191.779L437.65 192.557L438.068 193.336C438.355 193.85 438.618 194.379 438.92 194.893L439.818 196.451C441.053 198.467 442.422 200.397 443.914 202.229C445.419 204.053 447.072 205.748 448.855 207.298C450.667 208.825 452.617 210.181 454.677 211.348V211.348Z" fill="#73B8D4"/>
<path d="M607.579 138.075C608.547 128.552 609.515 118.966 608.849 109.411C607.703 93.0576 601.253 77.6467 586.084 70.1321C565.007 59.6894 542.212 57.1197 519.184 61.1612C498.657 64.7667 480.336 75.2794 461.823 84.3203C444.168 92.933 423.448 96.8499 409.827 112.043C387.132 137.359 397.973 180.695 419.282 203.239C431.346 216.017 450.889 220.176 468.342 218.657" stroke="#0B2D4E" stroke-width="5" stroke-miterlimit="10"/>
<path d="M616.082 283.066C616.368 305.843 617.631 328.535 621.2 351.165C622.904 362.067 625.908 372.805 628.045 383.645C629.454 390.7 630.791 397.771 632.056 404.857C632.613 407.972 633.171 411.157 634.487 414.046C636.198 417.784 639.18 420.821 643.438 420.954C647.364 421.07 653.744 417.885 654.178 413.416C654.387 411.266 653.837 408.798 653.93 406.555C655.347 372.291 656.431 338.028 657.616 303.764C657.616 291.764 658.607 279.756 659.072 267.764C659.536 255.772 659.32 243.725 659.351 231.717C659.351 221.692 659.351 211.67 659.351 201.651C659.296 181.007 660.729 159.506 658.894 138.574C657.299 120.446 651.011 99.6385 629.168 99C615.168 98.5872 606.411 111.382 603.615 123.826C597.777 149.523 609.81 175.595 613.898 200.654C616.616 217.256 616.515 234.139 616.221 250.881C616.028 261.635 615.943 272.397 616.082 283.066Z" fill="#F8A17A"/>
<path d="M615.674 283.066C615.573 292.901 615.573 302.744 615.836 312.587C616.347 331.915 619.475 350.075 621.969 369.122C622.302 371.614 622.689 374.254 624.292 376.185C626.824 379.3 631.361 379.456 635.333 379.393L652.748 379.152C654.296 379.152 656.015 379.02 657.022 377.851C657.796 376.956 657.897 375.679 657.966 374.495C660.049 338.9 657.703 303.297 659.081 267.764C659.546 255.772 659.329 243.725 659.36 231.717C659.36 221.692 659.36 211.67 659.36 201.651C659.306 181.007 660.738 159.506 658.903 138.574C657.308 120.446 651.021 99.6385 629.177 99C615.178 98.5872 606.42 111.382 603.625 123.826C597.787 149.523 609.82 175.595 613.908 200.654C616.626 217.256 616.525 234.139 616.231 250.881C616.03 261.62 615.79 272.343 615.674 283.066Z" fill="#26A8D1"/>
<path d="M659.205 434.65C659.298 434.245 659.383 433.871 659.438 433.529C660.444 427.657 659.167 421.661 657.889 415.844C656.521 409.583 655.153 403.322 653.785 397.061C653.53 395.878 641.597 397.451 640.676 397.638C637.909 398.097 635.329 399.343 633.243 401.228C632.758 401.651 632.381 402.185 632.143 402.785C631.991 403.348 631.939 403.933 631.988 404.514C632.197 411.219 630.718 417.051 629.665 423.577C628.566 430.585 628.496 437.734 627.931 444.805C627.629 448.628 627.381 452.724 629.309 456.034C631.5 459.811 635.906 461.563 639.995 463.042C645.856 465.184 651.935 467.356 658.152 466.889C661.49 466.61 664.723 465.581 667.614 463.879C670.504 462.177 672.978 459.845 674.854 457.054C676.697 454.274 677.58 449.898 674.8 448.068C671.045 445.599 666.484 451.05 662.024 450.404C654.374 449.399 657.99 439.821 659.205 434.65Z" fill="#F8A17A"/>
<path d="M193.787 164.07C195.56 160.379 195.242 156.493 194.12 152.973C192.997 149.453 191.123 146.268 189.04 142.85C186.675 139.342 184.807 135.521 183.488 131.496C182.157 127.057 182.536 122.089 183.759 117.876C186.408 109.31 191.835 102.972 195.575 96.5005C197.52 93.3438 198.879 89.8584 199.586 86.2137C200.368 82.4399 199.9 78.5127 198.255 75.0312C201.352 77.7412 202.838 82.1487 203.04 86.4083C203.138 90.7186 202.279 94.9967 200.523 98.9301C197.279 106.717 192.416 113.056 190.519 119.901C189.406 123.112 189.197 126.569 189.915 129.892C190.55 133.256 192.3 136.651 193.88 140.342C195.459 144.034 197.147 148.13 197.503 152.374C197.86 156.618 196.907 161.313 193.787 164.07Z" fill="white"/>
<path d="M171.471 168.79H219.401V219.921C219.401 224.671 217.524 229.227 214.184 232.585C210.845 235.944 206.315 237.831 201.591 237.831H189.28C184.557 237.831 180.027 235.944 176.687 232.585C173.347 229.227 171.471 224.671 171.471 219.921V168.79Z" fill="#FFC73C"/>
<path d="M222.752 184.404C218.563 184.342 214.45 185.535 210.937 187.831C207.424 190.126 204.67 193.421 203.024 197.296C201.378 201.171 200.916 205.451 201.696 209.591C202.476 213.731 204.463 217.544 207.405 220.544C210.346 223.545 214.108 225.598 218.213 226.442C222.317 227.286 226.579 226.883 230.455 225.284C234.332 223.685 237.647 220.963 239.981 217.463C242.314 213.964 243.559 209.845 243.558 205.632C243.597 200.042 241.428 194.666 237.526 190.685C233.624 186.704 228.31 184.445 222.752 184.404V184.404ZM222.752 219.298C220.056 219.338 217.409 218.571 215.148 217.093C212.887 215.616 211.113 213.495 210.054 211.002C208.995 208.508 208.697 205.753 209.199 203.089C209.701 200.424 210.98 197.97 212.873 196.039C214.766 194.108 217.188 192.786 219.83 192.243C222.472 191.7 225.214 191.96 227.709 192.989C230.204 194.019 232.338 195.771 233.839 198.024C235.34 200.277 236.141 202.927 236.14 205.639C236.154 207.421 235.818 209.187 235.152 210.838C234.486 212.489 233.504 213.992 232.261 215.261C231.018 216.53 229.538 217.541 227.907 218.235C226.275 218.929 224.524 219.293 222.752 219.306V219.298Z" fill="#FFC73C"/>
<path opacity="0.2" d="M178.644 211.658C177.957 211.656 177.299 211.38 176.815 210.891C176.33 210.402 176.058 209.74 176.058 209.049V175.424C176.058 174.734 176.33 174.071 176.815 173.582C177.299 173.093 177.957 172.817 178.644 172.815V172.815C179.331 172.817 179.99 173.093 180.476 173.582C180.962 174.071 181.236 174.733 181.238 175.424V209.018C181.241 209.363 181.176 209.705 181.047 210.025C180.918 210.344 180.728 210.635 180.487 210.881C180.246 211.126 179.959 211.321 179.642 211.454C179.326 211.588 178.987 211.657 178.644 211.658V211.658Z" fill="white"/>
<path d="M208.337 168.827V225.674C208.335 228.911 207.054 232.014 204.778 234.303C202.501 236.591 199.414 237.876 196.195 237.876H207.268C210.486 237.876 213.572 236.591 215.848 234.302C218.123 232.014 219.401 228.91 219.401 225.674V168.827H208.337Z" fill="#EFB126"/>
</g>
<defs>
<clipPath id="clip0">
<rect width="913" height="587.31" fill="white" transform="translate(75 42.0527)"/>
</clipPath>
</defs>
</svg>
