<svg width="134" height="55" viewBox="0 0 134 55" fill="none" xmlns="http://www.w3.org/2000/svg">
<path d="M6.77021 53.2918L7.01445 52.3925C8.04974 48.3963 8.5295 35.8337 8.99293 23.6847C9.34434 14.4392 9.67841 5.69821 10.2416 1.61024L10.3182 1.04089L10.8913 1.11038C18.5604 2.05592 110.003 21.3904 131.599 26.845L133.082 27.219L131.727 27.9284C125.876 30.9899 78.2648 39.8671 40.0068 47.0024C26.8284 49.4704 15.4691 51.5778 7.68562 53.1127L6.77021 53.2918ZM11.3201 2.35138C10.8042 6.60346 10.4911 14.9334 10.1447 23.7303C9.70806 35.1598 9.25796 46.9538 8.32569 51.7925C16.0715 50.2735 27.0883 48.2184 39.776 45.8548C73.6288 39.5419 119.179 31.0483 129.563 27.542C105.715 21.6978 21.8556 3.95987 11.3177 2.35136L11.3201 2.35138Z" fill="#550CCC"/>
<path d="M1.86485 1.61328C1.71802 2.80813 1.4879 5.17051 1.34341 6.36539C1.32532 6.51709 8.88187 7.06176 10.389 7.16738C11.7791 7.26701 12.5199 5.10196 11.1322 3.52777C10.1607 2.43494 3.16381 1.90352 1.88126 1.61112" fill="#550CCC"/>
<path d="M0.423439 51.0125C0.374439 49.9464 0.330039 47.838 0.281066 46.7695C0.282577 46.634 7.00407 46.6622 8.34603 46.6678C9.58484 46.6817 10.0946 48.6433 8.74745 49.944C7.80056 50.8448 1.57995 50.8455 0.42336 51.0196" fill="#550CCC"/>
<path d="M6.81583 53.5071C7.99286 53.3438 9.15808 53.1046 10.3042 52.7912C10.1601 52.0581 12.9444 1.29431 12.7529 1.2431C12.2392 1.1065 10.2774 0.815874 9.31248 0.606472C9.11572 6.69658 6.84306 41.1989 6.83464 53.5003" fill="#550CCC"/>
<path d="M23.9087 6.74948C24.0088 6.63746 24.0787 6.50189 24.1119 6.35551C24.1451 6.20914 24.1404 6.05674 24.0984 5.91265C24.0579 5.79517 23.9859 5.69106 23.8901 5.61169C23.7943 5.53231 23.6785 5.48073 23.5554 5.46258L22.4105 5.21611C20.0575 4.72248 16.1201 3.91439 15.2748 3.89561C15.1634 3.89102 15.0523 3.90997 14.9487 3.95122C14.8451 3.99247 14.7515 4.05509 14.6738 4.13497C14.5962 4.21486 14.5364 4.31021 14.4983 4.41477C14.4602 4.51934 14.4446 4.63076 14.4527 4.74174C14.4056 6.44015 14.0066 17.2252 13.82 20.7261C13.5625 25.5396 13.2854 30.4346 13.0171 35.1685C12.8658 37.8153 12.7161 40.4583 12.568 43.0973C12.5443 43.5364 12.5133 44.0128 12.4843 44.5125C12.3792 46.1612 12.2624 48.0271 12.279 49.4762C12.2764 49.6126 12.3109 49.7472 12.3788 49.8657C12.4468 49.9841 12.5457 50.082 12.665 50.1488C12.7945 50.22 12.9398 50.2578 13.0877 50.2587C13.2426 50.2621 13.3955 50.2225 13.5292 50.1444C13.6428 50.0782 13.7359 49.982 13.7984 49.8665C13.8608 49.7509 13.8901 49.6205 13.8832 49.4894C13.8688 48.2624 13.9691 46.6183 14.0555 45.1704C14.0785 44.7921 14.1012 44.4324 14.1189 44.1055C14.254 41.6548 14.3922 39.2057 14.5335 36.7582L14.793 32.1808C14.9711 28.9454 15.1486 25.7076 15.3253 22.4675C16.0278 22.4754 16.7093 22.483 17.3999 22.5047L20.2825 22.5509C20.4956 22.5533 20.7008 22.4711 20.8531 22.3225C21.0054 22.1738 21.0923 21.9709 21.0947 21.7584C21.0971 21.5458 21.0147 21.341 20.8658 21.189C20.7168 21.0371 20.5134 20.9503 20.3004 20.948C19.3333 20.9372 18.3684 20.9264 17.4014 20.9016L15.4087 20.8677L15.4438 20.2348C15.6448 16.498 16.1066 7.85659 16.0855 5.75314C16.3824 5.80787 17.093 5.93264 18.2244 6.12754C20.0243 6.4374 22.2637 6.8246 23.133 7.00022C23.2738 7.03121 23.4203 7.02385 23.5572 6.97892C23.6941 6.93398 23.8163 6.85313 23.9111 6.74483" fill="#550CCC"/>
<path d="M34.9037 7.98925C34.8609 7.86885 34.786 7.7624 34.687 7.6814C34.588 7.60039 34.4688 7.54791 34.3421 7.52962L33.363 7.32941C30.1383 6.66247 26.6329 5.9667 25.8507 6.1753C25.2681 6.33238 25.1892 7.10268 25.2094 7.39035C25.2712 8.35851 24.56 20.4697 23.9302 31.1517C23.4504 39.3138 23.0345 46.3643 23.0494 47.1263C23.0475 47.2321 23.0678 47.3371 23.1091 47.4345C23.1504 47.532 23.2116 47.6198 23.289 47.6921C23.4515 47.8382 23.6626 47.9188 23.8814 47.9184L23.9422 47.9191C24.5113 47.9254 30.4201 46.9024 32.9085 46.3833C33.0383 46.3627 33.1599 46.3071 33.2604 46.2226C33.3608 46.138 33.4361 46.0277 33.4783 45.9036C33.5221 45.7566 33.5271 45.6008 33.4926 45.4513C33.4582 45.3019 33.3855 45.1639 33.2817 45.0508C33.1846 44.9441 33.0607 44.8654 32.9228 44.8227C32.7848 44.7801 32.638 44.7751 32.4975 44.8083C30.8542 45.1499 25.6563 45.849 24.7272 45.9952C24.7834 44.7363 25.2273 37.9128 25.625 31.652C25.8724 27.7428 26.1057 24.0461 26.1956 22.4977L28.8276 22.5411C29.8111 22.5521 30.7922 22.5771 31.7734 22.588C31.911 22.5952 32.0479 22.565 32.1695 22.5004C32.2911 22.4359 32.3928 22.3396 32.4637 22.2218C32.5412 22.0891 32.5828 21.9386 32.5845 21.785C32.5862 21.6314 32.548 21.48 32.4735 21.3456C32.4049 21.2265 32.3052 21.1283 32.1852 21.0611C32.0651 20.9939 31.9291 20.9604 31.7915 20.9641C30.808 20.9531 29.8268 20.9421 28.8457 20.9172C27.9933 20.9077 27.1387 20.8864 26.2863 20.8746L26.3096 20.4612C26.4805 17.5327 26.9243 9.8679 26.8951 7.86719C27.7648 8.01009 32.5312 8.82276 33.9077 9.09751C34.0529 9.12884 34.2039 9.12107 34.3452 9.07501C34.4865 9.02896 34.6129 8.94626 34.7116 8.8354C34.8147 8.72324 34.887 8.5864 34.9214 8.43816C34.9559 8.28992 34.9514 8.13531 34.9084 7.9893" fill="#550CCC"/>
<path d="M67.6536 38.5239C66.2145 38.8256 64.7584 38.98 63.3108 39.1999C63.2216 34.6022 63.0993 30.2378 62.9632 25.642C63.9562 25.653 64.9466 25.6781 65.9371 25.6915C66.8434 25.7016 66.8591 24.2996 65.9528 24.2895C64.9435 24.2783 63.9343 24.2553 62.9227 24.2394C62.862 22.2601 62.8013 20.2793 62.7407 18.2969C62.706 17.2099 62.6854 16.116 62.6297 15.024C63.0295 15.0846 65.6142 15.5948 66.5186 15.7685C67.4231 15.9422 67.7941 14.5979 66.9061 14.4197C65.7563 14.1872 62.3612 13.2637 61.8612 13.3703C61.5052 13.3663 61.1536 13.8111 61.1836 14.2694C61.6857 21.7531 61.653 29.2986 61.8388 36.7928C61.8659 37.9288 61.9001 39.0649 61.9202 40.1986C61.9207 40.289 61.9391 40.3784 61.9744 40.4618C62.0096 40.5451 62.061 40.6206 62.1255 40.6841C62.1901 40.7476 62.2666 40.7977 62.3506 40.8316C62.4347 40.8655 62.5246 40.8825 62.6152 40.8817C62.7133 40.9085 66.3348 40.2221 68.0133 39.8693C68.8984 39.6828 68.5411 38.3281 67.6561 38.5122" fill="#550CCC"/>
<path d="M44.3401 10.0878C43.5479 14.3368 41.3958 36.9854 41.3216 37.5431C41.2999 37.3933 39.0667 13.5694 38.2741 8.82133C38.1886 8.30392 36.9302 8.152 36.8456 8.5974C35.6711 14.7888 35.0673 43.5072 35.0838 44.968C35.0948 45.8701 36.734 45.8908 36.723 44.9863C36.6763 40.9873 36.8315 36.9415 37.0189 32.9498C37.2343 28.3439 37.4592 23.5043 37.6441 18.8957C38.2772 25.1353 40.2955 40.7192 40.6987 42.5792C40.83 43.1929 41.8934 42.9758 41.9838 42.4276C42.3176 40.4333 44.4537 22.7855 44.7849 19.1273C44.8422 19.8687 45.7225 41.3149 45.7118 42.9062C45.7017 43.8081 47.3409 43.8288 47.351 42.9245C47.3729 39.4988 46.2185 14.9064 45.6448 10.2847C45.5803 9.76983 44.4171 9.69142 44.3424 10.0879" fill="#550CCC"/>
<path d="M57.4521 12.8467C56.7679 16.4426 54.9099 35.6171 54.8507 36.0885C54.8334 35.9621 52.8967 15.7941 52.2084 11.774C52.1337 11.3338 51.0437 11.2071 50.9716 11.5826C49.9575 16.8246 49.4378 41.3703 49.4544 42.6067C49.4647 43.3686 50.8814 43.3868 50.8736 42.6225C50.8317 39.2359 50.9686 35.5778 51.1304 32.2005C51.3167 28.2999 51.5077 24.2031 51.6659 20.3023C52.2066 25.585 53.9659 38.7778 54.3137 40.352C54.4273 40.8698 55.3475 40.6861 55.4253 40.2219C55.7134 38.5355 57.5594 23.5953 57.8445 20.4997C57.8938 21.1266 58.6585 39.2835 58.6505 40.6294C58.642 41.3935 60.0658 41.4094 60.0696 40.6453C60.0879 37.7454 59.0836 16.9264 58.5862 13.0136C58.5302 12.5759 57.5238 12.511 57.4592 12.8468" fill="#550CCC"/>
<path d="M75.5131 21.2975C75.6354 19.3616 75.1905 17.0408 73.5485 15.7956C72.2457 14.8042 70.5635 15.0612 69.5375 16.335C69.0175 16.9766 68.8346 17.8275 68.6829 18.6204C68.4334 20.0088 68.2769 21.4123 68.2145 22.8215C68.0133 26.0973 68.1217 29.3847 68.5382 32.6401C68.789 34.5125 69.1066 37.7479 71.018 38.7741C71.3575 38.9641 71.7318 39.084 72.1187 39.1266C72.5056 39.1691 72.8971 39.1335 73.2699 39.0219C73.6427 38.9103 73.9892 38.7249 74.2887 38.4768C74.5881 38.2287 74.8344 37.9229 75.0129 37.5778C75.8854 35.9961 75.8988 33.9561 75.9161 32.199C75.9263 31.2807 74.4908 31.2623 74.4829 32.183C74.468 33.5195 74.3622 39.2181 71.6133 37.4768C70.3645 36.6823 70.1601 34.0066 69.9706 32.7286C69.6229 30.1719 69.484 27.5913 69.5555 25.0122C69.5797 22.8461 69.6562 20.5989 70.1554 18.4755C70.3496 17.6504 70.6817 16.6493 71.7223 16.5791C73.7895 16.4456 74.1489 19.9246 74.0635 21.279C74.0041 22.1991 75.4373 22.2104 75.4967 21.295" fill="#550CCC"/>
<path d="M77.2831 17.0413C77.1023 17.5066 77.1561 18.1405 77.146 18.6312C77.1335 19.7457 77.1492 20.8629 77.1742 21.9779C77.2405 24.7082 77.3592 27.4359 77.5302 30.1611C77.592 31.1339 77.6561 32.1091 77.7647 33.0801C77.897 34.2384 77.9309 35.6035 78.6626 36.5674C79.3943 37.5314 80.8081 38.0262 81.81 37.2359C82.9158 36.3625 82.9765 34.4937 83.089 33.2237C83.3069 30.6999 83.1454 28.1649 83.0612 25.6401C82.9769 23.1153 83.1007 20.6326 82.974 18.133C82.9144 16.9639 81.6952 17.2938 81.6907 18.1187C81.666 21.7944 81.8079 25.4579 81.8934 29.1301C81.9377 31.0305 81.9719 33.0102 81.595 34.8802C81.4686 35.5004 81.2559 36.5123 80.4081 36.2995C79.5299 36.0864 79.3349 35.084 79.2122 34.3325C78.5542 30.3314 78.5045 17.784 78.5206 17.3893C78.5503 16.6137 77.5798 16.2711 77.2856 17.0343" fill="#550CCC"/>
<path d="M87.6302 25.845C89.864 23.5867 88.8641 18.7382 85.4495 18.0925C85.2831 18.0608 85.1109 18.0949 84.9692 18.1874C84.8274 18.28 84.7273 18.4239 84.6899 18.5888C84.4068 18.9759 84.7541 35.5017 85.3088 35.9542C85.3175 35.9657 85.3267 35.9767 85.3366 35.9872C86.1036 36.7179 87.3427 36.2924 88.0911 35.7515C89.3708 34.8311 89.7577 33.3234 89.8213 31.8238C89.9074 29.773 89.5398 26.8221 87.6302 25.845V25.845ZM87.5709 22.3389C87.5907 23.5076 87.1542 25.0544 85.9616 25.5202C85.8715 23.5141 85.7979 21.5083 85.7945 19.5008C86.9204 19.9808 87.5458 21.023 87.5663 22.3389L87.5709 22.3389ZM88.0401 34.0287C87.8493 34.3327 86.7572 35.4492 86.2801 35.1775C86.1153 32.3176 85.9973 29.6616 86.0156 26.7617C86.0273 26.7618 88.2969 26.3315 88.5873 31.1674C88.6445 32.1262 88.5647 33.1886 88.0401 34.0263" fill="#550CCC"/>
<path d="M96.7992 33.9533C95.7826 29.3476 94.9968 24.623 93.4635 20.1494C93.2707 19.5864 92.3447 19.4545 92.1966 20.1353C91.7451 22.1844 91.7112 24.383 91.5147 26.463C91.2493 29.2526 91.04 32.0663 90.6156 34.8354C90.4893 35.6589 91.7524 36.0166 91.8786 35.1977C92.1868 33.1891 92.392 31.1629 92.5787 29.1296C93.1936 29.1411 93.8082 29.0939 94.4141 28.9888C94.7879 30.755 95.1429 32.5257 95.5261 34.2779C95.709 35.1026 96.9799 34.7615 96.7969 33.9439L96.7992 33.9533ZM92.6987 27.8222C92.7225 27.5748 92.9436 24.5533 93.056 23.2926C93.4613 24.7507 93.8102 26.2269 94.1356 27.7074C93.6611 27.789 93.1801 27.8274 92.6987 27.8222" fill="#550CCC"/>
<path d="M100.948 21.5905C99.3898 21.3677 97.8444 21.0626 96.3185 20.6766C95.5524 20.4904 95.209 21.669 95.9798 21.8576C96.5902 22.0046 97.2015 22.1423 97.8137 22.2706C97.7637 22.7702 98.412 31.6249 98.4298 33.6021C98.4327 34.392 99.6621 34.4081 99.6592 33.6158C99.65 31.7112 99.0073 22.985 99.029 22.5085C99.6601 22.6231 100.296 22.7307 100.934 22.8172C101.715 22.9218 101.722 21.695 100.948 21.5905Z" fill="#550CCC"/>
<path d="M103.903 22.2544C101.503 22.2277 101.447 25.3304 101.464 27.4151C101.477 29.3503 101.764 33.2234 103.901 32.9714C105.709 32.7579 106.244 30.3102 106.226 27.7183C106.21 25.0073 105.477 22.272 103.903 22.2544V22.2544ZM103.799 31.6009C102.451 31.6653 102.344 23.6789 103.888 23.5793C105.266 23.4895 105.697 31.5122 103.799 31.6009" fill="#550CCC"/>
<path d="M111.839 31.0878C111.678 30.2889 111.326 29.5408 110.812 28.9077C110.524 28.595 110.181 28.3383 109.799 28.1509C110.35 27.5713 110.647 26.7971 110.626 25.9985C110.643 24.5078 109.735 23.1352 108.202 22.8961C108.106 22.8833 108.009 22.8922 107.917 22.922C107.825 22.9519 107.742 23.0019 107.672 23.0685C107.602 23.1351 107.549 23.2165 107.515 23.3066C107.481 23.3967 107.468 23.4933 107.477 23.5891C107.471 23.6348 107.47 23.6812 107.476 23.727C107.542 26.4058 107.638 29.0896 107.62 31.7675C107.612 32.5059 108.766 32.5211 108.77 31.7804C108.78 30.8457 108.768 29.8921 108.752 28.9478C109.23 29.081 109.661 29.3429 109.999 29.7049C110.374 30.1948 110.628 30.7661 110.74 31.3723C110.919 32.0894 112.032 31.7981 111.853 31.0786L111.839 31.0878ZM109.483 25.8199C109.519 26.3881 109.356 27.3211 108.724 27.501C108.699 26.4234 108.668 25.3457 108.641 24.2681C108.898 24.4376 109.11 24.6679 109.257 24.9386C109.404 25.2093 109.481 25.512 109.483 25.8199" fill="#550CCC"/>
<path d="M112.172 24.1509L112.131 27.8194L112.848 27.8274L112.815 30.7341L115.005 26.9587L113.93 26.9467L115.031 24.6361L112.172 24.1509Z" fill="#550CCC"/>
</svg>
