<svg width="23" height="20" viewBox="0 0 23 20" fill="none" xmlns="http://www.w3.org/2000/svg">
<path d="M11.207 4.51147C13.967 4.51147 16.207 6.75147 16.207 9.51147C16.207 10.1615 16.077 10.7715 15.847 11.3415L18.767 14.2615C20.277 13.0015 21.467 11.3715 22.197 9.51147C20.467 5.12147 16.197 2.01147 11.197 2.01147C9.79703 2.01147 8.45703 2.26147 7.21703 2.71147L9.37703 4.87147C9.94703 4.64147 10.557 4.51147 11.207 4.51147ZM1.20703 1.78147L3.48703 4.06147L3.94703 4.52147C2.28703 5.81147 0.987031 7.53147 0.207031 9.51147C1.93703 13.9015 6.20703 17.0115 11.207 17.0115C12.757 17.0115 14.237 16.7115 15.587 16.1715L16.007 16.5915L18.937 19.5115L20.207 18.2415L2.47703 0.511475L1.20703 1.78147ZM6.73703 7.31147L8.28703 8.86147C8.23703 9.07148 8.20703 9.29147 8.20703 9.51147C8.20703 11.1715 9.54703 12.5115 11.207 12.5115C11.427 12.5115 11.647 12.4815 11.857 12.4315L13.407 13.9815C12.737 14.3115 11.997 14.5115 11.207 14.5115C8.44703 14.5115 6.20703 12.2715 6.20703 9.51147C6.20703 8.72147 6.40703 7.98147 6.73703 7.31147ZM11.047 6.53148L14.197 9.68147L14.217 9.52147C14.217 7.86147 12.877 6.52147 11.217 6.52147L11.047 6.53148Z" fill="#828282"/>
</svg>
