<svg width="23" height="16" viewBox="0 0 23 16" fill="none" xmlns="http://www.w3.org/2000/svg">
<path d="M11.207 0.0114746C6.20703 0.0114746 1.93703 3.12147 0.207031 7.51147C1.93703 11.9015 6.20703 15.0115 11.207 15.0115C16.207 15.0115 20.477 11.9015 22.207 7.51147C20.477 3.12147 16.207 0.0114746 11.207 0.0114746ZM11.207 12.5115C8.44703 12.5115 6.20703 10.2715 6.20703 7.51147C6.20703 4.75147 8.44703 2.51147 11.207 2.51147C13.967 2.51147 16.207 4.75147 16.207 7.51147C16.207 10.2715 13.967 12.5115 11.207 12.5115ZM11.207 4.51147C9.54703 4.51147 8.20703 5.85147 8.20703 7.51147C8.20703 9.17147 9.54703 10.5115 11.207 10.5115C12.867 10.5115 14.207 9.17147 14.207 7.51147C14.207 5.85147 12.867 4.51147 11.207 4.51147Z" fill="#828282"/>
</svg>
