<svg width="68" height="67" viewBox="0 0 68 67" fill="none" xmlns="http://www.w3.org/2000/svg">
<path d="M49.5064 18.7782L27.5397 40.7449L15.573 28.8116L10.873 33.5116L27.5397 50.1782L54.2064 23.5116L49.5064 18.7782ZM34.2064 0.178223C15.8064 0.178223 0.873047 15.1116 0.873047 33.5116C0.873047 51.9116 15.8064 66.8449 34.2064 66.8449C52.6064 66.8449 67.5397 51.9116 67.5397 33.5116C67.5397 15.1116 52.6064 0.178223 34.2064 0.178223ZM34.2064 60.1782C19.473 60.1782 7.53971 48.2449 7.53971 33.5116C7.53971 18.7782 19.473 6.84489 34.2064 6.84489C48.9397 6.84489 60.8731 18.7782 60.8731 33.5116C60.8731 48.2449 48.9397 60.1782 34.2064 60.1782Z" fill="#57D9A3"/>
</svg>
