<svg width="476" height="397" viewBox="0 0 476 397" fill="none" xmlns="http://www.w3.org/2000/svg">
<path fill-rule="evenodd" clip-rule="evenodd" d="M146.179 106.921C147.937 105.163 196.18 54.0202 249.608 73.9151C303.036 93.81 377.888 48.2556 409.839 113.125C441.79 177.994 404.145 298.189 309.662 309.121C215.179 320.053 111.17 307.363 95.2471 258.452C81.6792 216.061 67.1447 187.221 146.179 106.921Z" fill="white"/>
<path fill-rule="evenodd" clip-rule="evenodd" d="M216.198 140.84C216.198 140.84 208.395 153.599 206.954 176.517C206.954 176.517 212.613 175.99 212.596 175.164C212.578 174.338 216.198 140.84 216.198 140.84Z" fill="#F7AD36"/>
<path fill-rule="evenodd" clip-rule="evenodd" d="M318.133 316.467C317.521 316.703 316.841 316.694 316.236 316.442C315.63 316.19 315.145 315.714 314.881 315.113L270.68 206.693C270.56 206.396 270.501 206.078 270.507 205.758C270.513 205.437 270.583 205.121 270.715 204.829C270.846 204.536 271.035 204.274 271.271 204.056C271.507 203.839 271.784 203.672 272.086 203.565C272.698 203.331 273.377 203.343 273.98 203.598C274.583 203.854 275.063 204.333 275.32 204.936L319.556 313.356C319.674 313.653 319.73 313.971 319.721 314.29C319.713 314.61 319.64 314.924 319.507 315.214C319.374 315.505 319.184 315.766 318.948 315.981C318.711 316.196 318.434 316.361 318.133 316.467V316.467Z" fill="#B094E8"/>
<path fill-rule="evenodd" clip-rule="evenodd" d="M162.999 310.369L151.558 309.543L155.336 296.361L166.303 297.135L162.999 310.369Z" fill="#FF714D"/>
<path fill-rule="evenodd" clip-rule="evenodd" d="M214.476 310.263L202.208 309.384L203.755 296.748L216.022 297.627L214.476 310.263Z" fill="#FF714D"/>
<path fill-rule="evenodd" clip-rule="evenodd" d="M135.705 318.189C135.688 318.415 135.721 318.642 135.8 318.854C135.878 319.066 136.002 319.259 136.162 319.419C137.653 319.872 139.193 320.143 140.749 320.228C145.406 319.999 154.317 319.015 160.485 318.699C161.468 318.639 162.394 318.22 163.087 317.521C163.773 316.854 164.176 315.947 164.211 314.99C164.211 311.476 164.334 306.765 164.334 306.765L152.612 305.605C147.942 308.787 143.108 311.72 138.13 314.393C136.091 315.342 135.863 316.15 135.705 318.259V318.189Z" fill="#292A61"/>
<path fill-rule="evenodd" clip-rule="evenodd" d="M183.297 318.224C182.871 318.049 182.531 317.713 182.35 317.289C182.169 316.864 182.162 316.386 182.331 315.957L215.934 232.722C216.11 232.291 216.449 231.948 216.877 231.767C217.305 231.586 217.788 231.582 218.219 231.755V231.755C218.649 231.931 218.993 232.27 219.174 232.698C219.355 233.126 219.359 233.609 219.186 234.04L185.565 317.258C185.389 317.684 185.053 318.024 184.629 318.205C184.205 318.386 183.727 318.393 183.297 318.224Z" fill="#B094E8"/>
<path fill-rule="evenodd" clip-rule="evenodd" d="M185.389 319.437C184.708 319.638 183.976 319.567 183.347 319.239C182.718 318.911 182.24 318.352 182.014 317.68L131.346 192.897C131.188 192.584 131.096 192.242 131.075 191.892C131.055 191.542 131.106 191.192 131.226 190.862C131.347 190.533 131.533 190.232 131.774 189.977C132.016 189.723 132.306 189.52 132.629 189.382C133.309 189.182 134.041 189.253 134.67 189.581C135.3 189.908 135.777 190.467 136.003 191.14L186.672 315.922C186.827 316.236 186.917 316.578 186.936 316.927C186.955 317.276 186.904 317.626 186.784 317.955C186.664 318.283 186.478 318.584 186.238 318.839C185.999 319.094 185.71 319.297 185.389 319.437V319.437Z" fill="#B094E8"/>
<path d="M264.512 221.932H198.676C194.396 221.932 190.925 225.402 190.925 229.682C190.925 233.963 194.396 237.433 198.676 237.433H264.512C268.792 237.433 272.262 233.963 272.262 229.682C272.262 225.402 268.792 221.932 264.512 221.932Z" fill="#B094E8"/>
<path fill-rule="evenodd" clip-rule="evenodd" d="M219.344 188.89C219.344 188.89 212.121 209.664 212.683 213.706C213.304 218.371 215.047 222.816 217.763 226.659L253.106 226.378C255.487 226.361 257.836 225.826 259.989 224.811C262.143 223.796 264.05 222.325 265.579 220.499C267.107 218.673 268.22 216.536 268.84 214.238C269.46 211.939 269.572 209.532 269.169 207.186V207.045C269.011 206.078 268.853 205.129 268.73 204.163C268.115 199.681 266.305 186.219 266.305 186.219C255.285 193.354 235.32 196.289 217.833 191.491L219.344 188.89Z" fill="#3221CF"/>
<path fill-rule="evenodd" clip-rule="evenodd" d="M190.169 190.314L203.21 178.89L213.087 166.588L218.94 180.437C212.796 189.946 203.285 196.783 192.314 199.576L190.767 194.936L190.169 190.314Z" fill="#F7AD36"/>
<path fill-rule="evenodd" clip-rule="evenodd" d="M232.526 270.983H204.564C204.197 270.978 203.847 270.831 203.587 270.571C203.328 270.312 203.18 269.961 203.176 269.594V269.594C203.176 269.226 203.322 268.873 203.582 268.613C203.843 268.352 204.196 268.206 204.564 268.206H232.526C232.894 268.206 233.247 268.352 233.507 268.613C233.768 268.873 233.914 269.226 233.914 269.594C233.91 269.961 233.762 270.312 233.502 270.571C233.243 270.831 232.892 270.978 232.526 270.983V270.983Z" fill="#B094E8"/>
<path fill-rule="evenodd" clip-rule="evenodd" d="M227.394 313.637C226.967 313.462 226.627 313.125 226.446 312.701C226.265 312.277 226.258 311.799 226.427 311.37L258.185 232.722C258.361 232.296 258.697 231.955 259.121 231.775C259.545 231.594 260.023 231.587 260.452 231.755C260.883 231.931 261.226 232.27 261.407 232.698C261.588 233.126 261.593 233.609 261.419 234.04L229.661 312.67C229.485 313.097 229.149 313.437 228.725 313.618C228.301 313.799 227.823 313.806 227.394 313.637Z" fill="#B094E8"/>
<path fill-rule="evenodd" clip-rule="evenodd" d="M294.126 313.637C294.552 313.462 294.892 313.125 295.073 312.701C295.254 312.277 295.261 311.799 295.093 311.37L263.335 232.722C263.159 232.296 262.823 231.955 262.399 231.775C261.975 231.594 261.497 231.587 261.068 231.755C260.637 231.931 260.293 232.27 260.112 232.698C259.931 233.126 259.927 233.609 260.101 234.04L291.859 312.67C292.034 313.097 292.371 313.437 292.795 313.618C293.219 313.799 293.697 313.806 294.126 313.637Z" fill="#B094E8"/>
<path fill-rule="evenodd" clip-rule="evenodd" d="M152.928 300.334C152.928 298.348 164.299 255.078 170.696 236.888C172.474 231.861 176.135 227.721 180.907 225.341L218.94 206.431L243.808 227.521L191.435 249.138C189.396 262.881 179.712 282.759 168.587 301.599L152.928 300.334Z" fill="url(#paint0_linear)"/>
<g style="mix-blend-mode:multiply" opacity="0.34">
<path fill-rule="evenodd" clip-rule="evenodd" d="M162.26 301.124C163.79 288.523 173.614 277.24 178.078 270.983C183.702 263.004 180.275 249.735 182.612 243.091C183.79 240.55 185.428 238.25 187.445 236.308C192.647 230.932 199.177 227.027 206.374 224.989C216.075 222.125 221.84 217.959 227.885 214.022L243.826 227.573L191.435 249.137C189.396 262.881 179.712 282.758 168.587 301.599L162.26 301.124Z" fill="#292A61"/>
</g>
<path fill-rule="evenodd" clip-rule="evenodd" d="M56.5647 316.239C56.2641 316.13 55.9887 315.961 55.7549 315.743C55.5211 315.526 55.3336 315.263 55.204 314.97C55.0743 314.678 55.005 314.363 55.0003 314.043C54.9955 313.724 55.0554 313.406 55.1763 313.11L100.52 205.2C100.77 204.599 101.242 204.118 101.838 203.857C102.433 203.595 103.107 203.572 103.718 203.794V203.794C104.019 203.903 104.294 204.071 104.528 204.289C104.762 204.507 104.949 204.77 105.079 205.062C105.209 205.355 105.278 205.67 105.283 205.99C105.288 206.309 105.228 206.627 105.107 206.922L59.7809 314.921C59.5145 315.509 59.0329 315.974 58.4349 316.219C57.8369 316.464 57.1677 316.471 56.5647 316.239V316.239Z" fill="#B094E8"/>
<path fill-rule="evenodd" clip-rule="evenodd" d="M251.893 313.637C252.32 313.462 252.66 313.126 252.841 312.702C253.021 312.277 253.028 311.799 252.86 311.37L221.102 232.722C220.926 232.291 220.587 231.948 220.159 231.767C219.731 231.586 219.248 231.582 218.817 231.755C218.387 231.931 218.043 232.27 217.862 232.698C217.681 233.126 217.677 233.609 217.851 234.04L249.591 312.671C249.678 312.886 249.806 313.082 249.969 313.247C250.132 313.413 250.327 313.544 250.541 313.634C250.755 313.724 250.984 313.77 251.217 313.771C251.449 313.771 251.679 313.726 251.893 313.637V313.637Z" fill="#B094E8"/>
<path fill-rule="evenodd" clip-rule="evenodd" d="M186.444 320.193C186.428 320.422 186.461 320.651 186.539 320.866C186.618 321.081 186.741 321.277 186.901 321.441C188.394 321.885 189.933 322.156 191.488 322.249C196.145 322.003 205.055 321.019 211.224 320.703C212.204 320.649 213.131 320.236 213.825 319.543C214.516 318.871 214.919 317.957 214.95 316.995C214.95 313.48 215.073 308.769 215.073 308.769L202.033 308.488C197.795 311.345 193.4 313.962 188.869 316.327C186.83 317.276 186.602 318.084 186.444 320.193V320.193Z" fill="#292A61"/>
<path fill-rule="evenodd" clip-rule="evenodd" d="M225.477 95.3564C225.477 95.3564 215.407 99.9084 223.298 109.293C231.189 118.678 225.477 95.3564 225.477 95.3564Z" fill="#292A61"/>
<path fill-rule="evenodd" clip-rule="evenodd" d="M257.236 135.725C257.129 134.239 256.633 132.806 255.797 131.572C254.961 130.338 253.814 129.346 252.473 128.695C249.179 127.291 245.524 126.964 242.033 127.764C231.119 129.732 225.671 134.232 225.671 134.232L226.181 142.878L237.833 148.415L260.768 131.244L257.236 135.725Z" fill="#D18A17"/>
<path fill-rule="evenodd" clip-rule="evenodd" d="M223.615 103.389C223.693 101.728 224.108 100.1 224.833 98.6037C225.558 97.1074 226.579 95.7736 227.834 94.6829C229.089 93.5922 230.552 92.7672 232.134 92.2577C233.717 91.7483 235.387 91.5649 237.042 91.7188V91.7188C240.165 92.0257 243.052 93.514 245.113 95.8792C247.175 98.2445 248.255 101.308 248.132 104.443C247.974 108.187 247.798 112.299 247.658 115.849C247.601 117.034 247.305 118.195 246.788 119.262C246.27 120.33 245.542 121.281 244.647 122.059C243.752 122.838 242.709 123.427 241.58 123.791C240.451 124.156 239.26 124.288 238.079 124.18L231.313 123.512C229.028 123.277 226.919 122.178 225.416 120.44C223.914 118.703 223.131 116.457 223.228 114.162C223.369 110.876 223.527 107.009 223.668 103.389H223.615Z" fill="#FF714D"/>
<path fill-rule="evenodd" clip-rule="evenodd" d="M252.702 134.619L245.391 115.655L232.104 121.578L235.795 139.856L252.702 134.619Z" fill="#FF714D"/>
<path fill-rule="evenodd" clip-rule="evenodd" d="M241.067 101.947C241.067 101.947 239.502 113.125 248.272 113.388C248.272 113.388 252.736 103.3 253.246 98.1332C254.213 88.5197 234.95 86.604 227.147 90.699C219.344 94.794 224.124 102.175 241.067 101.947Z" fill="#292A61"/>
<path fill-rule="evenodd" clip-rule="evenodd" d="M234.054 131.226C238.466 137.887 249.011 131.859 250.733 129.469C251.014 129.1 255.654 131.824 256.269 132.228C265.531 138.625 266.814 166.095 268.396 176.007C269.169 180.612 273.492 196.096 271.19 200.12C270.417 201.438 263.194 200.419 261.752 200.683C255.707 201.755 228.606 203.864 224.845 199.716C221.084 195.568 223.913 187.906 223.211 183.037C221.075 167.002 222.272 150.698 226.725 135.146L234.054 131.226Z" fill="white"/>
<path fill-rule="evenodd" clip-rule="evenodd" d="M224.019 167.414C229.291 181.474 268.466 166.377 264.019 159.646C257.798 150.243 266.744 166.131 268.396 176.043C269.169 180.648 273.492 196.131 271.19 200.156C270.417 201.474 267.341 212.23 265.917 212.283C246.743 212.986 217.235 214.04 215.917 208.645C214.036 201.017 222.648 187.959 223.281 183.073C224.88 170.384 224.019 167.414 224.019 167.414Z" fill="#E8E8E8"/>
<path fill-rule="evenodd" clip-rule="evenodd" d="M248.079 108.713C247.198 108.64 246.321 108.901 245.624 109.445C244.927 109.989 244.461 110.776 244.318 111.648C244.103 112.057 243.984 112.509 243.969 112.97C243.954 113.432 244.043 113.891 244.23 114.313C244.418 114.735 244.698 115.109 245.051 115.407C245.404 115.705 245.819 115.919 246.266 116.033C246.714 116.148 247.181 116.16 247.633 116.068C248.086 115.976 248.512 115.783 248.879 115.503C249.246 115.223 249.545 114.864 249.754 114.452C249.962 114.04 250.075 113.586 250.083 113.125C250.382 112.279 250.346 111.352 249.983 110.532C249.621 109.712 248.958 109.061 248.132 108.713H248.079Z" fill="#FF714D"/>
<path fill-rule="evenodd" clip-rule="evenodd" d="M223.228 114.179C222.665 113.177 220.275 129.24 229.924 129.996C239.573 130.752 243.632 126.868 244.3 108.414C244.3 108.414 240.416 119.627 234.775 119.785C222.999 120.154 223.913 115.303 223.228 114.108V114.179Z" fill="#292A61"/>
<path fill-rule="evenodd" clip-rule="evenodd" d="M260.575 224.533L256.62 218.364L229.414 216.413L209.326 225.956C206.361 227.367 203.86 229.595 202.116 232.379C200.373 235.162 199.46 238.384 199.484 241.668L199.625 258.452L198.553 304.956L216.391 304.446C222.033 282.091 224.247 263.075 222.49 245.746L260.575 224.533Z" fill="url(#paint1_linear)"/>
<g style="mix-blend-mode:multiply" opacity="0.34">
<path fill-rule="evenodd" clip-rule="evenodd" d="M269.204 207.186V207.045C269.046 206.078 268.888 205.129 268.765 204.163C268.15 199.681 266.34 186.219 266.34 186.219C255.32 193.354 256.603 204.76 257.113 208.803C258.044 216.395 250.399 219.348 250.399 219.348L250.557 219.717L231.313 232.792C225.267 235.675 216.304 234.55 216.374 241.158L214.898 254.093L209.748 304.674L216.391 304.481C222.033 282.125 224.248 263.109 222.49 245.78L260.61 224.69C263.724 223.073 266.238 220.5 267.784 217.351C269.331 214.201 269.828 210.639 269.204 207.186V207.186Z" fill="#292A61"/>
</g>
<path fill-rule="evenodd" clip-rule="evenodd" d="M276.216 270.983H246.339C245.971 270.983 245.617 270.837 245.357 270.576C245.097 270.316 244.95 269.963 244.95 269.594V269.594C244.95 269.226 245.097 268.873 245.357 268.613C245.617 268.352 245.971 268.206 246.339 268.206H276.216C276.585 268.206 276.938 268.352 277.198 268.613C277.458 268.873 277.605 269.226 277.605 269.594V269.594C277.6 269.961 277.452 270.312 277.193 270.571C276.934 270.831 276.583 270.978 276.216 270.983V270.983Z" fill="#B094E8"/>
<path fill-rule="evenodd" clip-rule="evenodd" d="M229.59 131.824C229.59 131.824 224.757 156.429 224.634 171.438C224.511 186.447 217.797 217.239 217.797 217.239C215.372 212.739 206.76 214.093 205.987 209.98C205.987 209.98 213.526 160.401 214.774 147.396C216.198 134.707 220.978 135.269 229.59 131.824Z" fill="#FFBC4F"/>
<path fill-rule="evenodd" clip-rule="evenodd" d="M234.793 101.596C234.793 101.596 213.386 99.8381 218.36 90.4355C222.965 81.648 237.939 100.137 241.085 96.7625L234.793 101.596Z" fill="#292A61"/>
<path fill-rule="evenodd" clip-rule="evenodd" d="M214.863 193.6C214.863 193.6 210.363 190.525 207.499 192.019C206.128 192.739 203.843 192.774 201.804 193.899C199.984 195.179 198.402 196.767 197.129 198.592C197.117 199.44 197.389 200.267 197.902 200.942C198.415 201.618 199.139 202.102 199.959 202.318C200.961 202.529 204.001 199.822 204.001 199.822C207.159 200.772 210.521 200.815 213.703 199.945L214.863 193.6Z" fill="#FF714D"/>
<path fill-rule="evenodd" clip-rule="evenodd" d="M193.931 193.355C193.931 193.355 189.677 189.945 186.707 191.228C185.284 191.843 183.017 191.703 180.89 192.687C178.982 193.833 177.287 195.302 175.881 197.028C175.805 197.872 176.014 198.718 176.477 199.429C176.939 200.14 177.627 200.674 178.43 200.947C179.431 201.228 182.647 198.75 182.647 198.75C185.727 199.935 189.078 200.221 192.314 199.576L193.931 193.355Z" fill="#FF714D"/>
<path fill-rule="evenodd" clip-rule="evenodd" d="M214.863 193.6L229.116 192.563L229.678 200.156L211.822 199.172L214.863 193.6Z" fill="#FF714D"/>
<path d="M220.275 197.871H173.614V200.841H220.275V197.871Z" fill="white"/>
<path fill-rule="evenodd" clip-rule="evenodd" d="M278.132 181.931C277.973 174.028 277.298 166.143 276.111 158.328C274.565 148.433 272.596 140.999 269.081 136.904C266.023 133.389 263.123 132.756 259.239 130.84L252.455 128.696C248.308 148.029 245.425 166.412 247.183 185.534L224.511 190.033V200.842H259.52L266.55 198.574L273.194 194.866C276.458 191.36 278.229 186.72 278.132 181.931Z" fill="#FFBC4F"/>
<path fill-rule="evenodd" clip-rule="evenodd" d="M185.494 200.841H131.926L115.774 164.777H168.095C168.464 164.773 168.825 164.876 169.137 165.072C169.449 165.269 169.697 165.551 169.853 165.885L185.494 200.841Z" fill="white"/>
<path fill-rule="evenodd" clip-rule="evenodd" d="M183.421 200.841H129.852L114.439 166.535C114.355 166.357 114.318 166.16 114.332 165.963C114.345 165.767 114.409 165.577 114.516 165.411C114.623 165.246 114.771 165.111 114.945 165.018C115.119 164.926 115.314 164.879 115.511 164.883H166.478C166.704 164.883 166.925 164.947 167.115 165.068C167.305 165.19 167.456 165.364 167.55 165.568L183.421 200.841Z" fill="#7EEAEB"/>
<path fill-rule="evenodd" clip-rule="evenodd" d="M246.708 177.485C246.708 177.485 246.251 196.641 241.822 205.446C239.871 209.348 229.678 219.717 229.678 219.717C229.678 219.717 268.817 223.601 270.1 207.801C271.131 196.304 272.809 184.874 275.127 173.565L246.708 177.485Z" fill="#FFBC4F"/>
<path fill-rule="evenodd" clip-rule="evenodd" d="M150.503 183.056C151.136 185.305 149.396 187.133 146.619 187.133C145.297 187.159 143.997 186.783 142.893 186.055C141.788 185.327 140.931 184.281 140.433 183.056C139.8 180.806 141.522 178.996 144.317 178.996C145.638 178.966 146.937 179.338 148.042 180.063C149.147 180.788 150.005 181.832 150.503 183.056V183.056Z" fill="white"/>
<path fill-rule="evenodd" clip-rule="evenodd" d="M194.458 327.188C194.149 327.06 193.868 326.871 193.633 326.632C193.399 326.392 193.215 326.108 193.094 325.796C192.972 325.484 192.915 325.15 192.926 324.816C192.937 324.481 193.016 324.152 193.158 323.848L242.754 205.34C243.003 204.701 243.49 204.183 244.112 203.894C244.735 203.606 245.445 203.57 246.093 203.794V203.794C246.403 203.921 246.684 204.111 246.918 204.35C247.153 204.589 247.336 204.873 247.458 205.185C247.579 205.497 247.636 205.831 247.625 206.166C247.614 206.5 247.536 206.829 247.394 207.133L197.797 325.641C197.549 326.28 197.062 326.799 196.439 327.087C195.817 327.375 195.107 327.411 194.458 327.188V327.188Z" fill="#B094E8"/>
<path d="M343.617 295.588H333.757V311.739H343.617V295.588Z" fill="#FF714D"/>
<path d="M328.056 292.141L318.8 293.327L320.852 309.348L330.109 308.162L328.056 292.141Z" fill="#FF714D"/>
<path fill-rule="evenodd" clip-rule="evenodd" d="M342.298 170.525L310.505 168.293C303.3 185.604 302.526 209.208 302.526 209.208L301.648 250.684C301.609 252.409 301.914 254.123 302.544 255.728L319.767 300.263L330.523 297.539C327.711 278.207 326.235 263.409 319.521 256.449L326.692 208.399C337.641 207.028 348.309 208.399 349.926 190.279C351.279 175.13 342.298 170.525 342.298 170.525Z" fill="#9C74E8"/>
<path fill-rule="evenodd" clip-rule="evenodd" d="M328.678 298.488L330.436 297.609C327.87 279.911 326.921 267.222 321.525 258.61C320.494 256.942 320.095 254.959 320.4 253.021L327.044 208.399C338.01 207.028 323.529 187.678 323.529 187.678C322.58 197.045 322.07 207.01 319.644 214.357C318.107 218.887 317.301 223.633 317.254 228.417C317.242 235.461 316.554 242.488 315.198 249.401C314.371 253.465 314.831 257.686 316.516 261.475C321.121 271.422 323.81 281.721 328.678 298.488Z" fill="#8D65DB"/>
<path fill-rule="evenodd" clip-rule="evenodd" d="M321.736 173.758L327.22 245.622L332.281 299.472L344.355 300.262C346.587 279.173 348.942 266.712 343.986 251.281L349.03 195.287L333.951 178.327L321.736 173.758Z" fill="#9C74E8"/>
<path fill-rule="evenodd" clip-rule="evenodd" d="M350.892 182.845L341.753 194.181C338.379 207.204 344.337 213.513 338.871 236.097C338.418 242.76 338.832 249.453 340.101 256.009C342.825 270.069 342.527 280.509 341.578 300.158L344.354 300.333C346.586 279.243 347.869 272.706 345.479 249.999L350.892 182.845Z" fill="#8D65DB"/>
<path fill-rule="evenodd" clip-rule="evenodd" d="M333.071 310.509C333.071 310.509 333.071 318.875 333.071 323.919C333.077 324.341 333.184 324.756 333.383 325.129C333.582 325.502 333.867 325.822 334.214 326.063C334.558 326.309 334.957 326.468 335.377 326.526C335.796 326.584 336.223 326.54 336.622 326.397L341.578 324.64C342.352 324.38 343.015 323.866 343.458 323.181L344.39 321.757C345.156 320.586 345.649 319.259 345.835 317.872C346.021 316.485 345.893 315.074 345.462 313.743C344.548 310.949 343.546 307.838 343.546 307.838C339.223 305.606 335.796 306.818 333.001 310.509H333.071Z" fill="#292A61"/>
<path fill-rule="evenodd" clip-rule="evenodd" d="M320.804 306.238L318.133 313.567L311.331 317.978C311.026 318.153 310.78 318.415 310.625 318.731C310.47 319.047 310.414 319.402 310.463 319.75C310.512 320.099 310.665 320.424 310.901 320.685C311.137 320.945 311.446 321.129 311.788 321.212L315.057 322.179L328.291 317.838C328.98 317.616 329.576 317.171 329.984 316.572C330.391 315.974 330.587 315.256 330.541 314.534C330.347 311.019 330.013 305.307 330.013 305.307C328.654 304.289 326.961 303.819 325.271 303.992C323.581 304.165 322.018 304.966 320.892 306.238H320.804Z" fill="#292A61"/>
<path fill-rule="evenodd" clip-rule="evenodd" d="M318.327 71.9287C318.327 71.9287 303.616 79.5387 310.488 95.5846C317.36 111.631 321.033 99.8729 321.033 99.8729C321.033 99.8729 326.165 78.1678 318.327 71.9287Z" fill="#292A61"/>
<path fill-rule="evenodd" clip-rule="evenodd" d="M344.249 80.3125C346.055 84.2863 349.069 87.589 352.861 89.7503C358.573 93.1422 359.117 97.9753 359.891 105.568C361.244 117.624 373.494 115.252 370.752 131.93C368.995 142.124 358.45 148.345 344.39 135.849C330.33 123.354 309.345 122.598 310.417 113.933C311.841 101.631 334.214 86.8504 334.214 86.8504L344.249 80.3125Z" fill="#292A61"/>
<path fill-rule="evenodd" clip-rule="evenodd" d="M319.592 105.233C319.592 105.233 327.711 102.035 334.689 105.515C341.666 108.994 335.585 119.381 335.585 119.381L313.845 115.462C313.845 115.462 315.18 106.675 319.592 105.233Z" fill="#19BFC0"/>
<path fill-rule="evenodd" clip-rule="evenodd" d="M308.783 109.733L322.456 107.061L330.875 106.763L349.926 114.461L341.279 168.258L308.765 166.605L308.783 109.733Z" fill="#E8E8E8"/>
<path fill-rule="evenodd" clip-rule="evenodd" d="M332.404 169.242L332.773 174.286H333.212L332.404 163.389C325.251 165.287 317.219 164.004 308.713 161.017L310.119 167.379C318.133 170.05 325.638 171.034 332.404 169.242Z" fill="#412999"/>
<path d="M349.768 118.116C346.796 117.222 344.027 115.76 341.613 113.811" stroke="white" stroke-width="2.61" stroke-linecap="round" stroke-linejoin="round"/>
<path d="M347.518 131.825C342.572 130.211 337.906 127.84 333.687 124.795" stroke="white" stroke-width="2.61" stroke-linecap="round" stroke-linejoin="round"/>
<path fill-rule="evenodd" clip-rule="evenodd" d="M320.717 96.2354C320.717 96.2354 321.156 103.353 321.508 109.258C321.554 110.031 321.804 110.777 322.234 111.421C322.664 112.064 323.258 112.582 323.954 112.92C324.65 113.258 325.424 113.405 326.195 113.345C326.967 113.286 327.709 113.021 328.344 112.58L329.575 111.736C330.442 111.133 331.12 110.295 331.531 109.322C331.941 108.348 332.067 107.278 331.895 106.236C330.998 100.77 329.346 90.8223 329.346 90.8223L320.717 96.2354Z" fill="#FF714D"/>
<path fill-rule="evenodd" clip-rule="evenodd" d="M320.945 99.8728C320.945 99.8728 325.796 100.312 327.975 98.5898C327.975 98.5898 325.304 104.108 321.138 104.513L320.945 99.8728Z" fill="#C44627"/>
<path fill-rule="evenodd" clip-rule="evenodd" d="M314.618 126.288C315.163 118.169 319.592 105.198 319.592 105.198L308.15 109.715C308.15 109.715 297.605 111.789 294.512 138.907L296.164 149.768L306.024 135.427C305.461 146.464 304.864 157.484 304.635 160.032C303.932 167.73 300.699 181.772 300.699 181.772C304.761 184.672 309.627 186.233 314.618 186.236L316.375 159.874C316.375 159.874 313.897 137.027 314.618 126.288Z" fill="url(#paint2_linear)"/>
<path fill-rule="evenodd" clip-rule="evenodd" d="M359.171 160.929L354.601 119.329C353.283 113.459 344.39 110.33 340.541 109.258L334.618 105.515C334.618 105.515 327.993 126.464 327.729 141.772C327.465 157.08 325.339 187.221 325.339 187.221C325.339 187.221 344.495 189.541 352.791 184.11L350.77 163.723C351.244 166.447 355.058 163.828 358.485 162.212C358.725 162.103 358.922 161.918 359.046 161.686C359.17 161.454 359.213 161.188 359.171 160.929V160.929Z" fill="url(#paint3_linear)"/>
<g opacity="0.5">
<path opacity="0.5" fill-rule="evenodd" clip-rule="evenodd" d="M359.171 160.946L354.601 119.346C353.547 114.636 347.571 111.701 343.353 110.154C345.884 112.07 350.295 114.407 350.946 117.184C357.782 131.701 349.961 134.373 353.529 143.775C358.433 156.693 355.462 159.382 353.74 164.408C355.146 163.863 356.851 162.879 358.485 162.106C358.703 162.004 358.885 161.839 359.007 161.632C359.129 161.425 359.186 161.186 359.171 160.946Z" fill="#18A8B8"/>
</g>
<path fill-rule="evenodd" clip-rule="evenodd" d="M336.2 82.6141C336.527 81.2229 336.289 79.7586 335.538 78.5428C334.787 77.3269 333.584 76.4588 332.193 76.129L322.123 73.7212C320.736 73.4766 319.308 73.7495 318.109 74.4881C316.911 75.2268 316.025 76.3798 315.62 77.7283C314.006 82.7985 313.107 88.069 312.948 93.3876C312.806 94.8529 313.163 96.3234 313.96 97.561C314.757 98.7985 315.949 99.7308 317.342 100.207C320.435 100.945 330.418 100.207 332.615 94.9342C334.124 90.9375 335.3 86.8226 336.13 82.6317L336.2 82.6141Z" fill="#FF714D"/>
<path fill-rule="evenodd" clip-rule="evenodd" d="M347.518 90.9626C347.518 90.9626 345.163 78.502 340.611 74.9518C333.95 69.8726 326.92 65.8128 317.465 72.5089C317.465 72.5089 314.776 90.0839 341.947 91.6129L347.518 90.9626Z" fill="#292A61"/>
<path fill-rule="evenodd" clip-rule="evenodd" d="M336.27 93.0018C335.757 93.9469 334.891 94.6518 333.862 94.9642C332.833 95.2766 331.722 95.1715 330.769 94.6715C329.935 93.9931 329.401 93.0138 329.283 91.9452C329.164 90.8765 329.471 89.8041 330.137 88.9596C330.639 88.0026 331.497 87.2818 332.527 86.9529C333.556 86.624 334.674 86.7135 335.638 87.2021C336.49 87.888 337.035 88.8839 337.153 89.9711C337.272 91.0584 336.954 92.1484 336.27 93.0018V93.0018Z" fill="#FF714D"/>
<path opacity="0.5" fill-rule="evenodd" clip-rule="evenodd" d="M348.01 162.598L344.284 141.508C344.038 140.085 343.019 140.172 342.984 141.596L341.683 187.291C345.576 187.07 349.371 185.983 352.79 184.11L351.525 170.05L348.01 162.598Z" fill="#18A8B8"/>
<path fill-rule="evenodd" clip-rule="evenodd" d="M328.52 189.875C326.453 190.699 324.721 192.19 323.599 194.111C323.142 195.095 321.631 196.044 321.103 196.641C319.153 198.873 324.794 198.065 326.587 194.48L328.678 190.227L328.52 189.875Z" fill="#FF714D"/>
<path fill-rule="evenodd" clip-rule="evenodd" d="M348.011 162.599C342.316 166.272 338.731 183.056 327.378 191.738L331.438 196.413C331.438 196.413 354.408 178.961 358.556 162.124C355.153 163.257 351.502 163.422 348.011 162.599V162.599Z" fill="#FF714D"/>
<path fill-rule="evenodd" clip-rule="evenodd" d="M330.699 188.768C330.699 188.768 325.62 190.718 325.216 193.935C325.04 195.464 323.775 197.45 323.546 199.682C323.567 201.903 323.978 204.104 324.759 206.184C325.448 206.679 326.282 206.929 327.13 206.894C327.977 206.859 328.788 206.541 329.434 205.991C330.172 205.253 329.662 201.228 329.662 201.228C332.248 199.174 334.193 196.424 335.269 193.302L330.699 188.768Z" fill="#FF714D"/>
<path fill-rule="evenodd" clip-rule="evenodd" d="M324.179 196.061L321.929 200.771C321.929 200.771 321.789 205.024 322.545 204.901C323.3 204.778 324.302 200.982 324.302 200.982C324.302 200.982 324.39 195.867 324.302 195.955" fill="#FF714D"/>
<path fill-rule="evenodd" clip-rule="evenodd" d="M334.689 105.515C334.689 105.515 328.608 125.357 328.274 131.877C327.94 138.397 327.712 145.41 327.712 145.41L336.271 127.483L334.882 122.984L343.353 110.225L334.689 105.515Z" fill="#7EEAEB"/>
<path fill-rule="evenodd" clip-rule="evenodd" d="M319.592 105.233C319.592 105.233 315.374 119.75 314.987 123.019C314.601 126.288 314.882 142.264 314.882 142.264L306.692 124.355L311.613 118.573L309.943 109.188C309.943 109.188 317.922 105.022 319.592 105.233Z" fill="#7EEAEB"/>
<path fill-rule="evenodd" clip-rule="evenodd" d="M317.711 163.195L289.784 161.719L281.665 124.548L309.574 126.024L317.711 163.195Z" fill="white"/>
<path fill-rule="evenodd" clip-rule="evenodd" d="M288.467 139.258L281.032 139.768C280.806 139.768 280.582 139.722 280.375 139.633C280.167 139.543 279.98 139.412 279.825 139.247C279.67 139.083 279.551 138.888 279.474 138.675C279.398 138.462 279.366 138.236 279.38 138.01V138.01C279.407 137.563 279.604 137.142 279.931 136.835C280.258 136.528 280.689 136.358 281.138 136.358L288.554 136.903C289.468 136.903 290.084 137.22 290.066 138.133C290.013 139.135 289.38 139.258 288.467 139.258Z" fill="#FF714D"/>
<path fill-rule="evenodd" clip-rule="evenodd" d="M289.89 141.702L282.456 142.211C282.238 142.211 282.023 142.168 281.822 142.084C281.622 141.999 281.44 141.876 281.288 141.72C281.136 141.565 281.016 141.38 280.936 141.178C280.856 140.976 280.817 140.759 280.822 140.542V140.542C280.849 140.094 281.046 139.674 281.372 139.367C281.699 139.059 282.131 138.889 282.579 138.89L289.996 139.434C290.927 139.434 291.542 139.751 291.525 140.665C291.419 141.579 290.804 141.719 289.89 141.702Z" fill="#FF714D"/>
<path fill-rule="evenodd" clip-rule="evenodd" d="M289.047 143.687L281.595 144.214C281.15 144.183 280.734 143.984 280.431 143.658C280.128 143.332 279.959 142.902 279.96 142.457V142.457C279.992 142.012 280.19 141.596 280.517 141.293C280.843 140.989 281.272 140.821 281.718 140.822L289.135 141.35C290.048 141.35 290.664 141.666 290.646 142.58C290.576 143.529 290.013 143.687 289.047 143.687Z" fill="#FF714D"/>
<path fill-rule="evenodd" clip-rule="evenodd" d="M288.941 145.603L281.507 146.113C281.059 146.086 280.639 145.889 280.332 145.562C280.025 145.235 279.854 144.804 279.855 144.355C279.886 143.911 280.085 143.495 280.411 143.191C280.738 142.888 281.167 142.72 281.612 142.721L289.029 143.266C289.943 143.266 290.558 143.582 290.541 144.496C290.47 145.445 289.855 145.603 288.941 145.603Z" fill="#FF714D"/>
<path fill-rule="evenodd" clip-rule="evenodd" d="M284.371 136.78C284.371 136.78 278.501 135.374 278.729 137.343C278.958 139.311 277.903 139.311 278.483 142.018C279.063 144.724 278.483 146.482 280.874 147.466C282.918 148.235 285.008 148.881 287.13 149.399L286.322 145.726L284.371 136.78Z" fill="#FF714D"/>
<path fill-rule="evenodd" clip-rule="evenodd" d="M278.133 181.931C277.973 174.028 277.298 166.143 276.112 158.328C274.565 148.433 272.597 140.999 269.082 136.904C266.024 133.389 263.124 132.756 259.24 130.84L252.456 128.696C278.467 142.018 270.031 170.525 271.788 189.629C267.605 191.861 265.637 191.14 255.971 193.144C250.698 194.725 245.689 197.028 237.869 198.416C231.998 197.168 228.694 196.764 224.635 197.924V200.894H259.644L266.674 198.627L273.317 194.919C276.55 191.38 278.277 186.722 278.133 181.931V181.931Z" fill="#F7AD36"/>
<path fill-rule="evenodd" clip-rule="evenodd" d="M246.55 185.71C246.55 185.71 257.833 181.773 262.157 181.773C262.157 181.773 249.028 181.421 246.673 181.966L246.55 185.71Z" fill="#F7AD36"/>
<path fill-rule="evenodd" clip-rule="evenodd" d="M284.319 206.431H91.1525C90.4114 206.431 89.7007 206.136 89.1766 205.612C88.6526 205.088 88.3582 204.377 88.3582 203.636V203.636C88.3628 202.897 88.6586 202.188 89.1817 201.665C89.7047 201.142 90.4128 200.846 91.1525 200.842H284.319C285.062 200.842 285.774 201.136 286.301 201.659C286.828 202.183 287.126 202.893 287.131 203.636C287.126 204.379 286.828 205.09 286.301 205.613C285.774 206.137 285.062 206.431 284.319 206.431V206.431Z" fill="#363780"/>
<defs>
<linearGradient id="paint0_linear" x1="152.858" y1="254.041" x2="243.808" y2="254.041" gradientUnits="userSpaceOnUse">
<stop stop-color="#723CDE"/>
<stop offset="0.4" stop-color="#5630D7"/>
<stop offset="0.86" stop-color="#3221CF"/>
</linearGradient>
<linearGradient id="paint1_linear" x1="53347.7" y1="10537.8" x2="55537.7" y2="10537.8" gradientUnits="userSpaceOnUse">
<stop stop-color="#723CDE"/>
<stop offset="0.4" stop-color="#5630D7"/>
<stop offset="0.86" stop-color="#3221CF"/>
</linearGradient>
<linearGradient id="paint2_linear" x1="294.512" y1="145.744" x2="319.592" y2="145.744" gradientUnits="userSpaceOnUse">
<stop stop-color="#75D8D9"/>
<stop offset="0.6" stop-color="#56BFD0"/>
<stop offset="0.99" stop-color="#47B3CC"/>
</linearGradient>
<linearGradient id="paint3_linear" x1="32100" y1="6274.51" x2="32100" y2="2430.09" gradientUnits="userSpaceOnUse">
<stop stop-color="#75D8D9"/>
<stop offset="0.6" stop-color="#56BFD0"/>
<stop offset="0.99" stop-color="#47B3CC"/>
</linearGradient>
</defs>
</svg>
