<svg width="100%" height="100%" viewBox="0 0 530 385" fill="none" xmlns="http://www.w3.org/2000/svg">
<path fill-rule="evenodd" clip-rule="evenodd" d="M424.208 284.403C421.905 286.686 358.672 353.121 288.644 327.278C218.616 301.434 120.507 360.609 78.6286 276.344C36.7499 192.078 86.0921 35.9431 209.931 21.7428C333.771 7.54254 470.095 24.0259 490.965 87.5619C508.749 142.628 527.799 180.092 424.208 284.403Z" fill="white"/>
<path fill-rule="evenodd" clip-rule="evenodd" d="M259.307 211.658C259.307 211.658 224.949 283.616 221.899 286.877C202.1 308.565 188.4 319.09 167.678 340.097L163.383 331.141C175.537 308.441 186.789 281.718 203.475 280.17L232.765 211.926L259.307 211.658Z" fill="url(#paint0_linear)"/>
<path fill-rule="evenodd" clip-rule="evenodd" d="M169.265 338.797L162.973 361.311C162.908 361.563 162.76 361.788 162.551 361.951C162.342 362.115 162.083 362.209 161.814 362.219C161.585 362.229 161.357 362.181 161.153 362.079C160.95 361.978 160.778 361.827 160.654 361.642L158.184 357.7C155.826 353.936 154.682 349.584 154.899 345.195L155.5 333.762C155.538 332.824 155.908 331.927 156.548 331.217C157.188 330.508 158.061 330.03 159.022 329.862L164.691 328.933C168.063 330.708 169.415 334.175 169.265 338.901V338.797Z" fill="#292A61"/>
<path fill-rule="evenodd" clip-rule="evenodd" d="M273.781 165.97C273.781 165.97 269.336 238.031 268.864 258.646C269.115 262.734 268.914 266.837 268.263 270.884C263.431 290.509 259.866 352.768 259.866 352.768C257.568 354.171 253.725 353.449 249.73 352.499C245.307 319.75 238.993 284.4 248.077 269.811L237.576 187.555L257.976 182.932L273.781 165.97Z" fill="url(#paint1_linear)"/>
<path fill-rule="evenodd" clip-rule="evenodd" d="M259.864 352.768L273.006 362.425C273.479 362.694 281.231 365.645 281.102 366.161C280.995 366.594 282.326 368.224 279.62 368.492L271.632 369.256C269.786 369.732 267.835 369.667 266.027 369.07L250.996 364.056C250.075 363.744 249.289 363.147 248.761 362.358C248.232 361.57 247.991 360.636 248.075 359.701L249.449 349.837C250.902 350.983 252.582 351.833 254.387 352.337C256.192 352.841 258.085 352.987 259.95 352.768H259.864Z" fill="#292A61"/>
<path fill-rule="evenodd" clip-rule="evenodd" d="M234.248 157.344C234.248 157.344 216.123 172.759 213.654 191.476C211.184 210.193 211.399 254.623 211.399 254.623C211.399 254.623 241.248 263.517 272.579 255.097L275.07 160.171L234.248 157.344Z" fill="url(#paint2_linear)"/>
<path opacity="0.5" fill-rule="evenodd" clip-rule="evenodd" d="M268.624 156.56C252.476 173.915 261.151 206.933 259.305 220.387C256.792 238.609 251.488 243.686 254.752 258.234C260.778 257.694 266.742 256.645 272.575 255.097L275.066 160.171L268.624 156.56Z" fill="#18A8B8"/>
<path fill-rule="evenodd" clip-rule="evenodd" d="M227.975 66.9372C227.761 67.1023 235.148 88.1511 247.56 84.2509C259.971 80.3507 247.774 55.8556 247.774 55.8556L227.975 66.9372Z" fill="#292A61"/>
<path fill-rule="evenodd" clip-rule="evenodd" d="M244.725 108.375L232.85 101.668L278.138 81.2175L293.621 46.5901L300.858 50.222C300.858 50.222 296.026 70.8582 292.59 83.2398C292.068 85.1649 291.146 86.9688 289.88 88.5432C288.615 90.1177 287.031 91.4302 285.225 92.4023L262.655 104.598L244.725 108.292V108.375Z" fill="#FF714D"/>
<path fill-rule="evenodd" clip-rule="evenodd" d="M242.062 117.372L269.334 105.589C269.334 105.589 258.79 89.0798 258.146 89.2036C222.628 96.2199 230.617 118.321 230.617 118.321L242.062 117.372Z" fill="#FFA938"/>
<path fill-rule="evenodd" clip-rule="evenodd" d="M258.039 77.9773L255.892 95.291C255.774 96.3165 255.374 97.2931 254.732 98.1201C254.09 98.9472 253.23 99.5948 252.241 99.9961C251.256 100.38 250.184 100.511 249.13 100.377C248.076 100.243 247.076 99.849 246.229 99.2325L244.597 98.015C243.432 97.1542 242.547 95.9925 242.045 94.6658C241.543 93.3391 241.445 91.9025 241.762 90.5241L246.422 70.1562L258.039 77.9773Z" fill="#FF714D"/>
<path fill-rule="evenodd" clip-rule="evenodd" d="M257.417 82.8892C256.282 82.9614 255.143 82.8162 254.066 82.462C252.99 82.1077 251.997 81.5515 251.146 80.8256C251.146 80.8256 254.282 85.7369 256.966 86.7275L257.417 82.8892Z" fill="#C44627"/>
<path fill-rule="evenodd" clip-rule="evenodd" d="M237.508 58.807C237.332 57.8761 237.348 56.9208 237.555 55.9959C237.763 55.0709 238.158 54.1943 238.719 53.4162C239.279 52.6381 239.994 51.9738 240.821 51.4612C241.649 50.9486 242.574 50.5978 243.543 50.4287L257.715 47.9318C258.691 47.7659 259.692 47.7872 260.659 47.9944C261.627 48.2017 262.542 48.5908 263.353 49.1394C264.163 49.6879 264.852 50.3851 265.381 51.1908C265.91 51.9964 266.268 52.8946 266.434 53.8337L270.149 73.4174C270.364 75.4108 269.834 77.4127 268.654 79.065C267.473 80.7172 265.72 81.9119 263.707 82.4354C256.749 84.3545 242.233 80.9496 241.524 77.0493C240.429 71.2919 238.539 64.6677 237.444 58.9102L237.508 58.807Z" fill="#FF714D"/>
<path fill-rule="evenodd" clip-rule="evenodd" d="M301.891 52.141C301.891 52.141 306.744 47.5185 311.232 42.9373C316.128 37.9434 315.527 35.0956 309.879 32.6193C308.312 31.897 303.652 33.5066 303.652 33.5066L297.467 40.915C297.467 40.915 289.264 48.4059 292.979 52.2029C296.694 56 301.891 52.141 301.891 52.141Z" fill="#FF714D"/>
<path fill-rule="evenodd" clip-rule="evenodd" d="M225.377 56.2478C225.377 56.2478 243.093 30.4114 264.245 46.652C264.245 46.652 266.693 71.2709 228.877 70.4042C218.29 70.1565 225.377 56.2478 225.377 56.2478Z" fill="#292A61"/>
<path d="M367.235 32.5372H322.977C312.125 32.5372 303.328 40.991 303.328 51.4193V56.4751C303.328 66.9034 312.125 75.3572 322.977 75.3572H367.235C378.086 75.3572 386.883 66.9034 386.883 56.4751V51.4193C386.883 40.991 378.086 32.5372 367.235 32.5372Z" fill="#E9DEFF"/>
<path d="M367.235 86.9542H322.977C312.125 86.9542 303.328 95.408 303.328 105.836V110.892C303.328 121.32 312.125 129.774 322.977 129.774H367.235C378.086 129.774 386.883 121.32 386.883 110.892V105.836C386.883 95.408 378.086 86.9542 367.235 86.9542Z" fill="#E9DEFF"/>
<path d="M367.235 143.311H322.977C312.125 143.311 303.328 151.765 303.328 162.193V167.249C303.328 177.677 312.125 186.131 322.977 186.131H367.235C378.086 186.131 386.883 177.677 386.883 167.249V162.193C386.883 151.765 378.086 143.311 367.235 143.311Z" fill="#E9DEFF"/>
<path fill-rule="evenodd" clip-rule="evenodd" d="M258.662 114.421L257.523 101.296L300.987 125.049L333.971 118.362L339.769 126.06L307.558 137.616C305.613 138.31 303.542 138.623 301.469 138.534C299.396 138.445 297.363 137.958 295.489 137.1L272.126 126.39L258.683 114.421H258.662Z" fill="#FF714D"/>
<path fill-rule="evenodd" clip-rule="evenodd" d="M277.625 133.179L279.128 134.046C279.128 134.046 287.052 116.299 286.623 115.824C276.616 104.805 268.541 99.6868 262.271 97.7264C260.363 97.1418 258.492 96.4528 256.666 95.6628C251.77 93.4134 244.362 94.858 241.892 92.4642C241.248 91.8657 241.763 90.6069 241.763 90.6069L234.999 92.4229C233.573 93.0326 232.318 93.9583 231.337 95.1241C230.355 96.2898 229.675 97.6625 229.351 99.1297C227.204 113.843 227.848 118.404 231.263 133.097C232.508 138.462 233.41 153.609 231.864 157.86C227.29 169.912 275.456 168.673 275.993 163.205C275.422 158.368 275.3 153.493 275.628 148.636C276.122 143.394 276.981 137.843 277.625 133.179Z" fill="url(#paint3_linear)"/>
<path fill-rule="evenodd" clip-rule="evenodd" d="M342.131 124.471C342.131 124.471 347.006 119.848 351.472 115.267C356.369 110.273 355.767 107.425 350.12 104.949C348.573 104.226 343.914 105.857 343.914 105.857L337.729 113.244C337.729 113.244 329.505 120.756 333.241 124.532C336.978 128.309 342.131 124.471 342.131 124.471Z" fill="#FF714D"/>
<path fill-rule="evenodd" clip-rule="evenodd" d="M350.549 106.827C350.549 106.827 358.087 101.978 356.734 98.8409C355.381 95.7042 343.85 105.775 343.85 105.775L347.221 110.851L350.549 106.827Z" fill="#FF714D"/>
<path fill-rule="evenodd" clip-rule="evenodd" d="M234.287 66.8961C235.615 65.7757 236.578 64.3113 237.062 62.6783C237.546 61.0452 237.53 59.3127 237.015 57.6883C236.501 56.0639 235.51 54.6164 234.162 53.5191C232.814 52.4219 231.165 51.7214 229.413 51.5016C226.781 51.0973 224.084 51.42 221.635 52.432C219.187 53.4441 217.088 55.1037 215.583 57.2178C206.328 69.5994 187.388 61.345 184.618 80.6604C182.299 96.8597 158.441 84.7876 163.53 112.688C168.19 138.132 199.671 127.896 201.067 116.361C202.463 104.825 201.582 96.674 211.396 94.7549C226.428 91.8452 227.394 84.7257 227.244 76.3062C227.179 72.4059 230.701 69.9502 234.287 66.8961Z" fill="#292A61"/>
<path fill-rule="evenodd" clip-rule="evenodd" d="M243.009 84.7875C243.009 84.7875 258.599 83.8589 253.746 60.6433C248.893 37.4277 236.996 70.0946 236.996 70.0946L243.009 84.7875Z" fill="#292A61"/>
<path fill-rule="evenodd" clip-rule="evenodd" d="M259.307 70.1564C259.307 71.3156 258.949 72.4487 258.279 73.4124C257.609 74.3762 256.656 75.1274 255.542 75.571C254.427 76.0146 253.201 76.1306 252.018 75.9045C250.835 75.6783 249.749 75.1202 248.896 74.3005C248.043 73.4809 247.462 72.4366 247.227 71.2998C246.991 70.1629 247.112 68.9846 247.574 67.9137C248.035 66.8428 248.817 65.9275 249.82 65.2835C250.823 64.6395 252.002 64.2958 253.208 64.2958C254.824 64.3012 256.372 64.9204 257.514 66.0183C258.657 67.1162 259.301 68.6038 259.307 70.1564V70.1564Z" fill="#FF714D"/>
<g style="mix-blend-mode:multiply" opacity="0.24">
<path fill-rule="evenodd" clip-rule="evenodd" d="M277.624 133.179C276.98 137.843 276.121 143.394 275.627 148.615C275.299 153.472 275.421 158.348 275.992 163.184C275.799 165 270.387 166.362 263.387 166.898C265.534 164.835 269.335 161.244 266.865 148.326C265.663 142.135 267.574 135.036 267.402 126.06L277.624 133.179Z" fill="#BF6C1D"/>
</g>
<defs>
<linearGradient id="paint0_linear" x1="194.069" y1="305.779" x2="237.497" y2="223.632" gradientUnits="userSpaceOnUse">
<stop stop-color="#FF714D"/>
<stop offset="0.22" stop-color="#F96C49"/>
<stop offset="0.51" stop-color="#E7603E"/>
<stop offset="0.85" stop-color="#CB4B2B"/>
<stop offset="0.92" stop-color="#C44627"/>
</linearGradient>
<linearGradient id="paint1_linear" x1="254.755" y1="291.602" x2="255.251" y2="224.431" gradientUnits="userSpaceOnUse">
<stop stop-color="#FF714D"/>
<stop offset="0.35" stop-color="#EC6341"/>
<stop offset="0.92" stop-color="#C44627"/>
</linearGradient>
<linearGradient id="paint2_linear" x1="243.224" y1="258.709" x2="243.224" y2="157.344" gradientUnits="userSpaceOnUse">
<stop stop-color="#75D8D9"/>
<stop offset="0.6" stop-color="#56BFD0"/>
<stop offset="0.99" stop-color="#47B3CC"/>
</linearGradient>
<linearGradient id="paint3_linear" x1="274.919" y1="164.464" x2="234.908" y2="92.3436" gradientUnits="userSpaceOnUse">
<stop stop-color="#FF7300"/>
<stop offset="0.13" stop-color="#FF7909"/>
<stop offset="0.34" stop-color="#FF8B23"/>
<stop offset="0.61" stop-color="#FFA74C"/>
<stop offset="0.93" stop-color="#FFCD85"/>
</linearGradient>
</defs>
</svg>
