<svg width="155" height="63" viewBox="0 0 155 63" fill="none" xmlns="http://www.w3.org/2000/svg">
<path d="M7.90224 60.9802L8.18443 59.9412C9.38057 55.3241 9.93486 40.8098 10.4703 26.7733C10.8763 16.0913 11.2623 5.99235 11.913 1.26926L12.0015 0.611457L12.6636 0.691743C21.5243 1.78419 127.173 24.1225 152.125 30.4245L153.838 30.8567L152.273 31.6763C145.512 35.2134 90.5045 45.4698 46.3025 53.7137C31.0767 56.5651 17.9527 58.9999 8.95988 60.7733L7.90224 60.9802ZM13.159 2.12555C12.563 7.03825 12.2013 16.6623 11.801 26.8259C11.2965 40.0312 10.7765 53.6576 9.69939 59.248C18.6487 57.493 31.377 55.1186 46.0359 52.3878C85.1482 45.0941 137.775 35.281 149.773 31.2299C122.22 24.4776 25.3314 3.98394 13.1563 2.12552L13.159 2.12555Z" fill="#550CCC"/>
<path d="M2.23449 1.27339C2.06484 2.65388 1.79897 5.38328 1.63204 6.7638C1.61114 6.93907 10.3417 7.56836 12.083 7.69039C13.689 7.80551 14.545 5.30408 12.9417 3.48532C11.8193 2.22271 3.73526 1.60873 2.25346 1.2709" fill="#550CCC"/>
<path d="M0.568273 58.3473C0.511661 57.1155 0.460363 54.6795 0.40378 53.445C0.405527 53.2884 8.17129 53.3211 9.72174 53.3276C11.153 53.3435 11.742 55.61 10.1855 57.1127C9.09153 58.1535 1.90447 58.1543 0.568183 58.3554" fill="#550CCC"/>
<path d="M7.95359 61.2289C9.3135 61.0402 10.6597 60.764 11.9839 60.4018C11.8174 59.5549 15.0343 0.904238 14.8131 0.84507C14.2196 0.68725 11.953 0.351467 10.8381 0.109532C10.6108 7.14581 7.98506 47.0086 7.97532 61.2211" fill="#550CCC"/>
<path d="M27.7039 7.20676C27.8196 7.07734 27.9003 6.92071 27.9387 6.75159C27.977 6.58247 27.9716 6.4064 27.9231 6.23992C27.8763 6.1042 27.7931 5.98391 27.6824 5.8922C27.5718 5.8005 27.438 5.7409 27.2957 5.71992L25.9729 5.43517C23.2544 4.86485 18.7052 3.9312 17.7286 3.90951C17.5999 3.9042 17.4715 3.92609 17.3518 3.97375C17.2322 4.02141 17.124 4.09376 17.0343 4.18606C16.9446 4.27836 16.8755 4.38852 16.8314 4.50933C16.7874 4.63014 16.7695 4.75888 16.7788 4.8871C16.7244 6.84937 16.2634 19.31 16.0478 23.3548C15.7503 28.9162 15.4301 34.5717 15.1202 40.0411C14.9453 43.0991 14.7724 46.1526 14.6012 49.2017C14.5739 49.709 14.538 50.2594 14.5045 50.8368C14.3832 52.7416 14.2482 54.8974 14.2674 56.5716C14.2643 56.7293 14.3042 56.8848 14.3827 57.0216C14.4612 57.1585 14.5755 57.2716 14.7133 57.3488C14.863 57.431 15.0308 57.4746 15.2017 57.4757C15.3807 57.4796 15.5573 57.4339 15.7119 57.3437C15.8431 57.2672 15.9507 57.1561 16.0228 57.0226C16.0949 56.8891 16.1288 56.7383 16.1208 56.5869C16.1041 55.1692 16.22 53.2697 16.3199 51.5969C16.3464 51.1598 16.3727 50.7442 16.3931 50.3665C16.5492 47.5351 16.7088 44.7055 16.8721 41.8777L17.1719 36.5891C17.3778 32.8511 17.5828 29.1103 17.7869 25.3668C18.5986 25.3759 19.3859 25.3847 20.1839 25.4098L23.5144 25.4631C23.7605 25.4659 23.9976 25.3709 24.1736 25.1992C24.3496 25.0275 24.45 24.7931 24.4527 24.5475C24.4555 24.3019 24.3603 24.0653 24.1882 23.8897C24.0161 23.7141 23.7812 23.6139 23.535 23.6112C22.4176 23.5987 21.3029 23.5863 20.1856 23.5576L17.8833 23.5184L17.9239 22.7872C18.1561 18.4698 18.6896 8.48588 18.6653 6.05564C19.0083 6.11886 19.8293 6.26302 21.1364 6.4882C23.216 6.8462 25.8034 7.29356 26.8077 7.49646C26.9703 7.53226 27.1396 7.52376 27.2977 7.47185C27.4559 7.41993 27.5972 7.32652 27.7067 7.20139" fill="#550CCC"/>
<path d="M40.406 8.63989C40.3566 8.50078 40.27 8.37779 40.1556 8.2842C40.0413 8.19061 39.9034 8.12998 39.7571 8.10885L38.6258 7.87753C34.9002 7.10698 30.8502 6.3031 29.9464 6.54412C29.2733 6.7256 29.1822 7.61558 29.2056 7.94793C29.277 9.06652 28.4552 23.0594 27.7276 35.4009C27.1732 44.8311 26.6927 52.977 26.7099 53.8574C26.7077 53.9796 26.7312 54.1009 26.7789 54.2135C26.8266 54.3261 26.8974 54.4275 26.9867 54.5111C27.1745 54.6799 27.4184 54.773 27.6711 54.7726L27.7415 54.7734C28.3989 54.7807 35.2258 53.5987 38.1008 52.999C38.2507 52.9752 38.3913 52.911 38.5073 52.8133C38.6233 52.7156 38.7104 52.5882 38.7591 52.4447C38.8097 52.2749 38.8154 52.0949 38.7756 51.9222C38.7358 51.7495 38.6519 51.5901 38.532 51.4594C38.4198 51.3362 38.2766 51.2452 38.1172 51.1959C37.9579 51.1467 37.7882 51.1409 37.6259 51.1793C35.7273 51.5739 29.7219 52.3817 28.6484 52.5506C28.7134 51.096 29.2262 43.2125 29.6857 35.979C29.9715 31.4624 30.241 27.1914 30.3449 25.4024L33.3858 25.4526C34.5222 25.4652 35.6557 25.4941 36.7893 25.5067C36.9482 25.5151 37.1064 25.4801 37.2469 25.4056C37.3874 25.331 37.505 25.2198 37.5869 25.0836C37.6764 24.9303 37.7244 24.7564 37.7264 24.579C37.7284 24.4015 37.6842 24.2266 37.5982 24.0713C37.5189 23.9338 37.4038 23.8202 37.2651 23.7426C37.1264 23.665 36.9692 23.6263 36.8103 23.6305C35.6739 23.6178 34.5402 23.6052 33.4068 23.5763C32.4219 23.5653 31.4345 23.5408 30.4497 23.5271L30.4767 23.0495C30.6741 19.666 31.1869 10.8104 31.1531 8.49886C32.1579 8.66396 37.6649 9.60289 39.2552 9.92033C39.423 9.95652 39.5975 9.94755 39.7607 9.89434C39.9239 9.84112 40.07 9.74558 40.184 9.6175C40.3031 9.48791 40.3866 9.32981 40.4264 9.15854C40.4663 8.98727 40.4611 8.80863 40.4114 8.63995" fill="#550CCC"/>
<path d="M78.2445 43.9184C76.5819 44.267 74.8995 44.4454 73.227 44.6994C73.1239 39.3874 72.9827 34.345 72.8254 29.0351C73.9726 29.0479 75.1169 29.0769 76.2614 29.0923C77.3084 29.104 77.3265 27.4842 76.2794 27.4725C75.1133 27.4595 73.9473 27.433 72.7786 27.4146C72.7085 25.1278 72.6384 22.8393 72.5683 20.5489C72.5282 19.293 72.5044 18.0291 72.44 16.7675C72.902 16.8375 75.8882 17.427 76.9332 17.6276C77.9781 17.8283 78.4068 16.2752 77.3808 16.0694C76.0525 15.8007 72.1299 14.7337 71.5521 14.8568C71.1409 14.8523 70.7347 15.3661 70.7694 15.8957C71.3494 24.5421 71.3117 33.2599 71.5262 41.9184C71.5576 43.2309 71.5971 44.5435 71.6203 45.8533C71.6209 45.9577 71.6422 46.0611 71.6829 46.1573C71.7236 46.2536 71.783 46.3409 71.8576 46.4142C71.9322 46.4876 72.0206 46.5455 72.1177 46.5847C72.2147 46.6238 72.3186 46.6435 72.4233 46.6425C72.5366 46.6735 76.7208 45.8805 78.6601 45.4728C79.6827 45.2574 79.2699 43.6922 78.2474 43.9049" fill="#550CCC"/>
<path d="M51.3078 11.0644C50.3925 15.9735 47.9061 42.1409 47.8204 42.7852C47.7953 42.6121 45.2151 15.0869 44.2994 9.60112C44.2006 9.00332 42.7467 8.8278 42.649 9.34241C41.292 16.4957 40.5944 49.6759 40.6134 51.3636C40.6261 52.4059 42.52 52.4298 42.5074 51.3848C42.4534 46.7645 42.6327 42.0902 42.8492 37.4783C43.098 32.1568 43.3579 26.5653 43.5716 21.2407C44.3029 28.4496 46.6348 46.4548 47.1006 48.6037C47.2524 49.3128 48.481 49.0619 48.5855 48.4286C48.9711 46.1244 51.4391 25.7348 51.8218 21.5082C51.888 22.3648 52.905 47.143 52.8926 48.9815C52.881 50.0236 54.7749 50.0474 54.7865 49.0027C54.8117 45.0448 53.4781 16.6316 52.8152 11.2918C52.7406 10.697 51.3968 10.6064 51.3105 11.0644" fill="#550CCC"/>
<path d="M66.4582 14.2512C65.6678 18.4058 63.521 40.5594 63.4527 41.104C63.4327 40.958 61.195 17.6566 60.3999 13.0119C60.3135 12.5033 59.0542 12.357 58.9709 12.7907C57.7993 18.8472 57.1988 47.2063 57.218 48.6348C57.2298 49.5152 58.8667 49.5361 58.8576 48.6531C58.8093 44.7403 58.9674 40.514 59.1543 36.6119C59.3697 32.1053 59.5902 27.3721 59.7731 22.8652C60.3977 28.9686 62.4304 44.211 62.8322 46.0299C62.9635 46.6281 64.0266 46.4158 64.1165 45.8795C64.4494 43.9312 66.5822 26.6698 66.9116 23.0933C66.9685 23.8175 67.852 44.7953 67.8428 46.3504C67.8329 47.2332 69.478 47.2515 69.4824 46.3687C69.5035 43.0183 68.3431 18.9648 67.7685 14.4441C67.7038 13.9384 66.541 13.8634 66.4664 14.2513" fill="#550CCC"/>
<path d="M87.3236 24.0151C87.4649 21.7784 86.9509 19.097 85.0538 17.6584C83.5486 16.513 81.6051 16.8099 80.4197 18.2817C79.8188 19.0229 79.6076 20.006 79.4323 20.922C79.144 22.5262 78.9632 24.1477 78.8911 25.7759C78.6586 29.5606 78.7838 33.3587 79.2651 37.12C79.5549 39.2832 79.9218 43.0213 82.1302 44.2069C82.5224 44.4265 82.9549 44.565 83.4019 44.6142C83.8489 44.6633 84.3012 44.6222 84.732 44.4932C85.1627 44.3642 85.563 44.15 85.909 43.8634C86.2549 43.5767 86.5395 43.2235 86.7457 42.8248C87.7538 40.9973 87.7693 38.6404 87.7892 36.6103C87.801 35.5493 86.1425 35.5281 86.1334 36.5918C86.1161 38.136 85.994 44.7198 82.818 42.708C81.3751 41.7901 81.139 38.6988 80.92 37.2221C80.5183 34.2682 80.3579 31.2867 80.4404 28.3069C80.4683 25.8043 80.5568 23.2079 81.1335 20.7547C81.3579 19.8014 81.7416 18.6447 82.9439 18.5636C85.3323 18.4094 85.7475 22.4289 85.6488 23.9937C85.5801 25.0568 87.2361 25.0698 87.3047 24.0122" fill="#550CCC"/>
<path d="M89.3703 19.0976C89.1614 19.6353 89.2235 20.3677 89.2118 20.9345C89.1974 22.2223 89.2155 23.5131 89.2444 24.8013C89.3211 27.9557 89.4582 31.1072 89.6558 34.2557C89.7271 35.3797 89.8012 36.5064 89.9266 37.6283C90.0795 38.9665 90.1187 40.5437 90.9641 41.6575C91.8095 42.7712 93.4429 43.3429 94.6004 42.4297C95.8781 41.4207 95.9482 39.2615 96.0782 37.7942C96.3299 34.8783 96.1434 31.9495 96.046 29.0324C95.9487 26.1153 96.0916 23.2469 95.9453 20.359C95.8765 19.0082 94.4678 19.3894 94.4626 20.3424C94.4341 24.5892 94.598 28.8218 94.6968 33.0646C94.748 35.2602 94.7875 37.5476 94.3521 39.7081C94.2061 40.4246 93.9603 41.5937 92.9808 41.3479C91.9661 41.1016 91.7409 39.9435 91.599 39.0753C90.8388 34.4525 90.7814 19.9558 90.8 19.4997C90.8343 18.6037 89.7131 18.2078 89.3731 19.0896" fill="#550CCC"/>
<path d="M101.325 29.2695C103.905 26.6604 102.75 21.0586 98.8051 20.3126C98.6129 20.276 98.4139 20.3153 98.2501 20.4223C98.0864 20.5292 97.9707 20.6955 97.9274 20.886C97.6004 21.3332 98.0016 40.4265 98.6425 40.9493C98.6525 40.9626 98.6632 40.9753 98.6746 40.9875C99.5608 41.8316 100.992 41.34 101.857 40.7152C103.336 39.6517 103.783 37.9098 103.856 36.1772C103.956 33.8078 103.531 30.3984 101.325 29.2695ZM101.256 25.2188C101.279 26.569 100.775 28.3561 99.3967 28.8943C99.2927 26.5765 99.2076 24.259 99.2037 21.9397C100.504 22.4942 101.227 23.6983 101.251 25.2187L101.256 25.2188ZM101.798 38.7246C101.578 39.0759 100.316 40.3659 99.7647 40.0519C99.5743 36.7478 99.438 33.6791 99.4592 30.3286C99.4727 30.3288 102.095 29.8316 102.43 35.4188C102.496 36.5266 102.404 37.754 101.798 38.7219" fill="#550CCC"/>
<path d="M111.917 38.6373C110.743 33.3161 109.835 27.8574 108.063 22.6888C107.841 22.0383 106.771 21.886 106.6 22.6725C106.078 25.0399 106.039 27.5802 105.812 29.9833C105.505 33.2063 105.263 36.4571 104.773 39.6565C104.627 40.608 106.086 41.0211 106.232 40.0751C106.588 37.7544 106.826 35.4135 107.041 33.0642C107.752 33.0775 108.462 33.023 109.162 32.9015C109.594 34.9421 110.004 36.9879 110.447 39.0124C110.658 39.9652 112.126 39.5711 111.915 38.6265L111.917 38.6373ZM107.18 31.5537C107.207 31.2679 107.463 27.7769 107.593 26.3204C108.061 28.005 108.464 29.7105 108.84 31.4211C108.292 31.5153 107.736 31.5597 107.18 31.5537Z" fill="#550CCC"/>
<path d="M116.712 24.3543C114.912 24.0969 113.126 23.7444 111.363 23.2984C110.478 23.0833 110.081 24.4451 110.972 24.6629C111.677 24.8328 112.383 24.9918 113.091 25.1401C113.033 25.7173 113.782 35.9477 113.803 38.2321C113.806 39.1447 115.226 39.1633 115.223 38.248C115.212 36.0474 114.47 25.9655 114.495 25.415C115.224 25.5473 115.959 25.6716 116.696 25.7716C117.599 25.8924 117.606 24.475 116.712 24.3543Z" fill="#550CCC"/>
<path d="M120.127 25.1216C117.354 25.0907 117.289 28.6755 117.308 31.0841C117.324 33.3199 117.656 37.7947 120.124 37.5037C122.213 37.257 122.832 34.4289 122.811 31.4344C122.792 28.3022 121.945 25.1419 120.127 25.1216ZM120.006 35.9202C118.45 35.9946 118.325 26.7674 120.11 26.6523C121.702 26.5486 122.199 35.8177 120.006 35.9202Z" fill="#550CCC"/>
<path d="M129.294 35.3268C129.109 34.4038 128.701 33.5395 128.107 32.808C127.775 32.4467 127.378 32.1502 126.937 31.9337C127.574 31.264 127.918 30.3695 127.893 29.4469C127.912 27.7245 126.864 26.1387 125.092 25.8625C124.982 25.8477 124.869 25.8579 124.763 25.8924C124.657 25.9269 124.561 25.9847 124.48 26.0617C124.4 26.1386 124.338 26.2326 124.299 26.3367C124.26 26.4409 124.245 26.5524 124.255 26.6631C124.247 26.7159 124.247 26.7695 124.253 26.8224C124.33 29.9174 124.441 33.0182 124.42 36.1122C124.411 36.9652 125.744 36.9828 125.749 36.127C125.761 35.0471 125.746 33.9454 125.728 32.8544C126.28 33.0082 126.778 33.3109 127.169 33.7291C127.602 34.295 127.895 34.9551 128.024 35.6556C128.231 36.4841 129.518 36.1474 129.311 35.3162L129.294 35.3268ZM126.572 29.2405C126.614 29.897 126.426 30.9749 125.696 31.1828C125.666 29.9377 125.631 28.6927 125.599 27.4476C125.897 27.6434 126.141 27.9095 126.311 28.2223C126.481 28.535 126.571 28.8848 126.572 29.2405Z" fill="#550CCC"/>
<path d="M129.679 27.3125L129.631 31.5509L130.459 31.5602L130.422 34.9185L132.952 30.5566L131.71 30.5427L132.982 27.8731L129.679 27.3125Z" fill="#550CCC"/>
</svg>
