<svg width="253" height="209" viewBox="0 0 253 209" fill="none" xmlns="http://www.w3.org/2000/svg">
<path fill-rule="evenodd" clip-rule="evenodd" d="M148.559 102.825C148.559 102.825 147.699 107.721 148.101 108.785C148.508 109.844 149.232 110.038 151.379 109.857C153.525 109.677 155.44 109.844 155.294 107.958C155.153 106.072 155.304 107.717 155.304 107.717C155.304 107.717 156.878 106.145 156.335 104.263C155.792 102.381 154.646 102.205 154.078 100.568C153.51 98.9317 148.559 102.825 148.559 102.825Z" fill="#F37151"/>
<path fill-rule="evenodd" clip-rule="evenodd" d="M166.358 129.939H141.215C138.3 129.939 135.938 127.915 135.938 125.417V114.009C135.938 111.511 138.3 109.487 141.215 109.487H166.358C169.273 109.487 171.636 111.511 171.636 114.009V125.417C171.636 127.915 169.273 129.939 166.358 129.939Z" fill="#282B62"/>
<path fill-rule="evenodd" clip-rule="evenodd" d="M158.406 107.157H148.127C147.322 107.157 146.669 106.593 146.669 105.908C146.669 105.219 147.327 104.659 148.127 104.659H158.406C159.21 104.659 159.864 105.224 159.864 105.908C159.869 106.593 159.21 107.157 158.406 107.157Z" fill="#282B62"/>
<path fill-rule="evenodd" clip-rule="evenodd" d="M143.327 113.053C142.889 112.838 142.738 112.355 142.99 111.981L146.87 106.205C147.122 105.831 147.685 105.702 148.122 105.917C148.559 106.132 148.71 106.615 148.459 106.989L144.578 112.764C144.327 113.139 143.764 113.268 143.327 113.053Z" fill="#282B62"/>
<path fill-rule="evenodd" clip-rule="evenodd" d="M154.942 56.6932C154.942 56.6932 145.653 56.6932 146.02 74.8452C146.267 87.1232 148.011 102.325 148.011 102.325H152.736L155.691 71.7273L154.942 56.6932Z" fill="#FBAE30"/>
<path fill-rule="evenodd" clip-rule="evenodd" d="M197.417 162.638L191.687 164.624L194.853 171.329L200.583 169.344L197.417 162.638Z" fill="#F37151"/>
<path fill-rule="evenodd" clip-rule="evenodd" d="M153.194 163.861L159.366 164.15L158.909 171.372L152.741 171.083L153.194 163.861Z" fill="#F37151"/>
<path fill-rule="evenodd" clip-rule="evenodd" d="M144.025 174.981C143.994 175.205 144.08 175.416 144.251 175.571C144.422 175.726 146.493 176.032 146.759 176.027C149.328 175.993 154.259 175.674 157.661 175.627C158.189 175.618 158.717 175.433 159.114 175.114C159.516 174.796 159.753 174.369 159.778 173.934C159.873 172.302 159.355 169.977 159.355 169.977L152.73 169.757C152.73 169.757 148.136 172.199 145.422 173.189C144.291 173.611 144.155 173.995 144.025 174.981Z" fill="#282B62"/>
<path fill-rule="evenodd" clip-rule="evenodd" d="M199.301 163.202C198.814 159.727 196.718 142.445 190.264 129.543L181.658 95.5295L181.502 95.564C181.482 95.4219 181.452 95.2798 181.432 95.1377C181.06 92.6011 179.934 84.9915 179.934 84.9915C173.219 88.0405 161.356 88.4324 150.609 85.1982C149.679 98.2125 150.454 116.477 152.027 137.204L152.163 166.583C152.208 167.173 152.776 167.63 153.464 167.625L160.114 167.599C160.698 167.595 161.185 167.208 161.225 166.708C162.99 155.154 165.483 142.772 163.673 135.287L165.81 107.863L166.9 107.851C169.414 114.315 173.083 123.737 176.782 133.156C182.754 148.354 188.796 163.538 190.163 166.256C190.54 167.009 191.565 167.35 192.44 167.009L198.552 164.654C199.191 164.408 199.382 163.805 199.301 163.202Z" fill="#E8DDEE"/>
<path fill-rule="evenodd" clip-rule="evenodd" d="M164.287 106.873L160.241 136.558C159.366 144.353 162.664 152.148 160.608 156.135C158.864 160.412 157.401 164.568 158.457 167.608L160.105 167.604C160.688 167.599 161.176 167.212 161.216 166.712C162.98 155.158 165.474 142.777 163.664 135.292L165.886 106.787L164.287 106.873Z" fill="#CDCFE8"/>
<path fill-rule="evenodd" clip-rule="evenodd" d="M194.652 170.933C194.652 170.933 196.291 175.265 197.281 177.879C197.452 178.327 197.859 178.672 198.382 178.814C198.905 178.956 199.473 178.87 199.91 178.585C200.85 177.978 201.921 177.285 202.584 176.854C202.996 176.587 203.298 176.208 203.434 175.782C203.519 175.523 203.62 175.213 203.725 174.89C204.208 173.405 203.881 171.807 202.83 170.554C201.745 169.257 200.528 167.802 200.528 167.802C197.472 167.358 195.633 168.56 194.652 170.933Z" fill="#282B62"/>
<path fill-rule="evenodd" clip-rule="evenodd" d="M150.017 171.148C150.017 171.148 151.811 168.004 153.525 168.151C155.244 168.297 152.907 172.186 152.907 172.186L150.017 171.148Z" fill="#282B62"/>
<path d="M115.77 80.3878L118.837 80.2715L121.938 80.2413L126.919 79.9011L127.02 79.1604L124.32 80.7538L126.894 83.1655L128.94 82.5841C128.94 82.5841 131.212 84.1689 130.981 84.1345C130.749 84.0957 122.652 86.9897 122.652 86.9897C122.652 86.9897 116.831 85.4049 116.595 85.3704C116.363 85.3317 114.308 84.6039 114.308 84.6039L115.77 80.3878Z" fill="#ED5731"/>
<path d="M132.684 78.325L126.457 78.7685C126.321 78.7298 126.175 78.7168 126.034 78.7341L122.883 79.0915C122.234 79.1647 121.802 79.6944 121.938 80.2414L124.868 81.2146L123.034 83.2516L120.571 85.3791C120.571 85.3791 119.364 86.025 120.998 86.7614C121.199 86.8519 125.537 87.5065 125.537 87.5065C125.537 87.5065 132.946 83.7383 133.152 83.6607C133.363 83.5832 135.58 82.4032 135.58 82.4032C135.58 82.4032 141.782 79.4102 132.684 78.325Z" fill="#F37151"/>
<path d="M130.352 85.8226L126.889 87.7649C126.321 88.0836 125.557 87.9457 125.185 87.4591L124.728 86.8562C124.356 86.3696 124.517 85.715 125.085 85.3963L128.548 83.454C129.116 83.1353 129.88 83.2732 130.252 83.7598L130.709 84.3627C131.081 84.8493 130.92 85.5039 130.352 85.8226Z" fill="#ED5731"/>
<path d="M121.938 80.2414L127.07 79.3025C127.502 79.225 127.929 79.4576 128.03 79.8279C128.125 80.1768 127.894 80.5342 127.497 80.6462L121.621 82.343L121.938 80.2414Z" fill="#ED5731"/>
<path d="M131.373 85.2154C130.911 85.2498 130.498 84.957 130.458 84.5608L130.292 82.9544C130.252 82.5582 130.594 82.2051 131.056 82.1707C131.519 82.1362 131.931 82.429 131.971 82.8253L132.137 84.4316C132.177 84.8278 131.83 85.1809 131.373 85.2154Z" fill="#ED5731"/>
<path fill-rule="evenodd" clip-rule="evenodd" d="M70.3968 53.459C74.413 52.9594 76.68 52.6666 80.3996 53.248C82.4957 54.2988 84.838 57.1325 85.6674 59.6259L79.3189 63.097L64.8174 56.5726L70.3968 53.459Z" fill="#634EA0"/>
<path fill-rule="evenodd" clip-rule="evenodd" d="M59.1316 165.084L64.8619 165.274L64.6306 172.5L58.9004 172.311L59.1316 165.084Z" fill="#F37151"/>
<path fill-rule="evenodd" clip-rule="evenodd" d="M88.1149 163.866L81.9424 164.15L82.3998 171.372L88.5673 171.083L88.1149 163.866Z" fill="#F37151"/>
<path fill-rule="evenodd" clip-rule="evenodd" d="M97.2834 174.981C97.3136 175.205 97.2281 175.416 97.0572 175.571C96.8863 175.726 94.8154 176.032 94.549 176.027C91.9805 175.993 87.0494 175.674 83.6465 175.627C83.1187 175.618 82.5909 175.433 82.1938 175.114C81.7917 174.796 81.5554 174.369 81.5303 173.934C81.4348 172.302 81.9525 170.024 81.9525 170.024L88.5775 169.757C88.5775 169.757 93.1717 172.199 95.8861 173.189C97.017 173.611 97.1578 173.995 97.2834 174.981Z" fill="#282B62"/>
<path fill-rule="evenodd" clip-rule="evenodd" d="M82.0177 36.4438C82.0177 36.4438 88.6225 38.5239 84.0484 43.9415C79.4692 49.3548 82.0177 36.4438 82.0177 36.4438Z" fill="#282B62"/>
<path fill-rule="evenodd" clip-rule="evenodd" d="M83.9935 40.7375C83.7523 38.9158 82.6464 37.2578 80.9324 36.1553C79.2183 35.0528 77.0519 34.6093 74.9408 34.9193C70.8592 35.5223 68.0293 38.7522 68.4967 42.2792C68.7682 44.3076 69.3714 45.0526 69.5925 46.9819C70.1052 51.4607 78.6654 52.1842 80.0376 51.9818C83.0385 51.5383 85.1094 49.1697 84.7676 46.5771C84.5314 44.7899 84.2549 42.7056 83.9935 40.7375Z" fill="#F37151"/>
<path fill-rule="evenodd" clip-rule="evenodd" d="M88.3961 57.0765C84.2241 56.9042 81.7208 55.0524 76.1766 54.8198C71.13 54.6088 66.3849 56.4735 62.5145 56.3142C60.6999 56.241 58.6742 62.0634 58.9105 63.5966C60.4235 73.5145 60.6446 90.6158 60.6446 90.6158C68.3754 99.5518 75.7795 102.084 82.8971 98.7594C85.8476 97.3813 88.7429 94.9955 91.5929 91.645C91.5929 91.645 90.08 57.1454 88.3961 57.0765Z" fill="#F37151"/>
<path fill-rule="evenodd" clip-rule="evenodd" d="M87.1847 56.8224C83.0127 56.6501 81.7208 55.0524 76.1766 54.8198C71.13 54.6088 66.3849 56.4735 62.5145 56.3142C60.6999 56.241 58.6742 62.0634 58.9105 63.5966C60.4235 73.5145 60.6446 90.6158 60.6446 90.6158C68.3754 99.5518 75.7795 102.084 82.8971 98.7594C85.8476 97.3813 88.7429 94.9955 91.5929 91.645C91.5929 91.645 88.8686 56.8913 87.1847 56.8224Z" fill="#E8DDEE"/>
<path fill-rule="evenodd" clip-rule="evenodd" d="M70.9189 56.564L72.3765 47.6581L79.7555 48.8811L80.037 57.1238C79.6097 62.2745 70.4916 61.7146 70.9189 56.564Z" fill="#F37151"/>
<path fill-rule="evenodd" clip-rule="evenodd" d="M72.8597 40.6384C72.8597 40.6384 74.3677 46.6546 68.8134 47.137C68.8134 47.137 64.8123 43.4161 66.3152 39.7168C67.4009 37.0425 76.0365 32.0555 81.1686 33.9719C86.3057 35.8926 83.6115 40.0958 72.8597 40.6384Z" fill="#282B62"/>
<path fill-rule="evenodd" clip-rule="evenodd" d="M69.7275 44.7124C70.7579 44.5746 71.7682 45.3756 71.9743 46.504C72.1804 47.6323 71.5119 48.6658 70.4814 48.8037C69.451 48.9415 68.4407 48.1404 68.2346 47.0121C68.0285 45.8838 68.697 44.8503 69.7275 44.7124Z" fill="#F37151"/>
<path fill-rule="evenodd" clip-rule="evenodd" d="M91.4527 107.683H91.4175L91.689 89.7803C73.8951 95.8784 59.8912 90.0086 59.8912 90.0086C58.6496 94.1945 58.0716 98.5054 58.1822 102.825L58.9009 131.145C56.2369 137.424 58.157 164.184 57.8806 166.691L66.3 166.984C67.3254 162.479 72.8847 126.196 75.212 107.868L75.5789 107.872L80.0174 133.935C77.6448 139.551 80.0928 154.943 80.9121 167.621L89.0701 167.38L92.4379 136.054L91.4527 107.683Z" fill="url(#paint0_linearI)"/>
<path fill-rule="evenodd" clip-rule="evenodd" d="M90.583 58.011L105.703 80.2413C105.703 80.2413 101.677 88.6606 99.862 87.3816C96.4138 84.9484 85.6973 70.4181 85.6973 70.4181L90.583 58.011Z" fill="#8B76B5"/>
<path fill-rule="evenodd" clip-rule="evenodd" d="M154.203 35.238C154.203 35.238 147.925 37.9641 153.213 42.8864C158.496 47.8088 154.203 35.238 154.203 35.238Z" fill="#282B62"/>
<path fill-rule="evenodd" clip-rule="evenodd" d="M153.425 37.977C153.711 36.1338 154.872 34.4715 156.637 33.3862C158.401 32.301 160.608 31.8832 162.739 32.2364C166.866 32.9168 169.65 36.2371 169.092 39.8073C168.771 41.8615 168.318 42.6453 168.012 44.5918C167.806 45.9096 165.066 48.1017 163.81 48.8768C162.553 49.652 162.99 50.4013 161.467 50.1516C160.055 49.919 158.557 49.6692 157.17 49.441C154.139 48.9414 152.093 46.5039 152.505 43.8813C152.786 42.0725 153.113 39.9623 153.425 37.977Z" fill="#F37151"/>
<path fill-rule="evenodd" clip-rule="evenodd" d="M152.138 58.9067C154.314 55.8534 159.25 55.2806 164.79 54.9663C169.831 54.6777 178.341 55.4357 179.135 61.9902C180.342 71.9383 181.066 90.521 181.066 90.521C176.733 96.5502 165.513 98.458 158.094 96.0765C154.948 95.0644 153.063 95.3271 150.142 92.0197C150.147 92.0197 149.057 63.2348 152.138 58.9067Z" fill="url(#paint1_linearI)"/>
<path fill-rule="evenodd" clip-rule="evenodd" d="M166.675 44.9493L157.672 46.8011V55.4099C157.436 59.9576 169.756 59.5743 168.55 54.751L166.675 44.9493Z" fill="#F37151"/>
<path fill-rule="evenodd" clip-rule="evenodd" d="M164.684 40.8753C163.674 40.647 162.578 41.3619 162.241 42.4687C161.905 43.5755 162.447 44.6564 163.463 44.8847C164.473 45.1129 165.569 44.398 165.906 43.2912C166.242 42.1845 165.7 41.1035 164.684 40.8753Z" fill="#F37151"/>
<path fill-rule="evenodd" clip-rule="evenodd" d="M58.8854 169.163L57.0457 174.24C56.7491 175.054 57.4578 175.877 58.4531 175.877H64.5452C65.5154 175.877 66.2995 175.205 66.2995 174.374L64.9222 169.163H58.8854Z" fill="#282B62"/>
<path fill-rule="evenodd" clip-rule="evenodd" d="M92.3674 101.154C92.3674 101.154 92.4579 104.009 86.0692 104.009L83.375 72.3216L84.1943 58.588L86.6071 55.3452L88.2306 55.5864C91.905 56.4649 91.0957 63.3382 91.2365 66.1288L92.3674 101.154Z" fill="#8B76B5"/>
<path fill-rule="evenodd" clip-rule="evenodd" d="M58.1517 100.654C60.3483 101.606 65.7417 103.656 72.2511 104.056L73.2664 75.4955L68.0238 55.5347L64.2388 55.3883L61.4893 56.4046C58.408 57.5889 56.9604 59.3245 57.1011 62.141L59.3932 81.0294L57.2117 99.1642C57.1363 99.7844 57.5083 100.374 58.1517 100.654Z" fill="#8B76B5"/>
<path fill-rule="evenodd" clip-rule="evenodd" d="M70.3966 53.459C70.3966 53.459 67.4108 55.9912 70.9093 62.1237C72.2514 64.4751 74.0408 71.077 73.2717 75.853L65.4706 65.9652L68.1045 63.4157L63.46 61.1461L64.1737 55.2893C66.3904 54.6131 66.4608 54.4926 70.3966 53.459Z" fill="#BBA8D1"/>
<path fill-rule="evenodd" clip-rule="evenodd" d="M82.4 57.055C82.9479 58.3555 83.0936 60.203 83.0685 62.6492C82.978 70.5517 83.6566 75.586 83.6566 75.586L88.7736 66.2193L85.2752 63.7559L89.0953 61.2538L87.2606 54.9318C87.2606 54.9318 85.245 53.937 80.3994 53.248C80.3944 53.248 81.4299 54.7596 82.4 57.055Z" fill="#BBA8D1"/>
<path fill-rule="evenodd" clip-rule="evenodd" d="M67.4111 107.131H43.1129C42.2383 107.131 41.5195 106.516 41.5195 105.766V91.1412C41.5195 90.3918 42.2383 89.776 43.1129 89.776H67.4111C68.2858 89.776 69.0046 90.3918 69.0046 91.1412V105.766C69.0046 106.52 68.2858 107.131 67.4111 107.131Z" fill="#E8DDEE"/>
<path fill-rule="evenodd" clip-rule="evenodd" d="M66.3047 107.131H42.0065C41.1319 107.131 40.4131 106.516 40.4131 105.766V91.1412C40.4131 90.3918 41.1319 89.776 42.0065 89.776H66.3047C67.1793 89.776 67.8981 90.3918 67.8981 91.1412V105.766C67.8981 106.52 67.1844 107.131 66.3047 107.131Z" fill="#282B62"/>
<path d="M118.233 80.1165H115.911V86.025H118.233V80.1165Z" fill="#E8DDEE"/>
<path fill-rule="evenodd" clip-rule="evenodd" d="M101.466 79.9657H116.535L116.384 87.5108C116.384 87.5108 101.752 88.7252 99.8673 87.3859C98.1231 86.1456 93.4585 81.7271 101.466 79.9657Z" fill="#8B76B5"/>
<path fill-rule="evenodd" clip-rule="evenodd" d="M47.7322 101.107C47.7322 101.107 46.561 105.956 46.8978 107.032C47.2345 108.113 47.9483 108.337 50.0996 108.255C52.256 108.178 54.1561 108.432 54.1359 106.541C54.1158 104.651 54.1611 106.3 54.1611 106.3C54.1611 106.3 55.8299 104.802 55.4127 102.902C54.9955 101.003 53.8545 100.771 53.397 99.1083C52.9346 97.4503 47.7322 101.107 47.7322 101.107Z" fill="#F37151"/>
<path d="M54.5977 101.424V99.4344H47.7013V101.424H54.5977Z" fill="#E8DDEE"/>
<path fill-rule="evenodd" clip-rule="evenodd" d="M57.745 59.1005C57.745 59.1005 47.7071 74.3973 46.747 81.5806C45.7869 88.7682 46.747 99.6078 46.747 99.6078H55.5485C55.5485 99.6078 54.3119 87.3471 55.6842 83.1095C57.0614 78.8718 64.2092 69.9616 64.2092 69.9616L57.745 59.1005Z" fill="#8B76B5"/>
<path fill-rule="evenodd" clip-rule="evenodd" d="M169.233 58.6312L157.953 82.0803C157.953 82.0803 166.709 87.4376 167.941 85.7236C169.027 84.212 174.732 75.0262 178.371 69.1434C180.07 66.3959 178.843 62.9894 175.636 61.5338L169.233 58.6312Z" fill="#FDBB4F"/>
<path fill-rule="evenodd" clip-rule="evenodd" d="M161.819 88.54L134.751 85.8097L135.721 77.5799L167.222 80.8098L167.896 83.2128C168.781 86.3652 165.518 89.2291 161.819 88.54Z" fill="#FDBB4F"/>
<path fill-rule="evenodd" clip-rule="evenodd" d="M79.8618 51.999C79.8618 51.999 76.122 52.3436 72.6387 50.2463C72.6387 50.2463 76.4337 54.316 79.907 53.769L79.8618 51.999Z" fill="#C54727"/>
<path fill-rule="evenodd" clip-rule="evenodd" d="M157.712 50.2247C157.712 50.2247 161.452 50.5693 164.935 48.472C164.935 48.472 161.14 52.5417 157.667 51.9947L157.712 50.2247Z" fill="#C54727"/>
<path fill-rule="evenodd" clip-rule="evenodd" d="M150.197 78.9924L158.034 78.3464L167.478 65.3795L161.175 80.1164L150.197 78.9924Z" fill="#FBAE30"/>
<path opacity="0.34" fill-rule="evenodd" clip-rule="evenodd" d="M75.5791 107.868L80.0175 133.931C80.0175 133.931 78.409 137.187 79.1781 146.691C79.9472 156.2 80.9122 167.617 80.9122 167.617L83.8628 167.608C83.8628 167.608 84.2197 163.87 82.8877 160.145C81.5556 156.42 81.2038 149.353 82.4453 147.148C83.6869 144.943 83.1541 139.547 82.7117 138.255C82.2694 136.963 83.4205 132.94 82.7117 129.934C82.1538 127.57 79.7813 116.007 78.7961 111.188C78.5246 109.853 77.5344 108.712 76.122 108.1L75.5791 107.868Z" fill="#282B62"/>
<path d="M85.1144 45.268L83.2747 45.5393C82.4352 45.6642 81.6059 45.1861 81.4299 44.4799L81.3847 44.3076C81.2088 43.6013 81.7516 42.9209 82.586 42.8003L84.4257 42.529C85.2652 42.4041 86.0945 42.8821 86.2705 43.5884L86.3157 43.7607C86.4967 44.4669 85.9538 45.1474 85.1144 45.268Z" stroke="#2A347E" stroke-width="0.6518" stroke-miterlimit="10" stroke-linecap="round" stroke-linejoin="round"/>
<path d="M78.9513 46.0173L77.1116 46.2886C76.2721 46.4135 75.4428 45.9355 75.2668 45.2292L75.2216 45.0569C75.0457 44.3507 75.5885 43.6702 76.4229 43.5496L78.2626 43.2783C79.1021 43.1534 79.9315 43.6315 80.1074 44.3377L80.1526 44.51C80.3336 45.2163 79.7907 45.8924 78.9513 46.0173Z" stroke="#2A347E" stroke-width="0.6518" stroke-miterlimit="10" stroke-linecap="round" stroke-linejoin="round"/>
<path d="M68.4463 44.8029L74.2971 45.7288" stroke="#2A347E" stroke-width="0.6518" stroke-miterlimit="10" stroke-linecap="round" stroke-linejoin="round"/>
<path fill-rule="evenodd" clip-rule="evenodd" d="M158.496 28.0465C158.496 28.0465 150.997 27.8268 150.157 34.5623C149.313 41.2977 153.339 37.9989 153.339 37.9989C153.339 37.9989 160.21 31.6467 158.496 28.0465Z" fill="#282B62"/>
<path fill-rule="evenodd" clip-rule="evenodd" d="M165.811 40.0355C165.811 40.0355 167.64 35.3672 166.625 33.3044C165.162 30.3243 163.212 27.5896 158.029 28.0763C158.029 28.0763 153.088 33.4853 163.463 39.1957L165.811 40.0355Z" fill="#282B62"/>
<path fill-rule="evenodd" clip-rule="evenodd" d="M173.978 38.8426C174.074 38.9115 170.636 47.6581 164.845 46.0302C159.054 44.4023 164.744 34.2303 164.744 34.2303L173.978 38.8426Z" fill="#282B62"/>
<path fill-rule="evenodd" clip-rule="evenodd" d="M175.22 34.3982C175.22 34.3982 166.961 23.6577 157.099 30.4018C157.099 30.4018 155.958 40.6427 173.581 40.281C178.522 40.1819 175.22 34.3982 175.22 34.3982Z" fill="#282B62"/>
<path fill-rule="evenodd" clip-rule="evenodd" d="M171.062 38.8211C168.303 36.7281 169.675 32.7747 173.339 32.4215C175.546 32.2062 177.979 32.6455 179.788 34.7945C184.096 39.9106 192.933 36.5085 194.22 44.5445C195.3 51.2799 206.429 46.2886 204.051 57.8517C201.875 68.4285 187.203 64.178 186.559 59.3848C185.916 54.5873 186.313 51.1981 181.744 50.4057C174.757 49.1955 174.284 46.2326 174.35 42.7357C174.375 41.0949 172.741 40.0915 171.062 38.8211Z" fill="#282B62"/>
<path fill-rule="evenodd" clip-rule="evenodd" d="M166.971 46.2886C166.971 46.2886 159.703 45.8967 161.95 36.2501C164.196 26.6034 169.756 40.1819 169.756 40.1819L166.971 46.2886Z" fill="#282B62"/>
<path fill-rule="evenodd" clip-rule="evenodd" d="M166.674 44.9493C166.674 46.2972 165.398 47.3868 163.829 47.3868C162.256 47.3868 160.984 46.2929 160.984 44.9493C160.984 43.6056 162.261 42.5118 163.829 42.5118C165.398 42.5118 166.674 43.6013 166.674 44.9493Z" fill="#F37151"/>
<defs>
<linearGradient id="paint0_linearI" x1="74.8855" y1="129.111" x2="76.1966" y2="84.0428" gradientUnits="userSpaceOnUse">
<stop stop-color="#6954A3"/>
<stop offset="0.5646" stop-color="#534EA1"/>
<stop offset="0.8575" stop-color="#444B9F"/>
</linearGradient>
<linearGradient id="paint1_linearI" x1="185.247" y1="92.1222" x2="165.598" y2="71.0507" gradientUnits="userSpaceOnUse">
<stop stop-color="#F58220"/>
<stop offset="0.1332" stop-color="#F78D26"/>
<stop offset="0.4701" stop-color="#FAA53B"/>
<stop offset="0.7478" stop-color="#FCB54A"/>
<stop offset="0.9302" stop-color="#FDBB4F"/>
</linearGradient>
</defs>
</svg>
