<svg height="200px" viewBox="0 0 313 283" fill="none" xmlns="http://www.w3.org/2000/svg">
<path fill-rule="evenodd" clip-rule="evenodd" d="M178.559 156.996C178.559 156.996 177.699 161.893 178.102 162.956C178.509 164.016 179.233 164.21 181.379 164.029C183.525 163.848 185.44 164.016 185.295 162.13C185.154 160.243 185.305 161.888 185.305 161.888C185.305 161.888 186.878 160.316 186.335 158.435C185.792 156.553 184.646 156.376 184.078 154.74C183.51 153.103 178.559 156.996 178.559 156.996Z" fill="#F37151"/>
<path fill-rule="evenodd" clip-rule="evenodd" d="M196.358 184.11H171.215C168.3 184.11 165.937 182.086 165.937 179.588V168.18C165.937 165.682 168.3 163.658 171.215 163.658H196.358C199.273 163.658 201.636 165.682 201.636 168.18V179.588C201.636 182.086 199.273 184.11 196.358 184.11Z" fill="#282B62"/>
<path fill-rule="evenodd" clip-rule="evenodd" d="M188.406 161.329H178.127C177.322 161.329 176.669 160.765 176.669 160.08C176.669 159.391 177.327 158.831 178.127 158.831H188.406C189.21 158.831 189.864 159.395 189.864 160.08C189.869 160.765 189.21 161.329 188.406 161.329Z" fill="#282B62"/>
<path fill-rule="evenodd" clip-rule="evenodd" d="M173.326 167.224C172.889 167.009 172.738 166.527 172.99 166.152L176.87 160.377C177.121 160.002 177.684 159.873 178.122 160.089C178.559 160.304 178.71 160.786 178.458 161.161L174.578 166.936C174.327 167.311 173.764 167.44 173.326 167.224Z" fill="#282B62"/>
<path fill-rule="evenodd" clip-rule="evenodd" d="M184.943 110.864C184.943 110.864 175.654 110.864 176.02 129.016C176.267 141.294 178.011 156.496 178.011 156.496H182.736L185.691 125.898L184.943 110.864Z" fill="#FBAE30"/>
<path fill-rule="evenodd" clip-rule="evenodd" d="M227.417 216.81L221.686 218.795L224.853 225.5L230.583 223.515L227.417 216.81Z" fill="#F37151"/>
<path fill-rule="evenodd" clip-rule="evenodd" d="M183.193 218.032L189.366 218.321L188.908 225.543L182.741 225.254L183.193 218.032Z" fill="#F37151"/>
<path fill-rule="evenodd" clip-rule="evenodd" d="M174.025 229.152C173.995 229.376 174.08 229.587 174.251 229.742C174.422 229.897 176.493 230.202 176.759 230.198C179.328 230.164 184.259 229.845 187.662 229.798C188.19 229.789 188.718 229.604 189.115 229.285C189.517 228.966 189.753 228.54 189.778 228.105C189.874 226.473 189.356 224.147 189.356 224.147L182.731 223.928C182.731 223.928 178.137 226.37 175.422 227.36C174.291 227.782 174.156 228.165 174.025 229.152Z" fill="#282B62"/>
<path fill-rule="evenodd" clip-rule="evenodd" d="M229.302 217.374C228.814 213.899 226.718 196.617 220.264 183.714L211.659 149.701L211.503 149.736C211.483 149.594 211.452 149.451 211.432 149.309C211.06 146.773 209.934 139.163 209.934 139.163C203.219 142.212 191.356 142.604 180.61 139.37C179.68 152.384 180.454 170.648 182.027 191.376L182.163 220.755C182.208 221.345 182.776 221.801 183.465 221.797L190.115 221.771C190.698 221.767 191.186 221.379 191.226 220.88C192.99 209.325 195.483 196.944 193.674 189.459L195.81 162.035L196.901 162.022C199.414 168.486 203.083 177.909 206.783 187.327C212.754 202.525 218.796 217.71 220.163 220.427C220.54 221.181 221.566 221.521 222.44 221.181L228.553 218.825C229.191 218.58 229.382 217.977 229.302 217.374Z" fill="#E8DDEE"/>
<path fill-rule="evenodd" clip-rule="evenodd" d="M194.287 161.044L190.241 190.729C189.366 198.524 192.663 206.319 190.608 210.307C188.863 214.583 187.401 218.739 188.456 221.779L190.105 221.775C190.688 221.771 191.176 221.383 191.216 220.883C192.98 209.329 195.473 196.948 193.664 189.463L195.885 160.958L194.287 161.044Z" fill="#CDCFE8"/>
<path fill-rule="evenodd" clip-rule="evenodd" d="M224.652 225.104C224.652 225.104 226.291 229.436 227.281 232.05C227.452 232.498 227.859 232.842 228.382 232.985C228.905 233.127 229.473 233.041 229.91 232.756C230.85 232.149 231.92 231.456 232.584 231.025C232.996 230.758 233.298 230.379 233.433 229.953C233.519 229.694 233.619 229.384 233.725 229.061C234.208 227.576 233.881 225.978 232.83 224.725C231.745 223.428 230.528 221.973 230.528 221.973C227.472 221.529 225.632 222.731 224.652 225.104Z" fill="#282B62"/>
<path fill-rule="evenodd" clip-rule="evenodd" d="M180.017 225.32C180.017 225.32 181.811 222.176 183.525 222.322C185.244 222.469 182.907 226.358 182.907 226.358L180.017 225.32Z" fill="#282B62"/>
<path d="M145.771 134.559L148.837 134.443L151.938 134.413L156.92 134.073L157.02 133.332L154.321 134.925L156.895 137.337L158.94 136.756C158.94 136.756 161.212 138.341 160.981 138.306C160.75 138.267 152.652 141.161 152.652 141.161C152.652 141.161 146.831 139.577 146.595 139.542C146.364 139.503 144.308 138.776 144.308 138.776L145.771 134.559Z" fill="#ED5731"/>
<path d="M162.685 132.496L156.457 132.94C156.322 132.901 156.176 132.888 156.035 132.905L152.883 133.263C152.235 133.336 151.803 133.866 151.938 134.413L154.869 135.386L153.034 137.423L150.571 139.55C150.571 139.55 149.365 140.196 150.999 140.933C151.2 141.023 155.537 141.678 155.537 141.678C155.537 141.678 162.947 137.909 163.153 137.832C163.364 137.754 165.58 136.574 165.58 136.574C165.58 136.574 171.783 133.581 162.685 132.496Z" fill="#F37151"/>
<path d="M160.353 139.993L156.89 141.936C156.322 142.254 155.558 142.117 155.186 141.63L154.728 141.027C154.356 140.54 154.517 139.886 155.085 139.567L158.548 137.625C159.116 137.306 159.88 137.444 160.252 137.931L160.71 138.534C161.082 139.02 160.921 139.675 160.353 139.993Z" fill="#ED5731"/>
<path d="M151.938 134.413L157.071 133.474C157.503 133.396 157.93 133.629 158.031 133.999C158.126 134.348 157.895 134.706 157.498 134.818L151.622 136.514L151.938 134.413Z" fill="#ED5731"/>
<path d="M161.373 139.386C160.911 139.421 160.499 139.128 160.458 138.732L160.293 137.125C160.252 136.729 160.594 136.376 161.057 136.342C161.519 136.307 161.931 136.6 161.971 136.996L162.137 138.603C162.177 138.999 161.831 139.352 161.373 139.386Z" fill="#ED5731"/>
<path fill-rule="evenodd" clip-rule="evenodd" d="M100.396 107.631C104.413 107.131 106.68 106.838 110.399 107.42C112.495 108.47 114.838 111.304 115.667 113.798L109.318 117.269L94.817 110.744L100.396 107.631Z" fill="#634EA0"/>
<path fill-rule="evenodd" clip-rule="evenodd" d="M89.1319 219.256L94.8622 219.445L94.6309 226.672L88.9007 226.482L89.1319 219.256Z" fill="#F37151"/>
<path fill-rule="evenodd" clip-rule="evenodd" d="M118.115 218.037L111.942 218.321L112.4 225.543L118.567 225.255L118.115 218.037Z" fill="#F37151"/>
<path fill-rule="evenodd" clip-rule="evenodd" d="M127.283 229.152C127.313 229.376 127.228 229.587 127.057 229.742C126.886 229.897 124.815 230.202 124.549 230.198C121.98 230.164 117.049 229.845 113.646 229.798C113.119 229.789 112.591 229.604 112.194 229.285C111.792 228.966 111.555 228.54 111.53 228.105C111.435 226.473 111.952 224.195 111.952 224.195L118.577 223.928C118.577 223.928 123.172 226.37 125.886 227.36C127.017 227.782 127.158 228.165 127.283 229.152Z" fill="#282B62"/>
<path fill-rule="evenodd" clip-rule="evenodd" d="M112.018 90.6152C112.018 90.6152 118.623 92.6953 114.048 98.1129C109.469 103.526 112.018 90.6152 112.018 90.6152Z" fill="#282B62"/>
<path fill-rule="evenodd" clip-rule="evenodd" d="M113.993 94.9088C113.752 93.0871 112.646 91.4291 110.932 90.3266C109.218 89.2242 107.052 88.7806 104.941 89.0907C100.859 89.6936 98.029 92.9235 98.4965 96.4505C98.7679 98.4789 99.3711 99.2239 99.5923 101.153C100.105 105.632 108.665 106.356 110.037 106.153C113.038 105.71 115.109 103.341 114.767 100.748C114.531 98.9612 114.255 96.8769 113.993 94.9088Z" fill="#F37151"/>
<path fill-rule="evenodd" clip-rule="evenodd" d="M118.396 111.248C114.224 111.076 111.721 109.224 106.177 108.991C101.13 108.78 96.3852 110.645 92.5148 110.486C90.7002 110.412 88.6745 116.235 88.9108 117.768C90.4238 127.686 90.6449 144.787 90.6449 144.787C98.3757 153.723 105.78 156.256 112.897 152.931C115.848 151.553 118.743 149.167 121.593 145.816C121.593 145.816 120.08 111.317 118.396 111.248Z" fill="#F37151"/>
<path fill-rule="evenodd" clip-rule="evenodd" d="M117.185 110.994C113.013 110.822 111.721 109.224 106.177 108.991C101.13 108.78 96.3852 110.645 92.5148 110.486C90.7002 110.412 88.6745 116.235 88.9108 117.768C90.4238 127.686 90.6449 144.787 90.6449 144.787C98.3757 153.723 105.78 156.256 112.897 152.931C115.848 151.553 118.743 149.167 121.593 145.816C121.593 145.816 118.869 111.063 117.185 110.994Z" fill="#E8DDEE"/>
<path fill-rule="evenodd" clip-rule="evenodd" d="M100.919 110.735L102.377 101.829L109.756 103.052L110.037 111.295C109.61 116.445 100.492 115.886 100.919 110.735Z" fill="#F37151"/>
<path fill-rule="evenodd" clip-rule="evenodd" d="M102.859 94.8093C102.859 94.8093 104.367 100.825 98.8131 101.308C98.8131 101.308 94.812 97.587 96.3149 93.8877C97.4006 91.2133 106.036 86.2263 111.168 88.1427C116.305 90.0634 113.611 94.2666 102.859 94.8093Z" fill="#282B62"/>
<path fill-rule="evenodd" clip-rule="evenodd" d="M99.7279 98.8836C100.758 98.7458 101.769 99.5468 101.975 100.675C102.181 101.803 101.512 102.837 100.482 102.975C99.4515 103.113 98.4411 102.312 98.2351 101.183C98.029 100.055 98.6975 99.0214 99.7279 98.8836Z" fill="#F37151"/>
<path fill-rule="evenodd" clip-rule="evenodd" d="M121.453 161.853H121.417L121.689 143.951C103.895 150.049 89.8911 144.179 89.8911 144.179C88.6496 148.365 88.0715 152.676 88.1821 156.996L88.9009 185.315C86.2368 191.594 88.157 218.355 87.8805 220.862L96.2999 221.154C97.3253 216.65 102.885 180.367 105.212 162.039L105.579 162.043L110.017 188.106C107.645 193.722 110.093 209.113 110.912 221.792L119.07 221.551L122.438 190.225L121.453 161.853Z" fill="url(#paint0_linear)"/>
<path fill-rule="evenodd" clip-rule="evenodd" d="M120.583 112.183L135.703 134.413C135.703 134.413 131.676 142.832 129.862 141.553C126.414 139.12 115.697 124.59 115.697 124.59L120.583 112.183Z" fill="#8B76B5"/>
<path fill-rule="evenodd" clip-rule="evenodd" d="M184.204 89.4092C184.204 89.4092 177.926 92.1352 183.213 97.0576C188.496 101.98 184.204 89.4092 184.204 89.4092Z" fill="#282B62"/>
<path fill-rule="evenodd" clip-rule="evenodd" d="M183.425 92.1484C183.711 90.3052 184.872 88.6428 186.637 87.5576C188.401 86.4724 190.608 86.0546 192.739 86.4078C196.866 87.0882 199.65 90.4085 199.092 93.9787C198.771 96.0329 198.318 96.8167 198.012 98.7632C197.806 100.081 195.066 102.273 193.809 103.048C192.553 103.823 192.99 104.573 191.467 104.323C190.055 104.09 188.557 103.841 187.169 103.612C184.138 103.113 182.093 100.675 182.505 98.0526C182.786 96.2439 183.113 94.1337 183.425 92.1484Z" fill="#F37151"/>
<path fill-rule="evenodd" clip-rule="evenodd" d="M182.138 113.078C184.314 110.025 189.25 109.452 194.79 109.138C199.831 108.849 208.341 109.607 209.135 116.162C210.342 126.11 211.066 144.693 211.066 144.693C206.733 150.722 195.513 152.63 188.094 150.248C184.948 149.236 183.063 149.499 180.142 146.191C180.147 146.191 179.057 117.406 182.138 113.078Z" fill="url(#paint1_linear)"/>
<path fill-rule="evenodd" clip-rule="evenodd" d="M196.674 99.1201L187.672 100.972V109.581C187.436 114.128 199.756 113.745 198.549 108.922L196.674 99.1201Z" fill="#F37151"/>
<path fill-rule="evenodd" clip-rule="evenodd" d="M194.684 95.0464C193.674 94.8181 192.578 95.533 192.241 96.6398C191.904 97.7466 192.447 98.8275 193.463 99.0557C194.473 99.284 195.569 98.5691 195.906 97.4623C196.242 96.3556 195.699 95.2746 194.684 95.0464Z" fill="#F37151"/>
<path fill-rule="evenodd" clip-rule="evenodd" d="M88.8857 223.334L87.046 228.411C86.7495 229.225 87.4582 230.048 88.4535 230.048H94.5456C95.5157 230.048 96.2999 229.376 96.2999 228.545L94.9226 223.334H88.8857Z" fill="#282B62"/>
<path fill-rule="evenodd" clip-rule="evenodd" d="M122.367 155.325C122.367 155.325 122.458 158.18 116.069 158.18L113.375 126.493L114.194 112.759L116.607 109.517L118.23 109.758C121.905 110.636 121.096 117.51 121.236 120.3L122.367 155.325Z" fill="#8B76B5"/>
<path fill-rule="evenodd" clip-rule="evenodd" d="M88.1518 154.826C90.3484 155.777 95.7419 157.827 102.251 158.228L103.267 129.667L98.0239 109.706L94.2389 109.56L91.4894 110.576C88.4082 111.76 86.9605 113.496 87.1013 116.312L89.3934 135.201L87.2119 153.336C87.1365 153.956 87.5084 154.546 88.1518 154.826Z" fill="#8B76B5"/>
<path fill-rule="evenodd" clip-rule="evenodd" d="M100.396 107.63C100.396 107.63 97.4107 110.162 100.909 116.295C102.251 118.646 104.041 125.248 103.272 130.024L95.4704 120.136L98.1044 117.587L93.4598 115.317L94.1736 109.46C96.3903 108.784 96.4607 108.663 100.396 107.63Z" fill="#BBA8D1"/>
<path fill-rule="evenodd" clip-rule="evenodd" d="M112.4 111.226C112.948 112.526 113.093 114.374 113.068 116.82C112.978 124.723 113.656 129.757 113.656 129.757L118.773 120.39L115.275 117.927L119.095 115.425L117.26 109.103C117.26 109.103 115.245 108.108 110.399 107.419C110.394 107.419 111.43 108.931 112.4 111.226Z" fill="#BBA8D1"/>
<path fill-rule="evenodd" clip-rule="evenodd" d="M97.4107 161.303H73.1124C72.2378 161.303 71.519 160.687 71.519 159.937V145.312C71.519 144.563 72.2378 143.947 73.1124 143.947H97.4107C98.2853 143.947 99.0041 144.563 99.0041 145.312V159.937C99.0041 160.691 98.2853 161.303 97.4107 161.303Z" fill="#E8DDEE"/>
<path fill-rule="evenodd" clip-rule="evenodd" d="M96.3049 161.303H72.0067C71.1321 161.303 70.4133 160.687 70.4133 159.937V145.312C70.4133 144.563 71.1321 143.947 72.0067 143.947H96.3049C97.1795 143.947 97.8983 144.563 97.8983 145.312V159.937C97.8983 160.691 97.1845 161.303 96.3049 161.303Z" fill="#282B62"/>
<path d="M148.234 134.288H145.912V140.197H148.234V134.288Z" fill="#E8DDEE"/>
<path fill-rule="evenodd" clip-rule="evenodd" d="M131.465 134.137H146.535L146.384 141.682C146.384 141.682 131.752 142.896 129.867 141.557C128.123 140.317 123.458 135.898 131.465 134.137Z" fill="#8B76B5"/>
<path fill-rule="evenodd" clip-rule="evenodd" d="M77.7318 155.277C77.7318 155.277 76.5606 160.126 76.8974 161.203C77.2342 162.284 77.9479 162.508 80.0993 162.426C82.2557 162.349 84.1557 162.603 84.1356 160.712C84.1155 158.822 84.1607 160.471 84.1607 160.471C84.1607 160.471 85.8295 158.972 85.4123 157.073C84.9951 155.174 83.8541 154.941 83.3967 153.279C82.9342 151.621 77.7318 155.277 77.7318 155.277Z" fill="#F37151"/>
<path d="M84.598 155.595V153.605H77.7016V155.595H84.598Z" fill="#E8DDEE"/>
<path fill-rule="evenodd" clip-rule="evenodd" d="M87.7448 113.271C87.7448 113.271 77.7068 128.568 76.7468 135.752C75.7867 142.939 76.7468 153.779 76.7468 153.779H85.5482C85.5482 153.779 84.3117 141.518 85.6839 137.28C87.0612 133.043 94.2089 124.133 94.2089 124.133L87.7448 113.271Z" fill="#8B76B5"/>
<path fill-rule="evenodd" clip-rule="evenodd" d="M199.233 112.803L187.953 136.252C187.953 136.252 196.71 141.609 197.941 139.895C199.027 138.384 204.732 129.198 208.371 123.315C210.07 120.567 208.844 117.161 205.637 115.705L199.233 112.803Z" fill="#FDBB4F"/>
<path fill-rule="evenodd" clip-rule="evenodd" d="M191.819 142.711L164.751 139.981L165.721 131.751L197.222 134.981L197.896 137.384C198.781 140.536 195.518 143.4 191.819 142.711Z" fill="#FDBB4F"/>
<path fill-rule="evenodd" clip-rule="evenodd" d="M109.862 106.171C109.862 106.171 106.122 106.515 102.638 104.418C102.638 104.418 106.433 108.488 109.907 107.941L109.862 106.171Z" fill="#C54727"/>
<path fill-rule="evenodd" clip-rule="evenodd" d="M187.712 104.396C187.712 104.396 191.452 104.741 194.935 102.644C194.935 102.644 191.14 106.713 187.667 106.166L187.712 104.396Z" fill="#C54727"/>
<path fill-rule="evenodd" clip-rule="evenodd" d="M180.198 133.164L188.034 132.518L197.479 119.551L191.175 134.288L180.198 133.164Z" fill="#FBAE30"/>
<path opacity="0.34" fill-rule="evenodd" clip-rule="evenodd" d="M105.579 162.039L110.017 188.102C110.017 188.102 108.409 191.358 109.178 200.863C109.947 210.371 110.912 221.788 110.912 221.788L113.863 221.779C113.863 221.779 114.219 218.041 112.887 214.316C111.555 210.591 111.204 203.524 112.445 201.319C113.687 199.114 113.154 193.718 112.711 192.426C112.269 191.134 113.42 187.112 112.711 184.106C112.154 181.741 109.781 170.178 108.796 165.359C108.524 164.024 107.534 162.883 106.122 162.272L105.579 162.039Z" fill="#282B62"/>
<path d="M115.114 99.4395L113.274 99.7108C112.435 99.8357 111.606 99.3576 111.43 98.6514L111.384 98.4791C111.208 97.7728 111.751 97.0924 112.586 96.9718L114.425 96.7005C115.265 96.5756 116.094 97.0536 116.27 97.7599L116.315 97.9322C116.496 98.6384 115.953 99.3189 115.114 99.4395Z" stroke="#2A347E" stroke-width="0.6518" stroke-miterlimit="10" stroke-linecap="round" stroke-linejoin="round"/>
<path d="M108.952 100.188L107.112 100.46C106.272 100.585 105.443 100.107 105.267 99.4004L105.222 99.2281C105.046 98.5219 105.589 97.8414 106.423 97.7208L108.263 97.4495C109.102 97.3246 109.932 97.8027 110.108 98.5089L110.153 98.6812C110.334 99.3875 109.791 100.064 108.952 100.188Z" stroke="#2A347E" stroke-width="0.6518" stroke-miterlimit="10" stroke-linecap="round" stroke-linejoin="round"/>
<path d="M98.4462 98.9746L104.297 99.9005" stroke="#2A347E" stroke-width="0.6518" stroke-miterlimit="10" stroke-linecap="round" stroke-linejoin="round"/>
<path fill-rule="evenodd" clip-rule="evenodd" d="M188.496 82.2186C188.496 82.2186 180.997 81.999 180.157 88.7344C179.313 95.4698 183.339 92.171 183.339 92.171C183.339 92.171 190.21 85.8189 188.496 82.2186Z" fill="#282B62"/>
<path fill-rule="evenodd" clip-rule="evenodd" d="M195.81 94.2072C195.81 94.2072 197.64 89.5389 196.624 87.476C195.161 84.4959 193.211 81.7613 188.029 82.2479C188.029 82.2479 183.088 87.6569 193.462 93.3674L195.81 94.2072Z" fill="#282B62"/>
<path fill-rule="evenodd" clip-rule="evenodd" d="M203.978 93.0137C204.074 93.0826 200.635 101.829 194.845 100.201C189.054 98.5734 194.744 88.4014 194.744 88.4014L203.978 93.0137Z" fill="#282B62"/>
<path fill-rule="evenodd" clip-rule="evenodd" d="M205.22 88.5697C205.22 88.5697 196.961 77.8292 187.099 84.5732C187.099 84.5732 185.958 94.8142 203.581 94.4524C208.522 94.3534 205.22 88.5697 205.22 88.5697Z" fill="#282B62"/>
<path fill-rule="evenodd" clip-rule="evenodd" d="M201.063 92.9926C198.303 90.8997 199.675 86.9463 203.34 86.5931C205.546 86.3778 207.979 86.8171 209.789 88.966C214.096 94.0822 222.933 90.68 224.22 98.716C225.301 105.451 236.429 100.46 234.052 112.023C231.875 122.6 217.203 118.35 216.559 113.556C215.916 108.759 216.313 105.37 211.744 104.577C204.757 103.367 204.285 100.404 204.35 96.9073C204.375 95.2665 202.741 94.2631 201.063 92.9926Z" fill="#282B62"/>
<path fill-rule="evenodd" clip-rule="evenodd" d="M196.971 100.46C196.971 100.46 189.703 100.068 191.95 90.4213C194.196 80.7747 199.756 94.3532 199.756 94.3532L196.971 100.46Z" fill="#282B62"/>
<path fill-rule="evenodd" clip-rule="evenodd" d="M196.674 99.1201C196.674 100.468 195.398 101.558 193.829 101.558C192.256 101.558 190.984 100.464 190.984 99.1201C190.984 97.7765 192.261 96.6826 193.829 96.6826C195.398 96.6826 196.674 97.7722 196.674 99.1201Z" fill="#F37151"/>
<defs>
<linearGradient id="paint0_linear" x1="104.885" y1="183.282" x2="106.197" y2="138.214" gradientUnits="userSpaceOnUse">
<stop stop-color="#6954A3"/>
<stop offset="0.5646" stop-color="#534EA1"/>
<stop offset="0.8575" stop-color="#444B9F"/>
</linearGradient>
<linearGradient id="paint1_linear" x1="215.247" y1="146.294" x2="195.598" y2="125.222" gradientUnits="userSpaceOnUse">
<stop stop-color="#F58220"/>
<stop offset="0.1332" stop-color="#F78D26"/>
<stop offset="0.4701" stop-color="#FAA53B"/>
<stop offset="0.7478" stop-color="#FCB54A"/>
<stop offset="0.9302" stop-color="#FDBB4F"/>
</linearGradient>
</defs>
</svg>
