<svg width="504" height="146" viewBox="0 0 504 146" fill="none" xmlns="http://www.w3.org/2000/svg">
<g clip-path="url(#clip0)">
<path opacity="0.1" d="M281 120.697C281 123.073 319.287 125 366.501 125C413.715 125 452 123.073 452 120.697C452 118.322 413.713 116.395 366.501 116.395C319.288 116.395 281 118.322 281 120.697Z" fill="#231F20"/>
<path d="M411.899 88.4062H416.561V66.2502H411.899V88.4062Z" fill="#381F7A"/>
<path d="M404.433 87.3284H423.587C424.228 87.3284 424.747 86.806 424.747 86.1616V79.8653C424.747 79.2209 424.228 78.6985 423.587 78.6985H404.433C403.793 78.6985 403.273 79.2209 403.273 79.8653V86.1616C403.273 86.806 403.793 87.3284 404.433 87.3284Z" fill="#381F7A"/>
<path d="M390.856 83.0127H425.398C427.767 83.0127 429.688 81.0811 429.688 78.6985V78.697C429.688 76.3143 427.767 74.3828 425.398 74.3828H390.856C388.487 74.3828 386.566 76.3143 386.566 78.697V78.6985C386.566 81.0811 388.487 83.0127 390.856 83.0127Z" fill="#9B87FF"/>
<path opacity="0.2" d="M388.61 74.7693C388.483 75.1405 388.417 75.5303 388.417 75.923V77.4077C388.417 78.3552 388.791 79.2638 389.457 79.9339C390.123 80.604 391.027 80.9807 391.969 80.981H427.987C428.545 80.9805 429.095 80.847 429.592 80.5916C429.353 81.2967 428.901 81.9089 428.299 82.3426C427.696 82.7762 426.974 83.0095 426.234 83.0098H390.22C389.753 83.0106 389.29 82.9187 388.859 82.7394C388.427 82.5602 388.035 82.297 387.704 81.9651C387.374 81.6332 387.112 81.239 386.934 80.8051C386.755 80.3712 386.663 79.9061 386.664 79.4365V77.9576C386.663 77.297 386.844 76.6492 387.188 76.0863C387.531 75.5234 388.024 75.0674 388.61 74.7693Z" fill="#231F20"/>
<path d="M411.899 96.7328H416.561V84.8038H411.899V96.7328Z" fill="#381F7A"/>
<path d="M410.723 103.481H417.737V91.5523H410.723V103.481Z" fill="#381F7A"/>
<path d="M403.604 112.191H406.054C406.054 108.068 408.724 104.715 412 104.715H427.024C430.304 104.715 432.97 108.07 432.97 112.191H435.42C435.42 106.709 431.65 102.249 427.019 102.249H412.005C407.373 102.249 403.604 106.71 403.604 112.191Z" fill="#381F7A"/>
<path d="M392.319 112.191H394.77C394.77 108.068 397.44 104.715 400.716 104.715H415.744C419.026 104.715 421.69 108.07 421.69 112.191H424.142C424.142 106.709 420.371 102.249 415.739 102.249H400.721C396.089 102.249 392.319 106.71 392.319 112.191Z" fill="#381F7A"/>
<path d="M399.092 68.7399H429.911C432.28 68.7399 434.201 66.9474 434.201 64.7363V37.6855C434.201 27.5315 425.381 19.2997 414.502 19.2997C403.626 19.2997 394.804 27.5315 394.804 37.6855V64.7363C394.802 66.9474 396.722 68.7399 399.092 68.7399Z" fill="#9B87FF"/>
<path d="M434.204 119.806C436.183 119.806 437.788 118.193 437.788 116.202C437.788 114.212 436.183 112.598 434.204 112.598C432.225 112.598 430.621 114.212 430.621 116.202C430.621 118.193 432.225 119.806 434.204 119.806Z" fill="#381F7A"/>
<path d="M438.658 116.204C438.658 115.016 438.189 113.877 437.353 113.037C436.518 112.197 435.385 111.725 434.204 111.725C433.023 111.725 431.89 112.197 431.055 113.037C430.22 113.877 429.75 115.016 429.75 116.204" fill="#381F7A"/>
<path d="M422.861 119.806C424.841 119.806 426.445 118.193 426.445 116.202C426.445 114.212 424.841 112.598 422.861 112.598C420.882 112.598 419.278 114.212 419.278 116.202C419.278 118.193 420.882 119.806 422.861 119.806Z" fill="#381F7A"/>
<path d="M427.315 116.204C427.315 115.016 426.846 113.877 426.011 113.037C425.175 112.197 424.043 111.725 422.861 111.725C421.68 111.725 420.547 112.197 419.712 113.037C418.877 113.877 418.408 115.016 418.408 116.204" fill="#381F7A"/>
<path d="M404.86 119.806C406.839 119.806 408.443 118.193 408.443 116.202C408.443 114.212 406.839 112.598 404.86 112.598C402.881 112.598 401.276 114.212 401.276 116.202C401.276 118.193 402.881 119.806 404.86 119.806Z" fill="#381F7A"/>
<path d="M409.313 116.204C409.324 115.609 409.217 115.018 408.998 114.465C408.779 113.912 408.453 113.409 408.038 112.984C407.623 112.56 407.129 112.223 406.583 111.993C406.038 111.762 405.452 111.644 404.86 111.644C404.269 111.644 403.683 111.762 403.138 111.993C402.592 112.223 402.097 112.56 401.683 112.984C401.268 113.409 400.942 113.912 400.723 114.465C400.504 115.018 400.397 115.609 400.407 116.204" fill="#381F7A"/>
<path d="M393.518 119.806C395.497 119.806 397.101 118.193 397.101 116.202C397.101 114.212 395.497 112.598 393.518 112.598C391.538 112.598 389.934 114.212 389.934 116.202C389.934 118.193 391.538 119.806 393.518 119.806Z" fill="#381F7A"/>
<path d="M397.971 116.204C397.982 115.609 397.875 115.018 397.656 114.465C397.437 113.912 397.11 113.409 396.696 112.984C396.281 112.56 395.787 112.223 395.241 111.993C394.695 111.762 394.11 111.644 393.518 111.644C392.927 111.644 392.341 111.762 391.795 111.993C391.25 112.223 390.755 112.56 390.341 112.984C389.926 113.409 389.6 113.912 389.381 114.465C389.162 115.018 389.055 115.609 389.065 116.204" fill="#381F7A"/>
<path opacity="0.2" d="M401.298 24.0413C398.687 27.161 397.131 31.0814 397.131 35.3432V62.394C397.131 64.605 399.051 66.3975 401.421 66.3975H432.24C432.828 66.3985 433.41 66.2851 433.955 66.0635C433.374 67.6212 431.779 68.7399 429.911 68.7399H399.092C396.722 68.7399 394.802 66.9474 394.802 64.7363V37.6855C394.802 32.273 397.31 27.406 401.298 24.0413Z" fill="#231F20"/>
<path d="M286.141 57.1754L371.317 57.1754V51.6637L286.141 51.6637V57.1754Z" fill="#381F7A"/>
<path d="M289.891 62.6623L367.566 62.6623V57.1506L289.891 57.1506V62.6623Z" fill="#0B2D4E"/>
<path d="M362.936 120.697H357.824L351.501 62.6623H356.613L362.936 120.697Z" fill="#0B2D4E"/>
<path d="M294.425 120.697H299.537L305.86 62.6623H300.748L294.425 120.697Z" fill="#0B2D4E"/>
<path d="M361.013 120.274C361.529 120.464 362.052 120.655 362.601 120.695C363.906 120.788 365.176 119.363 365.553 118.262C366.278 116.153 365.485 114.634 365.764 112.467C366.042 110.3 366.695 108.305 367.582 106.301C368.581 104.044 369.671 101.838 370.707 99.5915C371.698 97.481 372.569 95.3161 373.318 93.107C374.365 89.9508 375.058 86.675 375.825 83.4474C376.614 80.1158 376.938 76.6899 376.787 73.2685C376.72 71.7575 376.479 70.0904 375.337 69.1162C373.863 67.8677 371.489 68.3986 370.104 69.7448C368.138 71.6569 367.494 74.6614 367.024 77.2575C365.975 83.004 364.686 88.6994 363.495 94.4168C362.863 97.4548 362.311 100.509 361.796 103.569C361.535 105.125 361.252 106.861 360.669 108.306C359.622 110.901 358.058 112.908 355.605 114.286C354.299 115.015 352.531 115.488 351.553 116.692C351.481 116.772 351.437 116.872 351.425 116.979C351.413 117.085 351.435 117.193 351.487 117.286C351.554 117.368 351.638 117.435 351.732 117.481C353.105 118.266 354.607 118.798 356.166 119.051C356.891 119.17 357.7 119.111 358.395 119.315C359.279 119.569 360.147 119.954 361.013 120.274Z" fill="#E5785C"/>
<path d="M369.457 102.25C369.876 101.366 370.296 100.481 370.707 99.5915C371.698 97.481 372.569 95.316 373.318 93.107C374.365 89.9508 375.058 86.675 375.825 83.4474C376.614 80.1158 376.938 76.6899 376.787 73.2685C376.72 71.7575 376.479 70.0904 375.337 69.1162C373.863 67.8677 371.489 68.3986 370.104 69.7448C368.138 71.6569 367.494 74.6614 367.024 77.2575C365.975 83.004 364.686 88.6994 363.495 94.4167C363.157 96.0386 362.84 97.6653 362.544 99.2969" fill="#061F33"/>
<path d="M412.137 56.4534C406.668 56.7729 401.405 59.0335 396.329 60.9675C390.394 63.2337 384.316 65.1027 378.135 66.5623C374.509 67.4214 369.333 68.9615 369.107 73.5266C368.889 77.8948 374.01 79.4511 377.615 79.295C384.191 79.0033 390.773 79.2075 397.352 79.1492C402.261 79.1083 407.203 79.0748 412.056 78.2303C416.34 77.485 419.967 75.8209 421.694 71.5212C423.543 66.9182 422.025 60.5664 418.08 57.4846C417.148 56.7554 415.931 56.4957 414.745 56.4389C413.876 56.3967 413.005 56.4016 412.137 56.4534V56.4534Z" fill="#F8A17A"/>
<path d="M390.998 112.849C390.467 110.683 388.982 109.84 388.047 107.868C387.112 105.897 386.581 103.865 386.244 101.696C385.866 99.2575 385.589 96.8101 385.247 94.3584C384.941 92.0437 384.505 89.7483 383.941 87.483C383.328 85.0852 382.591 82.4352 381.283 80.3364C379.72 77.8234 378.13 75.325 376.552 72.8193C376.117 72.1367 375.682 71.4439 375.076 70.9159C373.133 69.227 370.547 70.3938 369.655 72.5815C368.91 74.4047 369.391 75.9054 370.09 77.6206C372.312 83.0171 374.296 88.5054 376.39 93.9558C377.499 96.8524 378.684 99.7198 379.904 102.57C380.525 104.019 381.224 105.633 381.515 107.164C381.821 108.768 382.073 110.18 381.37 111.744C381.009 112.542 380.166 113.348 379.495 113.902C379.077 114.231 378.637 114.531 378.178 114.801L375.053 116.733C374.721 116.919 374.416 117.149 374.145 117.417C374.011 117.552 373.905 117.713 373.834 117.89C373.764 118.068 373.73 118.258 373.734 118.448C373.771 118.931 374.142 119.335 374.574 119.548C375.218 119.865 375.842 119.86 376.518 119.706L388.265 117.025C388.8 116.902 389.344 116.777 389.825 116.512C390.974 115.874 391.277 113.981 390.998 112.849Z" fill="#F8A17A"/>
<path d="M385.744 98.1257C385.58 96.8714 385.422 95.6156 385.247 94.3584C384.941 92.0437 384.505 89.7482 383.941 87.483C383.328 85.0852 382.591 82.4352 381.283 80.3364C381.048 79.9572 380.809 79.5809 380.571 79.2017C386.165 79.0689 391.761 79.2017 397.355 79.155C402.264 79.1142 407.206 79.0806 412.057 78.2361C416.343 77.4908 419.97 75.8267 421.697 71.527C423.546 66.924 422.028 60.5723 418.083 57.4905C417.151 56.7612 415.934 56.5016 414.747 56.4447C413.874 56.4021 412.999 56.407 412.127 56.4593C406.658 56.7787 401.395 59.0394 396.319 60.9733C390.383 63.2395 384.305 65.1085 378.124 66.5682C374.499 67.4272 369.323 68.9674 369.097 73.5325C369.06 74.1472 369.146 74.763 369.349 75.3439C369.509 76.1267 369.752 76.89 370.074 77.6207C372.296 83.0171 374.28 88.5054 376.374 93.9558C377.183 96.0692 378.033 98.1665 378.908 100.252" fill="#0B2D4E"/>
<path d="M391.532 113.093C391.255 112.236 390.833 111.433 390.286 110.72C390.202 110.609 389.216 109.686 389.212 109.699C388.922 110.72 388.389 111.566 387.832 112.451C387.206 113.446 385.892 113.98 384.846 114.389C383.301 115 381.651 115.298 379.991 115.265C379.306 115.247 378.605 115.168 378 114.846C377.931 114.801 377.853 114.772 377.772 114.76C377.678 114.762 377.586 114.789 377.507 114.839C376.28 115.461 375.067 116.138 373.804 116.682C372.828 117.101 371.555 117.372 370.881 118.269C370.476 118.807 370.432 119.658 370.93 120.111C371.878 120.986 373.234 121.1 374.46 121.099C375.916 121.119 377.372 121.056 378.821 120.909C380.894 120.658 382.943 120.238 384.948 119.653C385.964 119.361 386.969 119.033 387.963 118.667C388.866 118.339 389.931 118.05 390.755 117.551C392.143 116.717 391.95 114.421 391.532 113.093Z" fill="#8070F2"/>
<path d="M365.77 113.239C363.935 114.656 362.365 115.921 360.017 116.372C358.807 116.605 357.567 116.625 356.351 116.43C355.73 116.329 355.121 116.169 354.531 115.953C354.288 115.876 354.061 115.759 353.858 115.606C353.688 115.46 353.658 115.297 353.394 115.256C353.157 115.237 352.92 115.271 352.697 115.355C350.785 115.925 348.864 116.497 347.042 117.325C346.532 117.557 346.013 117.826 345.675 118.273C345.271 118.812 345.229 119.662 345.725 120.115C347.04 121.317 349.06 121.071 350.685 121.1C353.875 121.16 357.111 120.584 360.288 120.84C361.802 120.961 363.3 120.986 364.826 120.747C366.002 120.559 366.681 119.77 366.791 118.596C366.963 116.749 366.609 114.891 365.77 113.239V113.239Z" fill="#8070F2"/>
<path d="M364.283 48.2975H326.452V51.6681H364.283V48.2975Z" fill="#8070F2"/>
<path d="M330.347 50.2767L318.376 16.3841C318.285 16.1269 318.145 15.8901 317.963 15.6874C317.781 15.4847 317.561 15.32 317.316 15.2027C317.071 15.0854 316.805 15.0179 316.534 15.0038C316.263 14.9898 315.992 15.0297 315.736 15.1211V15.1211C315.22 15.3058 314.798 15.6892 314.562 16.187C314.327 16.6848 314.298 17.2562 314.482 17.7755L326.454 51.6681L330.347 50.2767Z" fill="#8070F2"/>
<path d="M385.052 35.4307C385.269 36.9694 385.358 38.5238 385.317 40.0775C385.237 43.0864 385.242 47.456 381.127 45.1151C379.757 44.3348 378.721 43.0849 377.486 42.1019C375.292 40.3502 372.52 39.4971 369.727 39.7135C366.934 39.9299 364.325 41.1998 362.424 43.2687C361.063 44.7272 360.315 45.8663 358.624 46.9674C354.555 49.6175 348.343 48.3603 345.572 44.1423C343.453 40.9336 342.013 36.8134 342.526 32.9119C342.999 29.3225 345.669 25.8717 348.574 23.8794C350.768 22.3742 353.281 21.4116 355.812 20.5992C362.603 18.4115 369.891 17.5699 376.421 21.1024C377.96 21.9074 379.347 22.9754 380.521 24.2586C381.873 25.7784 382.823 27.6234 383.548 29.5296C384.266 31.4342 384.771 33.4135 385.052 35.4307V35.4307Z" fill="#0B2D4E"/>
<path d="M375.962 37.4084C374.815 38.1873 373.767 39.2753 372.85 40.0498C372.626 40.2627 372.365 40.434 372.081 40.5559C371.133 40.8957 370.153 40.0556 369.268 39.4445C368.453 38.8815 367.548 38.4702 366.82 37.7672C366.092 37.0642 365.565 35.9353 365.856 34.9625C365.948 34.6591 365.88 34.8254 366.108 34.6358C366.913 33.9649 367.748 33.259 368.549 32.5181C371.568 33.4136 374.382 35.0442 375.962 37.4084Z" fill="#E5785C"/>
<path d="M362.955 31.6502C361.236 31.4577 359.581 31.5043 358.178 31.7858C352.12 33.011 349.821 40.1562 353.492 45.0582C354.748 46.7355 356.838 48.0583 358.895 48.2917C362.034 48.649 365.237 48.5673 368.203 49.8114C368.304 49.8597 368.413 49.8922 368.524 49.9077C368.94 49.9369 369.212 49.4701 369.278 49.0501C369.423 48.1531 369.514 47.8381 370.36 47.437C371.527 46.9074 372.59 46.1691 373.495 45.258C374.097 44.6215 374.55 43.8568 374.818 43.0205C375.086 42.1842 375.163 41.2979 375.044 40.4274C374.283 35.1841 368.321 32.254 362.955 31.6502Z" fill="#F8A17A"/>
<path d="M358.938 48.299H358.894C356.837 48.0656 354.747 46.7428 353.491 45.0655C349.82 40.162 352.119 33.0168 358.177 31.7932C359.58 31.5102 361.235 31.465 362.954 31.6575C364.252 31.8036 365.533 32.0767 366.778 32.4728C366.189 33.0445 365.455 33.4421 364.656 33.6221C363.97 33.7749 363.266 33.8299 362.565 33.7855C361.345 33.7271 360.027 34.067 359.479 35.3417C359.164 36.0709 359.324 37.0102 359.928 37.5294C360.408 37.9378 361.11 38.0691 361.722 37.9903C362.012 37.9539 363.173 37.7117 362.777 38.3958C362.32 39.1775 361.492 39.618 360.936 40.3137C360.381 41.0094 359.956 41.7037 359.823 42.6225C359.651 43.7995 359.743 45.0057 359.56 46.1827C359.452 46.9139 359.243 47.6263 358.938 48.299V48.299Z" fill="#E5785C"/>
<path d="M414.003 61.3365C414.347 61.2709 414.689 61.2023 415.033 61.1352C416.856 60.7706 422.129 60.5329 421.384 57.4657C418.818 46.9265 416.134 35.8799 407.055 29.0249C399.383 23.2361 389.303 22.065 380.015 23.3105C378.166 23.5599 376.343 24.0398 374.693 24.9309C370.743 27.0632 368.287 31.1441 366.025 35.0369L378.281 41.5651C381.239 43.1403 384.237 44.7359 386.788 46.944C388.874 48.7497 391.941 50.0813 393.111 52.7503C394.453 55.8132 394.248 59.1677 393.011 62.1912C394.051 62.7425 398.045 63.2311 398.577 63.2296C400.507 63.2344 402.435 63.1229 404.352 62.8957C407.588 62.4946 410.813 61.9578 414.003 61.3365Z" fill="#3DC8E8"/>
<path d="M380.169 24.4671C379.637 23.4409 378.876 22.5524 377.946 21.871C375.992 20.4023 373.508 19.5082 371.104 19.1699C365.981 18.4479 358.559 21.0659 355.136 25.0374C351.955 28.7259 349.93 35.2469 350.474 40.1139C350.574 40.861 350.756 41.5947 351.016 42.3016C351.479 43.6624 352.047 45.0028 352.861 46.1929C353.006 46.4059 353.164 46.6071 353.316 46.8157C353.429 46.9979 353.551 47.1742 353.682 47.3437C354.031 47.7346 354.582 47.8877 355.08 47.9825C355.26 48.0198 355.444 48.0345 355.628 48.0263C355.812 48.016 355.982 47.9562 356.163 47.9285C356.429 47.8862 356.743 47.8979 356.997 47.7827C357.558 47.5304 357.995 46.5298 358.311 45.5672C358.682 44.4354 358.788 43.2336 359.148 42.0975C359.429 41.2136 359.948 40.6083 360.623 40.0031C361.297 39.3978 362.173 39.1104 362.75 38.4147C363.256 37.8051 362.063 37.8518 361.777 37.8401C361.161 37.8182 360.489 37.5732 360.082 37.0904C359.57 36.4822 359.564 35.5313 359.993 34.8604C361.153 33.0606 363.071 33.4588 364.94 34.6941C367.35 36.2883 369.677 39.2753 370.161 40.7454C370.716 42.411 370.666 44.2385 371.267 45.8866C372.13 48.2494 374.04 50.2621 374.023 52.9049C374.014 54.0717 373.633 55.1977 373.417 56.3441C373.201 57.4905 373.172 58.7535 373.797 59.7365C374.332 60.5781 375.256 61.0754 376.162 61.4867C377.73 62.1956 379.406 62.7556 381.125 62.7411C383.155 62.7236 385.068 61.8937 386.76 60.8085C388.163 59.9087 390.106 58.7666 390.786 57.2075C392.237 53.8865 391.996 49.915 389.481 47.1439C387.658 45.1384 384.996 44.3858 383.466 42.1223C382.012 39.9729 381.153 37.4729 380.978 34.8793C380.859 33.011 381.1 31.1412 381.123 29.27C381.148 27.4891 380.891 25.8731 380.169 24.4671Z" fill="#0B2D4E"/>
<path d="M352.112 46.7078C351.722 46.497 351.352 46.2504 351.007 45.9712C350.666 45.6855 350.348 45.3729 350.057 45.0363L349.844 44.7782C349.807 44.7359 349.775 44.6907 349.742 44.6454L349.642 44.5113L349.543 44.3771L349.449 44.2385L349.356 44.1C349.324 44.0533 349.292 44.0081 349.263 43.9541L349.089 43.6697C349.03 43.5749 348.978 43.4757 348.923 43.378L348.841 43.2322L348.765 43.0863C348.714 42.9871 348.66 42.888 348.62 42.7873C348.424 42.3877 348.25 41.9749 348.09 41.5593L347.976 41.2442C347.936 41.1392 347.905 41.0327 347.868 40.9263C347.796 40.7148 347.739 40.4975 347.678 40.2831L347.657 40.2014L347.638 40.1197L347.599 39.9578L347.559 39.7945C347.548 39.7391 347.533 39.6851 347.525 39.6297L347.459 39.3015C347.449 39.2461 347.436 39.1907 347.427 39.1367L347.401 38.9704L347.349 38.6393L347.309 38.3054C347.278 38.0837 347.262 37.8678 347.242 37.6388C347.23 37.5265 347.227 37.4142 347.222 37.3034L347.204 36.9679V36.6325C347.204 36.5201 347.204 36.4078 347.204 36.297C347.204 36.0724 347.204 35.8478 347.226 35.6246C347.226 35.5138 347.237 35.4015 347.246 35.2892L347.277 34.9552C347.355 34.0609 347.536 33.1789 347.818 32.327C348.114 31.4706 348.553 30.6708 349.114 29.9613C349.397 29.6069 349.714 29.2815 350.061 28.9899C350.408 28.6969 350.787 28.444 351.191 28.2359L351.336 28.16L351.49 28.0871C351.54 28.0638 351.593 28.0404 351.645 28.02L351.801 27.9544C352.012 27.8712 352.223 27.7954 352.438 27.7283C352.867 27.5981 353.303 27.4905 353.743 27.406C354.613 27.2339 355.498 27.1245 356.362 26.9684C357.223 26.8307 358.063 26.5858 358.863 26.2392C359.651 25.862 360.398 25.4025 361.09 24.8682C361.796 24.3417 362.48 23.7772 363.187 23.2347C363.891 22.676 364.644 22.1839 365.438 21.7645C366.245 21.3338 367.131 21.0752 368.042 21.0046C368.952 20.9341 369.867 21.0533 370.73 21.3547C371.59 21.6451 372.397 22.0747 373.12 22.6265C373.301 22.7636 373.475 22.9094 373.645 23.064L373.771 23.1778L373.894 23.2959C373.976 23.3747 374.054 23.4535 374.134 23.5337C374.449 23.8553 374.747 24.1926 375.029 24.5444C375.604 25.2471 376.071 26.034 376.411 26.878C376.579 27.3085 376.687 27.7607 376.731 28.2213C376.751 28.4533 376.751 28.6865 376.731 28.9185C376.713 29.1466 376.682 29.3735 376.638 29.5981C376.556 30.0444 376.444 30.4732 376.348 30.9108C376.259 31.339 376.198 31.7726 376.164 32.2088C376.101 33.0849 376.134 33.9653 376.263 34.8341C376.393 35.7067 376.587 36.5686 376.843 37.4128C377.091 38.2601 377.387 39.0944 377.713 39.9214C377.872 40.3356 378.039 40.7469 378.207 41.1567C378.376 41.5666 378.547 41.9793 378.706 42.3979C378.866 42.8165 379.012 43.2409 379.131 43.6755C379.254 44.1114 379.337 44.5576 379.379 45.0086C379.421 45.4632 379.402 45.9214 379.323 46.3709C379.233 46.8103 379.12 47.2446 378.983 47.6718C378.922 47.8848 378.864 48.0977 378.817 48.3107C378.77 48.5225 378.738 48.7374 378.722 48.9539C378.71 49.1677 378.724 49.3821 378.763 49.5927C378.807 49.8012 378.88 50.0025 378.979 50.1907C379.382 50.9564 380.139 51.5033 380.563 52.3201C380.776 52.7256 380.895 53.1743 380.912 53.6327C380.922 53.8589 380.91 54.0856 380.876 54.3095C380.861 54.4218 380.835 54.5312 380.811 54.642C380.806 54.6697 380.799 54.6971 380.79 54.7237L380.767 54.8054L380.744 54.8856C380.735 54.9133 380.728 54.941 380.718 54.9672C380.679 55.0723 380.644 55.1802 380.596 55.2823C380.574 55.3333 380.554 55.3858 380.528 55.4281L380.452 55.574C380.428 55.6236 380.399 55.6717 380.371 55.7198L380.286 55.8657L380.191 56.0115L380.145 56.0815L380.094 56.1486L379.993 56.2814L379.882 56.4097L379.829 56.4724C379.81 56.4943 379.79 56.5133 379.771 56.5337L379.653 56.6533C379.493 56.809 379.319 56.9505 379.134 57.0762C378.766 57.3303 378.35 57.5064 377.912 57.594C377.474 57.6743 377.023 57.6553 376.593 57.5386C377.023 57.6457 377.472 57.6546 377.906 57.5648C378.336 57.4695 378.743 57.2868 379.101 57.0281C379.28 56.9012 379.449 56.7592 379.604 56.6037L379.717 56.4841L379.772 56.4228L379.826 56.3601L379.93 56.2318L380.028 56.099L380.077 56.0334L380.122 55.9634L380.21 55.8248C380.238 55.7767 380.264 55.7286 380.291 55.679C380.32 55.6318 380.345 55.5831 380.368 55.5331L380.441 55.3873C380.464 55.3377 380.483 55.2867 380.505 55.2414C380.548 55.1408 380.58 55.0358 380.616 54.9322C380.626 54.9066 380.634 54.8803 380.64 54.8535L380.661 54.7733L380.683 54.6945C380.691 54.6682 380.697 54.6414 380.702 54.6143C380.722 54.5078 380.747 54.3999 380.758 54.292C380.791 54.07 380.803 53.8453 380.793 53.6211C380.769 53.1857 380.649 52.7612 380.441 52.3784L380.361 52.2326L380.273 52.0955C380.21 52.0065 380.145 51.919 380.077 51.8344C379.932 51.6623 379.787 51.4989 379.642 51.3327C379.326 51.0099 379.05 50.6505 378.819 50.2621C378.708 50.0592 378.626 49.8411 378.576 49.6146C378.532 49.3879 378.514 49.1569 378.524 48.9261C378.538 48.6982 378.569 48.4715 378.615 48.2479C378.661 48.0277 378.718 47.8104 378.777 47.5945C378.906 47.1731 379.013 46.7452 379.096 46.3125C379.166 45.8834 379.179 45.447 379.136 45.0144C379.088 44.5795 379.004 44.1496 378.882 43.7295C378.763 43.308 378.615 42.8923 378.447 42.481C378.279 42.0697 378.112 41.6614 377.941 41.2515C377.769 40.8417 377.598 40.4289 377.434 40.0147C377.105 39.1848 376.799 38.3447 376.54 37.4871C376.276 36.6281 376.076 35.7506 375.941 34.8618C375.804 33.9694 375.766 33.0645 375.826 32.1636C375.859 31.7119 375.92 31.2628 376.009 30.8189C376.099 30.3813 376.209 29.9438 376.286 29.5179C376.37 29.0976 376.397 28.6678 376.366 28.2403C376.323 27.814 376.222 27.3958 376.065 26.9976C375.738 26.19 375.289 25.4374 374.736 24.7661C374.462 24.4248 374.172 24.0977 373.865 23.786C373.789 23.7072 373.71 23.6299 373.632 23.5541L373.514 23.4432L373.394 23.3339C373.232 23.188 373.065 23.0509 372.892 22.9211C372.202 22.3953 371.431 21.9864 370.61 21.7106C369.795 21.4231 368.93 21.3084 368.068 21.3736C367.207 21.4389 366.369 21.6827 365.606 22.0898C364.832 22.498 364.097 22.977 363.411 23.5205C362.709 24.0558 362.026 24.6217 361.305 25.1511C360.589 25.6966 359.819 26.165 359.006 26.5484C358.8 26.6398 358.59 26.7244 358.377 26.8022C358.164 26.8766 357.942 26.948 357.733 27.0034C357.298 27.123 356.863 27.2149 356.428 27.2951C355.558 27.4512 354.671 27.5577 353.809 27.721C353.379 27.7999 352.953 27.9011 352.534 28.0244C352.326 28.0871 352.12 28.1586 351.917 28.2359L351.772 28.2971C351.722 28.319 351.672 28.3394 351.627 28.3628L351.482 28.4299L351.337 28.5013C350.558 28.8969 349.871 29.4553 349.323 30.1392C348.775 30.822 348.344 31.5913 348.047 32.4159C347.757 33.2478 347.566 34.1107 347.475 34.9873L347.44 35.3154C347.432 35.4263 347.426 35.5357 347.417 35.6465C347.4 35.8667 347.396 36.0841 347.388 36.3087C347.388 36.4181 347.388 36.5289 347.388 36.6397V36.9708L347.401 37.3019C347.401 37.4127 347.401 37.5236 347.417 37.6344C347.435 37.8547 347.446 38.072 347.472 38.2951L347.509 38.6248L347.555 38.9529L347.58 39.1177C347.58 39.1717 347.599 39.2257 347.607 39.2811L347.667 39.6063C347.675 39.6618 347.688 39.7157 347.7 39.7697L347.736 39.9316L347.771 40.0935L347.79 40.1737L347.81 40.2539C347.867 40.4683 347.919 40.6827 347.989 40.8927C348.022 40.9977 348.052 41.1042 348.089 41.2092L348.199 41.5228C348.351 41.9385 348.517 42.3498 348.704 42.7509C348.749 42.8515 348.801 42.9492 348.849 43.0426L348.923 43.1884L349.001 43.3343C349.055 43.4305 349.104 43.5297 349.16 43.626L349.329 43.9177C349.56 44.2953 349.816 44.6568 350.096 44.9999C350.378 45.3414 350.687 45.659 351.021 45.9493C351.361 46.2354 351.726 46.4893 352.112 46.7078V46.7078Z" fill="#73B8D4"/>
<path d="M380.749 32.9848C380.93 31.201 381.112 29.4056 380.987 27.616C380.772 24.5532 379.564 21.6668 376.723 20.2594C372.776 18.3035 368.506 17.8222 364.193 18.5792C360.348 19.2545 356.917 21.2234 353.45 22.9167C350.143 24.5298 346.262 25.2635 343.711 28.109C339.461 32.8506 341.491 40.9671 345.482 45.1895C347.741 47.5829 351.402 48.3617 354.671 48.0773" stroke="#0B2D4E" stroke-width="5" stroke-miterlimit="10"/>
<path d="M382.342 60.1406C382.395 64.4067 382.632 68.6567 383.3 72.8951C383.619 74.937 384.182 76.9483 384.582 78.9785C384.846 80.2999 385.097 81.6242 385.334 82.9515C385.438 83.5349 385.542 84.1314 385.789 84.6725C386.109 85.3726 386.668 85.9414 387.465 85.9662C388.201 85.9881 389.396 85.3916 389.477 84.5544C389.516 84.1518 389.413 83.6895 389.431 83.2694C389.696 76.852 389.899 70.4346 390.121 64.0172C390.121 61.7697 390.306 59.5207 390.394 57.2746C390.481 55.0285 390.44 52.7722 390.446 50.5232C390.446 48.6456 390.446 46.7685 390.446 44.8919C390.436 41.0255 390.704 36.9985 390.36 33.0781C390.061 29.6827 388.884 25.7856 384.793 25.666C382.171 25.5887 380.53 27.985 380.007 30.3157C378.913 35.1288 381.167 40.0118 381.933 44.7053C382.442 47.8148 382.423 50.9768 382.368 54.1126C382.332 56.1268 382.316 58.1424 382.342 60.1406Z" fill="#F8A17A"/>
<path d="M382.265 60.1406C382.246 61.9826 382.246 63.8262 382.295 65.6697C382.391 69.2897 382.977 72.6909 383.444 76.2584C383.506 76.7251 383.579 77.2196 383.879 77.5813C384.353 78.1647 385.203 78.1939 385.947 78.1822L389.209 78.137C389.499 78.137 389.821 78.1122 390.009 77.8934C390.154 77.7257 390.173 77.4865 390.186 77.2648C390.576 70.598 390.137 63.9297 390.395 57.2746C390.482 55.0285 390.441 52.7722 390.447 50.5232C390.447 48.6456 390.447 46.7685 390.447 44.8919C390.437 41.0255 390.705 36.9985 390.362 33.0781C390.063 29.6827 388.885 25.7856 384.794 25.666C382.172 25.5887 380.532 27.985 380.008 30.3157C378.915 35.1287 381.169 40.0118 381.934 44.7053C382.443 47.8148 382.424 50.9768 382.369 54.1126C382.332 56.1238 382.287 58.1322 382.265 60.1406Z" fill="#26A8D1"/>
<path d="M390.418 88.5317C390.436 88.4559 390.452 88.3858 390.462 88.3217C390.65 87.222 390.411 86.0989 390.172 85.0094C389.915 83.8368 389.659 82.6642 389.403 81.4915C389.355 81.2698 387.12 81.5645 386.948 81.5995C386.429 81.6855 385.946 81.9188 385.555 82.2718C385.465 82.3512 385.394 82.4512 385.35 82.5635C385.321 82.6689 385.311 82.7785 385.321 82.8873C385.36 84.1431 385.083 85.2355 384.885 86.4577C384.68 87.7704 384.666 89.1093 384.561 90.4336C384.504 91.1497 384.458 91.9169 384.819 92.5367C385.229 93.2441 386.054 93.5723 386.82 93.8494C387.918 94.2505 389.056 94.6574 390.221 94.5699C390.846 94.5176 391.452 94.3249 391.993 94.0061C392.534 93.6873 392.998 93.2505 393.349 92.7278C393.694 92.2071 393.86 91.3874 393.339 91.0447C392.636 90.5824 391.781 91.6033 390.946 91.4822C389.513 91.2941 390.19 89.5001 390.418 88.5317Z" fill="#F8A17A"/>
<path d="M303.248 37.8532C303.58 37.1619 303.521 36.4341 303.31 35.7749C303.1 35.1156 302.749 34.5191 302.359 33.8788C301.916 33.2219 301.566 32.5062 301.319 31.7523C301.07 30.921 301.141 29.9905 301.37 29.2014C301.866 27.5971 302.882 26.4099 303.583 25.1978C303.947 24.6066 304.202 23.9538 304.334 23.2712C304.48 22.5644 304.393 21.8288 304.085 21.1768C304.665 21.6843 304.943 22.5098 304.981 23.3076C304.999 24.1149 304.838 24.9162 304.51 25.6529C303.902 27.1114 302.991 28.2986 302.636 29.5806C302.427 30.182 302.388 30.8296 302.523 31.4519C302.642 32.082 302.969 32.7179 303.265 33.4092C303.561 34.1005 303.877 34.8677 303.944 35.6626C304.011 36.4575 303.832 37.3369 303.248 37.8532Z" fill="white"/>
<path d="M299.068 38.7371H308.045V48.3136C308.045 49.2032 307.694 50.0565 307.068 50.6856C306.443 51.3147 305.594 51.6681 304.71 51.6681H302.404C301.519 51.6681 300.671 51.3147 300.045 50.6856C299.42 50.0565 299.068 49.2032 299.068 48.3136V38.7371Z" fill="#FFC73C"/>
<path d="M308.673 41.6614C307.888 41.6498 307.118 41.8732 306.46 42.3032C305.802 42.7332 305.286 43.3504 304.978 44.0761C304.67 44.8019 304.583 45.6034 304.729 46.3788C304.875 47.1542 305.248 47.8683 305.798 48.4303C306.349 48.9924 307.054 49.3769 307.823 49.535C308.592 49.6931 309.39 49.6176 310.116 49.3181C310.842 49.0186 311.463 48.5087 311.9 47.8533C312.337 47.1978 312.57 46.4264 312.57 45.6372C312.577 44.5904 312.171 43.5834 311.44 42.8378C310.709 42.0923 309.714 41.6691 308.673 41.6614V41.6614ZM308.673 48.1969C308.168 48.2044 307.672 48.0607 307.249 47.784C306.825 47.5073 306.493 47.1101 306.295 46.643C306.096 46.1759 306.041 45.66 306.135 45.161C306.229 44.662 306.468 44.2023 306.823 43.8406C307.177 43.4789 307.631 43.2314 308.126 43.1297C308.62 43.028 309.134 43.0766 309.601 43.2694C310.069 43.4622 310.468 43.7905 310.749 44.2124C311.031 44.6343 311.181 45.1308 311.18 45.6387C311.183 45.9724 311.12 46.3032 310.995 46.6124C310.871 46.9217 310.687 47.2031 310.454 47.4408C310.221 47.6785 309.944 47.8678 309.638 47.9977C309.333 48.1277 309.005 48.1959 308.673 48.1984V48.1969Z" fill="#FFC73C"/>
<path opacity="0.2" d="M300.412 46.7661C300.284 46.7657 300.16 46.7141 300.07 46.6225C299.979 46.5309 299.928 46.4068 299.928 46.2775V39.9797C299.928 39.8504 299.979 39.7263 300.07 39.6347C300.16 39.5431 300.284 39.4915 300.412 39.4911V39.4911C300.541 39.4915 300.664 39.5431 300.755 39.6346C300.846 39.7262 300.898 39.8502 300.898 39.9797V46.2717C300.899 46.3363 300.886 46.4003 300.862 46.4602C300.838 46.5201 300.802 46.5745 300.757 46.6205C300.712 46.6664 300.658 46.703 300.599 46.728C300.54 46.7529 300.476 46.7659 300.412 46.7661V46.7661Z" fill="white"/>
<path d="M305.973 38.7444V49.3914C305.973 49.9977 305.733 50.579 305.307 51.0076C304.88 51.4361 304.302 51.6769 303.699 51.6769H305.773C306.376 51.6769 306.954 51.4361 307.38 51.0075C307.806 50.5789 308.046 49.9976 308.046 49.3914V38.7444H305.973Z" fill="#EFB126"/>
</g>
<path d="M183.245 51.1621C213.992 64.2214 258.743 68.2655 277.276 68.6551C288.901 67.6316 287.43 74.7347 188.543 111.336C64.9331 157.087 38.2329 63.9297 65.8805 41.7874C93.5282 19.6451 144.811 34.838 183.245 51.1621Z" fill="#F2F7FF" stroke="#F2F7FF"/>
<path d="M117.509 84.0916H122.15V87.6243H117.509V95.5321H113.235V87.6243H98V85.0742L112.982 61.4679H117.509V84.0916ZM102.825 84.0916H113.235V67.387L112.729 68.3229L102.825 84.0916Z" fill="#400CCC"/>
<path d="M146.967 81.0033C146.967 86.0724 146.116 89.8391 144.416 92.3035C142.716 94.7678 140.058 96 136.443 96C132.873 96 130.231 94.799 128.515 92.3971C126.799 89.9795 125.911 86.3766 125.85 81.5882V75.8095C125.85 70.8028 126.7 67.0829 128.4 64.6497C130.101 62.2166 132.766 61 136.397 61C139.997 61 142.647 62.1776 144.347 64.5328C146.047 66.8723 146.921 70.4909 146.967 75.3884V81.0033ZM142.716 75.0842C142.716 71.4189 142.21 68.7518 141.199 67.0829C140.188 65.3984 138.587 64.5561 136.397 64.5561C134.221 64.5561 132.636 65.3906 131.64 67.0595C130.644 68.7284 130.131 71.2941 130.101 74.7567V81.6818C130.101 85.3627 130.621 88.0844 131.663 89.8469C132.72 91.5938 134.313 92.4672 136.443 92.4672C138.541 92.4672 140.096 91.6406 141.107 89.9873C142.133 88.334 142.67 85.7293 142.716 82.1731V75.0842Z" fill="#400CCC"/>
<path d="M170.358 84.0916H175V87.6243H170.358V95.5321H166.084V87.6243H150.85V85.0742L165.832 61.4679H170.358V84.0916ZM155.675 84.0916H166.084V67.387L165.579 68.3229L155.675 84.0916Z" fill="#400CCC"/>
<defs>
<clipPath id="clip0">
<rect width="171" height="110" fill="white" transform="translate(281 15)"/>
</clipPath>
</defs>
</svg>
