<svg width="308" height="158" viewBox="0 0 308 158" fill="none" xmlns="http://www.w3.org/2000/svg">
<path d="M49.3716 126.781L49.777 125.098C51.4877 117.62 51.8352 94.2438 52.1704 71.6365C52.4232 54.4323 52.6655 38.1669 53.5165 30.5409L53.6318 29.4789L54.6735 29.5814C68.6157 30.9815 235.188 62.661 274.566 71.7942L277.27 72.4205L274.844 73.8023C264.362 79.7667 178.421 98.49 109.362 113.539C85.5748 118.742 65.07 123.189 51.0236 126.406L49.3716 126.781ZM55.5024 31.8685C54.744 39.7973 54.5226 55.2976 54.2603 71.6675C53.9438 92.936 53.618 114.883 52.1291 123.921C66.1079 120.736 85.9939 116.402 108.896 111.416C170.003 98.1017 252.225 80.1877 270.904 73.185C227.429 63.4324 74.6684 34.3674 55.4982 31.8685L55.5024 31.8685Z" fill="white"/>
<path d="M38.3298 30.9356C38.1133 33.1637 37.7944 37.5662 37.5821 39.7943C37.5556 40.0771 51.277 40.7373 54.0135 40.8634C56.5377 40.9838 57.7907 36.9243 55.2096 34.0625C53.403 32.0762 40.6967 31.4146 38.3595 30.9308" fill="white"/>
<path d="M37.7706 122.84C37.6374 120.86 37.4693 116.943 37.3361 114.959C37.3332 114.707 49.5193 114.446 51.9523 114.394C54.1986 114.362 55.2043 117.985 52.8162 120.466C51.1371 122.184 39.8602 122.476 37.7707 122.853" fill="white"/>
<path d="M49.4614 127.179C51.5884 126.821 53.6907 126.322 55.7554 125.686C55.4638 124.33 58.4012 29.8276 58.052 29.7413C57.115 29.5113 53.5466 29.0625 51.7886 28.7182C51.685 40.0492 48.9992 104.297 49.4952 127.166" fill="white"/>
<path d="M78.5068 39.4581C78.6836 39.2452 78.8047 38.9899 78.8588 38.7162C78.9129 38.4426 78.8981 38.1595 78.8159 37.8935C78.7377 37.677 78.6027 37.4869 78.4258 37.3438C78.2489 37.2007 78.0368 37.1102 77.8128 37.0822L75.7271 36.6774C71.441 35.8694 64.2696 34.5507 62.7364 34.5552C62.5342 34.5519 62.3336 34.5923 62.1475 34.6738C61.9615 34.7553 61.7943 34.8761 61.6569 35.0283C61.5195 35.1804 61.415 35.3604 61.3503 35.5566C61.2855 35.7528 61.262 35.9606 61.2812 36.1666C61.2665 39.3262 60.9914 59.3946 60.7986 65.9117C60.5319 74.8722 60.233 83.9852 59.9435 92.7983C59.7792 97.7259 59.6176 102.646 59.4588 107.559C59.4342 108.377 59.3977 109.264 59.3659 110.194C59.244 113.264 59.1097 116.738 59.2001 119.431C59.201 119.685 59.2691 119.934 59.3972 120.151C59.5254 120.368 59.7087 120.545 59.9277 120.664C60.1655 120.79 60.4304 120.853 60.6985 120.848C60.9796 120.847 61.255 120.767 61.4943 120.615C61.6975 120.487 61.8622 120.304 61.9706 120.086C62.079 119.868 62.1268 119.624 62.1087 119.381C62.0316 117.101 62.1451 114.039 62.2416 111.344C62.2675 110.639 62.2938 109.97 62.3123 109.361C62.4553 104.799 62.604 100.239 62.7584 95.6828L63.0386 87.1611C63.2271 81.138 63.4142 75.1106 63.5998 69.0789C64.8737 69.0607 66.1094 69.0431 67.3624 69.0513L72.59 69.0027C72.9763 68.9972 73.3449 68.8349 73.6149 68.5515C73.8848 68.2681 74.0339 67.8868 74.0294 67.4915C74.0248 67.0963 73.867 66.7194 73.5907 66.4438C73.3143 66.1682 72.942 66.0164 72.5558 66.022C70.802 66.047 69.0525 66.072 67.2984 66.071L63.6845 66.1008L63.722 64.9226C63.9309 57.9663 64.4089 41.8801 64.2833 37.9707C64.8237 38.0586 66.1171 38.2574 68.1762 38.567C71.4521 39.0591 75.5279 39.6745 77.1111 39.9604C77.3675 40.0115 77.6328 39.9909 77.8791 39.901C78.1254 39.8111 78.3436 39.6551 78.511 39.4493" fill="white"/>
<path d="M98.4887 41.2495C98.4061 41.0277 98.2659 40.8333 98.0831 40.6873C97.9002 40.5413 97.6818 40.4493 97.4514 40.4212L95.6681 40.0947C89.7946 39.0052 83.4111 37.8752 82.0017 38.2995C80.9521 38.6187 80.8411 40.0543 80.8897 40.5882C81.042 42.3852 80.256 64.9337 79.5583 84.8213C79.0277 100.017 78.5668 113.144 78.6255 114.56C78.6264 114.757 78.6677 114.951 78.7465 115.13C78.8254 115.309 78.9401 115.47 79.0834 115.601C79.3841 115.864 79.7702 116.005 80.1666 115.994L80.2771 115.992C81.3089 115.977 91.9781 113.8 96.4675 112.719C96.7019 112.674 96.9202 112.565 97.0987 112.404C97.2772 112.242 97.4092 112.033 97.4805 111.8C97.5539 111.525 97.5563 111.235 97.4877 110.959C97.419 110.683 97.2816 110.43 97.0887 110.224C96.9083 110.03 96.6803 109.89 96.4285 109.817C96.1767 109.744 95.9103 109.742 95.6569 109.81C92.6922 110.522 83.2984 112.064 81.6201 112.379C81.6697 110.036 82.1907 97.33 82.6515 85.6723C82.9374 78.3934 83.2067 71.5102 83.3053 68.6275L88.0785 68.5854C89.862 68.5599 91.6415 68.5606 93.4208 68.5352C93.6704 68.5422 93.9173 68.4796 94.1351 68.354C94.3529 68.2284 94.5333 68.0445 94.657 67.8222C94.7918 67.5719 94.861 67.2901 94.8577 67.0045C94.8544 66.7189 94.7788 66.4393 94.6383 66.1928C94.5088 65.9748 94.3242 65.7967 94.1037 65.6774C93.8833 65.5582 93.6354 65.5022 93.3861 65.5154C91.6026 65.5408 89.8234 65.5663 88.0439 65.5656C86.4982 65.5877 84.948 65.5881 83.4023 65.6058L83.4274 64.8362C83.6154 59.3839 84.1015 45.1141 83.9654 41.396C85.5479 41.6212 94.2224 42.9097 96.7291 43.3563C96.9937 43.4077 97.2671 43.3862 97.5213 43.294C97.7754 43.2018 98.0012 43.0422 98.1755 42.8315C98.3577 42.6182 98.4831 42.3604 98.5394 42.0832C98.5958 41.806 98.5812 41.5188 98.4972 41.2494" fill="white"/>
<path d="M159.128 96.4875C156.532 97.1156 153.899 97.4704 151.284 97.9467C150.931 89.4036 150.528 81.2957 150.09 72.7582C151.89 72.7324 153.687 72.7329 155.483 72.7116C157.127 72.6881 157.097 70.0811 155.453 70.1045C153.623 70.1307 151.793 70.1351 149.958 70.1526C149.766 66.4759 149.574 62.7963 149.381 59.1138C149.273 57.0946 149.19 55.0619 149.044 53.0345C149.771 53.1284 154.478 53.9565 156.125 54.2371C157.772 54.5178 158.388 52.0015 156.771 51.7117C154.677 51.3331 148.484 49.7745 147.582 49.9959C146.937 50.0052 146.318 50.8484 146.391 51.6991C147.612 65.5882 147.867 79.6171 148.515 93.5405C148.611 95.6512 148.721 97.7617 148.804 99.8682C148.809 100.036 148.846 100.202 148.913 100.355C148.981 100.508 149.077 100.646 149.197 100.761C149.316 100.876 149.457 100.966 149.611 101.025C149.765 101.084 149.928 101.112 150.093 101.106C150.271 101.151 156.808 99.7061 159.836 98.9719C161.433 98.584 160.729 96.0822 159.132 96.4657" fill="white"/>
<path d="M115.681 44.7116C114.422 52.6476 111.462 94.8528 111.351 95.893C111.305 95.6155 106.266 51.4299 104.632 42.64C104.456 41.6821 102.168 41.4584 102.033 42.2903C100.161 53.8551 100.261 107.272 100.351 109.987C100.409 111.664 103.381 111.626 103.324 109.945C103.073 102.513 103.186 94.984 103.36 87.5545C103.559 78.9818 103.765 69.9744 103.909 61.3981C105.316 72.9682 109.622 101.845 110.431 105.284C110.694 106.419 112.613 105.966 112.754 104.943C113.276 101.22 116.415 68.3118 116.864 61.4956C116.998 62.8713 119.485 102.7 119.532 105.659C119.551 107.336 122.524 107.298 122.505 105.616C122.402 99.2466 119.287 53.5821 118.055 45.0167C117.916 44.0626 115.805 43.9711 115.686 44.7116" fill="white"/>
<path d="M139.568 49.2281C138.477 55.9449 135.906 91.6779 135.818 92.557C135.781 92.3229 131.432 54.9199 130.017 47.4784C129.864 46.6636 127.882 46.4789 127.767 47.1803C126.147 56.9727 126.225 102.628 126.306 104.926C126.357 106.342 128.926 106.31 128.88 104.889C128.663 98.5955 128.759 91.7886 128.912 85.5024C129.088 78.2425 129.264 70.6174 129.388 63.3582C130.588 73.1539 134.326 97.5977 135.022 100.508C135.249 101.465 136.91 101.081 137.031 100.214C137.484 97.0659 140.209 69.2052 140.597 63.4372C140.713 64.6002 142.854 98.319 142.895 100.822C142.911 102.242 145.493 102.206 145.468 100.785C145.381 95.393 142.695 56.7364 141.631 49.4855C141.511 48.6745 139.684 48.6007 139.581 49.2279" fill="white"/>
<path d="M172.658 64.0966C172.799 60.4919 171.896 56.1981 168.868 53.9598C166.464 52.1776 163.426 52.7338 161.619 55.1498C160.703 56.3666 160.407 57.9571 160.164 59.4381C159.77 62.0309 159.544 64.6474 159.49 67.2701C159.261 73.3693 159.594 79.4756 160.485 85.5083C161.017 88.9773 161.727 94.9774 165.235 96.796C165.859 97.1334 166.542 97.3388 167.245 97.3999C167.948 97.461 168.657 97.3765 169.328 97.1516C169.999 96.9267 170.619 96.5658 171.152 96.0906C171.685 95.6154 172.118 95.0356 172.428 94.3857C173.944 91.4045 173.883 87.6115 173.841 84.3441C173.822 82.6365 171.219 82.6693 171.242 84.3812C171.271 86.8666 171.316 97.4653 166.26 94.3564C163.964 92.9377 163.482 87.973 163.085 85.6058C162.349 80.8691 161.99 76.0781 162.012 71.2801C161.966 67.2522 162.011 63.0709 162.828 59.1002C163.146 57.5573 163.706 55.6806 165.589 55.5016C169.331 55.157 170.127 61.6078 170.029 64.1298C169.959 65.843 172.558 65.7972 172.628 64.0926" fill="white"/>
<path d="M175.38 55.9876C175.072 56.8612 175.196 58.0371 175.198 58.9497C175.222 61.0223 175.296 63.0985 175.388 65.1702C175.622 70.2427 175.95 75.3081 176.374 80.3664C176.526 82.172 176.683 83.982 176.92 85.7821C177.208 87.9292 177.326 90.4654 178.693 92.2233C180.059 93.9812 182.643 94.8352 184.426 93.3192C186.395 91.644 186.427 88.1669 186.578 85.8006C186.868 81.0987 186.47 76.3936 186.212 71.7038C185.955 67.014 186.076 62.3927 185.742 57.7518C185.586 55.5812 183.389 56.2514 183.415 57.785C183.523 64.6194 183.933 71.4234 184.24 78.2463C184.4 81.7771 184.544 85.4559 183.939 88.9499C183.735 90.1088 183.392 91.9998 181.846 91.6438C180.245 91.2885 179.85 89.4342 179.596 88.0428C178.237 80.6353 177.625 57.3115 177.638 56.5768C177.66 55.1337 175.886 54.5419 175.384 55.9745" fill="white"/>
<path d="M194.817 71.9857C198.772 67.6834 196.758 58.7164 190.541 57.6753C190.238 57.6241 189.928 57.6954 189.674 57.8742C189.421 58.0529 189.246 58.3251 189.185 58.6333C188.688 59.3662 190.004 90.0721 191.029 90.8875C191.045 90.9085 191.062 90.9285 191.08 90.9476C192.501 92.2702 194.73 91.4213 196.064 90.381C198.346 88.6101 198.984 85.7893 199.037 82.9985C199.108 79.1819 198.319 73.7132 194.817 71.9857ZM194.564 65.4707C194.648 67.6424 193.921 70.5383 191.778 71.4598C191.532 67.7347 191.315 64.0091 191.225 60.2773C193.286 61.117 194.463 63.0254 194.555 65.4708L194.564 65.4707ZM195.9 87.1805C195.567 87.7546 193.633 89.8812 192.757 89.3983C192.339 84.0894 192.015 79.1572 191.928 73.7653C191.949 73.765 196.046 72.8591 196.773 81.8358C196.917 83.6155 196.816 85.5943 195.9 87.1762" fill="white"/>
<path d="M211.773 86.6319C209.738 78.1171 208.118 69.3705 205.152 61.1254C204.779 60.0877 203.095 59.8858 202.855 61.1582C202.121 64.9886 202.151 69.0776 201.881 72.9535C201.516 78.152 201.254 83.3924 200.6 88.5602C200.405 90.097 202.709 90.7029 202.904 89.1748C203.379 85.4263 203.667 81.65 203.921 77.8612C205.036 77.8539 206.149 77.7376 207.243 77.5139C207.994 80.7799 208.711 84.0551 209.478 87.2948C209.844 88.8193 212.134 88.126 211.768 86.6146L211.773 86.6319ZM204.084 75.4252C204.117 74.9641 204.392 69.3367 204.544 66.9879C205.339 69.6796 206.033 72.4075 206.685 75.1448C205.828 75.3185 204.957 75.4124 204.084 75.4252Z" fill="white"/>
<path d="M218.783 63.4551C215.949 63.1135 213.135 62.6184 210.352 61.9719C208.956 61.6615 208.382 63.8687 209.787 64.1832C210.9 64.4281 212.014 64.6556 213.129 64.8656C213.059 65.7966 214.602 82.2277 214.717 85.9026C214.755 87.371 216.984 87.3435 216.946 85.8708C216.85 82.3303 215.322 66.138 215.342 65.2512C216.491 65.4347 217.648 65.6051 218.809 65.7362C220.229 65.8941 220.19 63.6132 218.783 63.4551Z" fill="white"/>
<path d="M224.167 64.5514C219.814 64.6136 219.842 70.3844 219.959 74.2592C220.064 77.856 220.745 85.0429 224.608 84.4749C227.877 83.9937 228.746 79.4182 228.606 74.6007C228.463 69.5616 227.02 64.5107 224.167 64.5514ZM224.366 81.9317C221.926 82.1143 221.399 67.2723 224.195 67.0151C226.69 66.7839 227.803 81.6784 224.366 81.9317Z" fill="white"/>
<path d="M238.92 80.603C238.595 79.1253 237.925 77.751 236.967 76.598C236.432 76.03 235.799 75.5689 235.099 75.2384C236.074 74.1352 236.581 72.682 236.51 71.1984C236.478 68.4262 234.776 65.9169 231.986 65.5439C231.812 65.5246 231.636 65.5456 231.471 65.6053C231.306 65.6651 231.156 65.7621 231.033 65.8891C230.909 66.0161 230.815 66.1699 230.758 66.3391C230.701 66.5082 230.681 66.6883 230.701 66.866C230.691 66.9512 230.692 67.0375 230.704 67.1224C230.935 72.0993 231.222 77.0842 231.3 82.0634C231.316 83.4364 233.409 83.4108 233.385 82.0336C233.365 80.2956 233.302 78.5234 233.236 76.7686C234.107 76.9939 234.9 77.4607 235.527 78.1179C236.228 79.0111 236.711 80.0614 236.939 81.1832C237.294 82.508 239.3 81.9144 238.945 80.5853L238.92 80.603ZM234.43 70.9195C234.518 71.9743 234.262 73.7163 233.124 74.0802C233.033 72.0781 232.934 70.0761 232.838 68.074C233.312 68.3771 233.706 68.7954 233.983 69.2918C234.261 69.7882 234.414 70.3473 234.43 70.9195Z" fill="white"/>
<path d="M239.234 67.6914L239.313 74.5132L240.612 74.4946L240.674 79.8999L244.487 72.7792L242.538 72.807L244.437 68.4602L239.234 67.6914Z" fill="white"/>
</svg>
