<svg width="28" height="29" viewBox="0 0 28 29" fill="none" xmlns="http://www.w3.org/2000/svg">
<path d="M22.5939 0.154297H5.40613C2.42344 0.154297 0 2.63987 0 5.69904V11.5497V13.6911V23.3275C0 26.3867 2.42344 28.8723 5.40613 28.8723H22.5939C25.5766 28.8723 28 26.3867 28 23.3275V13.7294V11.5497V5.73729C28 2.67811 25.5766 0.154297 22.5939 0.154297ZM24.1225 3.48115H24.7563V4.13122V8.37582H20.0213V3.51939L24.1225 3.48115ZM9.99201 11.5879C10.8868 10.326 12.3409 9.48477 13.9814 9.48477C15.6218 9.48477 17.0759 10.326 17.9707 11.5879C18.0825 11.7409 18.1571 11.8939 18.269 12.0851C18.6791 12.8116 18.9028 13.6529 18.9028 14.5324C18.9028 17.3239 16.7031 19.58 13.9814 19.58C11.2597 19.58 9.05992 17.3239 9.05992 14.5324C9.05992 13.6529 9.28363 12.8116 9.69374 12.0851C9.8056 11.8939 9.88016 11.7409 9.99201 11.5879ZM25.2783 23.3275C25.2783 24.8571 24.0852 26.0808 22.5939 26.0808H5.40613C3.91478 26.0808 2.7217 24.8571 2.7217 23.3275V13.0411V11.5497H6.89747C6.78562 11.8174 6.71105 12.0851 6.63648 12.3527C6.45006 13.0411 6.33822 13.7294 6.33822 14.4942C6.33822 18.8152 9.76831 22.3333 13.9814 22.3333C18.1944 22.3333 21.6245 18.8152 21.6245 14.4942C21.6245 13.7676 21.5126 13.0411 21.3262 12.3527C21.2517 12.0851 21.1771 11.8174 21.0653 11.5497H25.241V13.0411V23.3275H25.2783Z" fill="white"/>
</svg>
