<svg width="28" height="23" viewBox="0 0 28 23" fill="none" xmlns="http://www.w3.org/2000/svg">
<path d="M28 2.89709C26.9547 3.34762 25.872 3.64797 24.7147 3.79815C25.9093 3.08481 26.8053 1.99603 27.2533 0.644434C26.1333 1.28269 24.9013 1.77076 23.5947 2.03357C22.5493 0.944787 21.056 0.231445 19.4133 0.231445C16.24 0.231445 13.664 2.78445 13.664 5.93817C13.664 6.3887 13.7013 6.80169 13.8133 7.25222C9.03467 7.02696 4.77867 4.73675 1.94134 1.32023C1.456 2.1462 1.15735 3.12235 1.15735 4.17359C1.15735 6.16344 2.16533 7.89048 3.73333 8.90417C2.8 8.86663 1.904 8.60381 1.12 8.19083C1.12 8.22837 1.12 8.22837 1.12 8.26591C1.12 8.97926 1.26935 9.6926 1.53068 10.3308C2.24001 12.133 3.80801 13.447 5.74934 13.86C5.26401 13.9726 4.74133 14.0477 4.21866 14.0477C3.84533 14.0477 3.47201 14.0102 3.13601 13.9351C3.88268 16.1878 6.01066 17.8397 8.512 17.8772C6.53333 19.4166 4.06934 20.3176 1.38134 20.3176C0.933338 20.3176 0.448 20.2801 0 20.2425C2.53867 21.8569 5.56268 22.7955 8.81068 22.7955C17.808 22.7955 23.3333 16.5257 24.7893 10.0305C25.0507 8.86663 25.1627 7.74029 25.1627 6.57642C25.1627 6.31361 25.1627 6.08835 25.1627 5.82554C26.2453 5.03711 27.216 4.02342 28 2.89709Z" fill="white"/>
</svg>
