<svg width="762" height="513" viewBox="0 0 762 513" fill="none" xmlns="http://www.w3.org/2000/svg">
<path d="M762 0H0V513H762V0Z" fill="white"/>
<path d="M603.825 422.178H122.38C60.5539 353.373 38.9686 275.418 61.496 259.134C92.2947 236.867 177.867 323.314 208.001 308.008C294.086 264.264 130.464 129.026 187.219 112.52C239.437 97.3378 279.075 221.255 323.991 186.433C355.136 162.288 326.72 123.016 332.422 92.5129C341.462 44.1106 419.456 68.9426 487.911 190.052C516.77 241.103 556.325 145.754 588.585 134.551C618.539 124.152 667.667 189.359 666.766 276.964C666.309 321.935 647.467 373.574 603.825 422.178Z" fill="#F8F7FF"/>
<path d="M521.399 194.105L520.639 195.264L579.741 234.121L580.502 232.963L521.399 194.105Z" fill="#7760DB"/>
<path d="M577.983 223.284L553.064 261.231L554.222 261.993L579.141 224.046L577.983 223.284Z" fill="#7760DB"/>
<path d="M543.375 278.462H539.025V277.076H542.627L551.46 263.62L552.623 264.383L543.375 278.462Z" fill="#7760DB"/>
<path d="M305.043 241.304H290.495V288.791H305.043V241.304Z" fill="#FF809F"/>
<path d="M300.193 246.156H295.344V265.394H300.193V246.156Z" fill="white"/>
<path d="M300.54 277.096C300.54 278.628 299.3 279.869 297.769 279.869C296.238 279.869 294.998 278.628 294.998 277.096C294.998 275.564 296.238 274.323 297.769 274.323C299.3 274.323 300.54 275.564 300.54 277.096Z" fill="#40327A"/>
<path d="M290.496 241.304H275.948V288.791H290.496V241.304Z" fill="#A796F2"/>
<path d="M285.646 246.156H280.797V265.394H285.646V246.156Z" fill="white"/>
<path d="M285.993 277.096C285.993 278.628 284.753 279.869 283.222 279.869C281.691 279.869 280.451 278.628 280.451 277.096C280.451 275.564 281.691 274.323 283.222 274.323C284.753 274.323 285.993 275.564 285.993 277.096Z" fill="#40327A"/>
<path d="M275.948 241.304H261.401V288.791H275.948V241.304Z" fill="#FFC359"/>
<path d="M271.099 246.156H266.25V265.394H271.099V246.156Z" fill="white"/>
<path d="M271.445 277.096C271.445 278.628 270.205 279.869 268.674 279.869C267.144 279.869 265.904 278.628 265.904 277.096C265.904 275.564 267.144 274.323 268.674 274.323C270.205 274.323 271.445 275.564 271.445 277.096Z" fill="#40327A"/>
<path d="M258.789 385.852C253.213 385.852 248.676 381.311 248.676 375.731C248.676 370.15 253.213 365.609 258.789 365.609C264.366 365.609 268.903 370.15 268.903 375.731C268.903 381.311 264.366 385.852 258.789 385.852ZM258.789 366.996C253.975 366.996 250.061 370.913 250.061 375.731C250.061 380.549 253.975 384.466 258.789 384.466C263.604 384.466 267.518 380.549 267.518 375.731C267.518 370.913 263.604 366.996 258.789 366.996Z" fill="#40327A"/>
<path d="M292.04 375.73H225.538V421.484H292.04V375.73Z" fill="#C4B8FF"/>
<path d="M292.04 375.73H285.113V421.484H292.04V375.73Z" fill="#40327A"/>
<path d="M285.113 397.914H225.538V399.301H285.113V397.914Z" fill="#40327A"/>
<path d="M260.175 397.914H250.477V404.153H260.175V397.914Z" fill="white"/>
<path d="M139.626 194.601C137.59 204.05 134.174 213.145 131.452 222.414C128.646 231.96 125.813 241.665 125.848 251.613C125.889 264.549 131.022 277.402 139.896 286.816C143.374 290.504 147.433 293.728 150.114 298.026C152.795 302.331 153.779 308.237 150.786 312.327C146.47 318.227 137.236 316.951 130.925 320.639C122.98 325.284 121.872 337.118 126.402 345.132C130.932 353.146 151.569 376.078 181.01 370.4C194.185 367.856 212.051 355.308 211.538 341.887C211.005 327.911 197.677 316.598 198.127 302.615C198.425 293.457 204.576 285.721 209.903 278.268C215.23 270.816 220.19 261.734 217.738 252.909C214.129 239.918 197.407 235.904 189.309 225.124C184.092 218.185 182.949 209.055 182.624 200.375C182.298 191.696 182.52 182.802 179.631 174.615C172.614 154.76 147.71 157.131 139.626 194.601Z" fill="#C4B8FF"/>
<path d="M171.263 244.534H169.877V395.141H171.263V244.534Z" fill="#40327A"/>
<path d="M171.256 288.057L169.891 287.828C172.129 274.206 187.611 265.728 188.269 265.374L188.927 266.594C188.768 266.684 173.382 275.107 171.256 288.057Z" fill="#40327A"/>
<path d="M169.885 347.363C168.367 338.15 157.402 332.154 157.291 332.091L157.949 330.871C158.427 331.128 169.628 337.256 171.256 347.142L169.885 347.363Z" fill="#40327A"/>
<path d="M178.246 421.485H162.652C153.183 421.485 145.507 413.804 145.507 404.327V389.942H195.384V404.327C195.391 413.804 187.715 421.485 178.246 421.485Z" fill="#FFC359"/>
<path d="M154.368 420.14C148.479 417.042 144.822 410.983 144.822 404.334V399.045H146.207V404.334C146.207 410.47 149.581 416.057 155.012 418.913L154.368 420.14Z" fill="#40327A"/>
<path d="M195.391 394.448H145.514V395.835H195.391V394.448Z" fill="white"/>
<path d="M695.546 421.484H63.509V422.871H695.546V421.484Z" fill="#C4B8FF"/>
<path d="M523.12 431.884H375.472V433.27H523.12V431.884Z" fill="#C4B8FF"/>
<path d="M579.362 442.449H486.786V443.836H579.362V442.449Z" fill="#C4B8FF"/>
<path d="M447.917 442.449H325.762V443.836H447.917V442.449Z" fill="#C4B8FF"/>
<path d="M608.963 432.05H564.739V433.436H608.963V432.05Z" fill="#C4B8FF"/>
<path d="M352.245 431.884H262.709V433.27H352.245V431.884Z" fill="#C4B8FF"/>
<path d="M195.391 389.25H163.622V390.636H195.391V389.25Z" fill="#40327A"/>
<path d="M492.1 107.196C492.584 102.829 493.852 99.8548 496.872 98.2188C505.829 93.3592 528.295 101.241 537.639 113.408C550.67 130.371 538.782 156.451 526.126 158.122C511.406 160.056 489.606 129.734 492.1 107.196Z" fill="#F8F7FF"/>
<path d="M277.742 200.596C259.489 200.596 244.637 185.733 244.637 167.466C244.637 149.199 259.489 134.336 277.742 134.336C295.995 134.336 310.848 149.199 310.848 167.466C310.848 185.733 295.995 200.596 277.742 200.596ZM277.742 135.722C260.251 135.722 246.022 149.962 246.022 167.466C246.022 184.97 260.251 199.21 277.742 199.21C295.233 199.21 309.462 184.97 309.462 167.466C309.462 149.962 295.233 135.722 277.742 135.722Z" fill="#40327A"/>
<path d="M277.742 195.197C293.045 195.197 305.451 182.782 305.451 167.467C305.451 152.152 293.045 139.737 277.742 139.737C262.439 139.737 250.033 152.152 250.033 167.467C250.033 182.782 262.439 195.197 277.742 195.197Z" fill="#7760DB"/>
<path d="M277.742 195.89C262.079 195.89 249.34 183.141 249.34 167.467C249.34 151.793 262.079 139.044 277.742 139.044C293.405 139.044 306.144 151.793 306.144 167.467C306.144 183.141 293.398 195.89 277.742 195.89ZM277.742 140.43C262.848 140.43 250.726 152.562 250.726 167.467C250.726 182.372 262.848 194.503 277.742 194.503C292.636 194.503 304.758 182.372 304.758 167.467C304.758 152.562 292.636 140.43 277.742 140.43Z" fill="white"/>
<path d="M278.435 139.737H277.05V145.567H278.435V139.737Z" fill="white"/>
<path d="M278.435 189.366H277.05V195.196H278.435V189.366Z" fill="white"/>
<path d="M263.888 143.453L266.804 148.507L263.888 143.453Z" fill="#40327A"/>
<path d="M264.48 143.115L263.28 143.809L266.193 148.858L267.392 148.164L264.48 143.115Z" fill="white"/>
<path d="M288.68 186.435L291.597 191.488L288.68 186.435Z" fill="#40327A"/>
<path d="M289.269 186.092L288.069 186.785L290.982 191.834L292.182 191.141L289.269 186.092Z" fill="white"/>
<path d="M253.746 153.603L258.796 156.521L253.746 153.603Z" fill="#40327A"/>
<path d="M254.089 153.014L253.396 154.215L258.441 157.13L259.134 155.929L254.089 153.014Z" fill="white"/>
<path d="M296.688 178.421L301.738 181.339L296.688 178.421Z" fill="#40327A"/>
<path d="M297.02 177.812L296.327 179.013L301.372 181.928L302.065 180.727L297.02 177.812Z" fill="white"/>
<path d="M255.859 166.773H250.033V168.16H255.859V166.773Z" fill="white"/>
<path d="M305.444 166.773H299.618V168.16H305.444V166.773Z" fill="white"/>
<path d="M253.746 181.333L258.796 178.414L253.746 181.333Z" fill="#40327A"/>
<path d="M258.446 177.824L253.4 180.738L254.093 181.939L259.138 179.025L258.446 177.824Z" fill="white"/>
<path d="M296.688 156.521L301.738 153.603L296.688 156.521Z" fill="#40327A"/>
<path d="M301.397 153.019L296.351 155.934L297.044 157.134L302.089 154.22L301.397 153.019Z" fill="white"/>
<path d="M263.887 191.48L266.804 186.427L263.887 191.48Z" fill="#40327A"/>
<path d="M266.196 186.076L263.284 191.126L264.484 191.819L267.396 186.77L266.196 186.076Z" fill="white"/>
<path d="M288.68 148.507L291.597 143.453L288.68 148.507Z" fill="#40327A"/>
<path d="M290.989 143.093L288.076 148.143L289.276 148.836L292.189 143.786L290.989 143.093Z" fill="white"/>
<path d="M290.904 168.16H277.05V150.572H278.435V166.773H290.904V168.16Z" fill="white"/>
<path d="M336.7 421.484H251.349V422.871H336.7V421.484Z" fill="#40327A"/>
<path d="M203.018 421.484H171.069V422.871H203.018V421.484Z" fill="#40327A"/>
<path d="M339.527 78.2949H338.141V82.184H339.527V78.2949Z" fill="#C4B8FF"/>
<path d="M339.527 101.63H338.141V105.519H339.527V101.63Z" fill="#C4B8FF"/>
<path d="M332.627 79.7657L331.427 80.459L333.37 83.8269L334.57 83.1337L332.627 79.7657Z" fill="#C4B8FF"/>
<path d="M344.285 99.9728L343.086 100.666L345.029 104.034L346.229 103.341L344.285 99.9728Z" fill="#C4B8FF"/>
<path d="M327.411 84.5161L326.718 85.7168L330.084 87.6614L330.776 86.4607L327.411 84.5161Z" fill="#C4B8FF"/>
<path d="M347.605 96.1841L346.912 97.3848L350.277 99.3293L350.97 98.1286L347.605 96.1841Z" fill="#C4B8FF"/>
<path d="M329.122 91.21H325.236V92.5965H329.122V91.21Z" fill="#C4B8FF"/>
<path d="M352.439 91.21H348.553V92.5965H352.439V91.21Z" fill="#C4B8FF"/>
<path d="M330.084 96.1789L326.718 98.123L327.41 99.3239L330.776 97.3797L330.084 96.1789Z" fill="#C4B8FF"/>
<path d="M350.277 84.5119L346.911 86.4561L347.604 87.6569L350.97 85.7127L350.277 84.5119Z" fill="#C4B8FF"/>
<path d="M333.38 99.9735L331.437 103.342L332.637 104.035L334.58 100.667L333.38 99.9735Z" fill="#C4B8FF"/>
<path d="M345.037 79.7654L343.094 83.1338L344.294 83.8269L346.237 80.4585L345.037 79.7654Z" fill="#C4B8FF"/>
<path d="M426.692 316.521L396.254 421.485H392.755L417.645 316.521H426.692Z" fill="#DDD6FF"/>
<path d="M458.523 316.521L488.962 421.485H492.46L467.57 316.521H458.523Z" fill="#DDD6FF"/>
<path d="M442.604 352.847C470.915 352.847 493.866 329.879 493.866 301.547C493.866 273.215 470.915 250.247 442.604 250.247C414.293 250.247 391.343 273.215 391.343 301.547C391.343 329.879 414.293 352.847 442.604 352.847Z" fill="#FFC359"/>
<path d="M491.947 317.887L490.631 317.45C491.532 314.719 492.204 311.89 492.626 309.041L493.998 309.242C493.561 312.174 492.876 315.079 491.947 317.887Z" fill="#FF809F"/>
<path d="M442.604 353.54C434.305 353.54 426.366 351.64 419.023 347.89L419.654 346.656C426.803 350.302 434.52 352.153 442.604 352.153C462.624 352.153 480.787 340.313 488.878 321.983L490.146 322.545C481.833 341.373 463.171 353.54 442.604 353.54Z" fill="#FF809F"/>
<path d="M435.448 313.297C444.343 313.297 451.554 306.081 451.554 297.179C451.554 288.278 444.343 281.062 435.448 281.062C426.553 281.062 419.343 288.278 419.343 297.179C419.343 306.081 426.553 313.297 435.448 313.297Z" fill="#AB9AF7"/>
<path d="M344.286 282.434C343.62 280.638 344.542 278.642 346.336 277.983C348.13 277.317 350.125 278.239 350.783 280.035C351.448 281.83 350.527 283.827 348.733 284.486C346.939 285.144 344.944 284.229 344.286 282.434Z" fill="#FF95A9"/>
<path d="M426 255.363C430.973 255.363 435.005 251.328 435.005 246.351C435.005 241.374 430.973 237.339 426 237.339C421.026 237.339 416.994 241.374 416.994 246.351C416.994 251.328 421.026 255.363 426 255.363Z" fill="#AB9AF7"/>
<path d="M339.146 277.956C338.626 277.97 338.1 278.067 337.58 278.254C335.065 279.183 333.784 281.97 334.712 284.486C335.64 287.003 338.425 288.285 340.94 287.356L348.74 284.479L347.458 277.762L339.146 277.956Z" fill="#FF95A9"/>
<path d="M393.404 267.994C396.801 266.755 398.551 262.996 397.313 259.596C396.075 256.197 392.318 254.446 388.921 255.685C385.525 256.923 383.775 260.683 385.013 264.083C386.251 267.482 390.008 269.233 393.404 267.994Z" fill="#FF95A9"/>
<path d="M421.809 238.371L388.142 256.035L393.448 267.973L429.117 254.808L421.809 238.371Z" fill="#FF95A9"/>
<path d="M388.142 256.035L345.92 278.164L348.733 284.486L393.448 267.973L388.142 256.035Z" fill="#FF95A9"/>
<path d="M410.219 419.751C412.706 419.751 414.722 417.734 414.722 415.245C414.722 412.757 412.706 410.739 410.219 410.739C407.732 410.739 405.716 412.757 405.716 415.245C405.716 417.734 407.732 419.751 410.219 419.751Z" fill="#40327A"/>
<path d="M419.342 297.18H433.585H451.554L453.293 298.532C459.14 303.079 462.562 310.074 462.562 317.485V324.417C462.562 329.776 458.218 334.123 452.863 334.123H424.884C419.529 334.123 415.186 329.776 415.186 324.417V314.92C415.193 308.771 416.613 302.698 419.342 297.18Z" fill="#40327A"/>
<path d="M465.672 283.051C465.208 279.467 467.729 276.181 471.318 275.709C474.899 275.245 478.183 277.768 478.654 281.359C479.118 284.943 476.596 288.229 473.008 288.701C469.427 289.165 466.143 286.642 465.672 283.051Z" fill="#FF95A9"/>
<path d="M467.868 243.855L478.453 280.389L466.164 284.826L450.958 249.956L467.868 243.855Z" fill="#FF95A9"/>
<path d="M417.015 246.767L419.35 297.18H451.561L464.876 244.237C465.755 240.736 463.109 237.339 459.5 237.339H426.014C420.874 237.339 416.773 241.63 417.015 246.767Z" fill="#DDD6FF"/>
<path d="M434.451 243.231C436.169 247.904 433.786 253.082 429.117 254.808C424.448 256.527 419.273 254.143 417.548 249.47C415.83 244.798 418.213 239.619 422.882 237.893C427.551 236.174 432.733 238.559 434.451 243.231Z" fill="#DDD6FF"/>
<path d="M439.882 254.15L428.784 269.644L428.66 269.554C426.581 272.549 422.778 274.067 419.051 273.076C414.292 271.807 411.473 266.92 412.734 262.164C413.032 261.048 413.53 260.036 414.175 259.162L414.133 259.135L425.231 243.641L439.882 254.15Z" fill="#DDD6FF"/>
<path d="M465.954 252.324C469.244 248.591 468.887 242.896 465.157 239.605C461.426 236.313 455.736 236.67 452.446 240.403C449.157 244.136 449.514 249.831 453.244 253.123C456.974 256.415 462.665 256.057 465.954 252.324Z" fill="#DDD6FF"/>
<path d="M450.958 249.956L460.871 272.688L474.761 267.675L467.868 243.849L450.958 249.956Z" fill="#DDD6FF"/>
<path d="M429.117 254.808L405.869 263.39L399.863 249.893L421.816 238.371L429.117 254.808Z" fill="#DDD6FF"/>
<path d="M424.891 334.122C430.247 334.122 434.589 329.777 434.589 324.416C434.589 319.056 430.247 314.711 424.891 314.711C419.535 314.711 415.193 319.056 415.193 324.416C415.193 329.777 419.535 334.122 424.891 334.122Z" fill="#40327A"/>
<path d="M452.863 334.122C458.219 334.122 462.561 329.777 462.561 324.416C462.561 319.056 458.219 314.711 452.863 314.711C447.507 314.711 443.165 319.056 443.165 324.416C443.165 329.777 447.507 334.122 452.863 334.122Z" fill="#40327A"/>
<path d="M405.717 415.246H414.722V421.485H402.107C401.041 421.485 400.175 420.619 400.175 419.551C400.175 418.858 400.542 418.22 401.145 417.874L405.717 415.246Z" fill="#7760DB"/>
<path d="M393.033 334.123C397.36 334.123 400.867 330.612 400.867 326.282C400.867 321.952 397.36 318.441 393.033 318.441C388.705 318.441 385.198 321.952 385.198 326.282C385.198 330.612 388.705 334.123 393.033 334.123Z" fill="#40327A"/>
<path d="M385.33 328.001L405.772 415.939L414.674 414.553L400.812 325.589L385.33 328.001Z" fill="#40327A"/>
<path d="M432.892 419.751C435.379 419.751 437.395 417.734 437.395 415.245C437.395 412.757 435.379 410.739 432.892 410.739C430.405 410.739 428.389 412.757 428.389 415.245C428.389 417.734 430.405 419.751 432.892 419.751Z" fill="#40327A"/>
<path d="M428.389 415.246H437.395V421.485H424.78C423.714 421.485 422.848 420.619 422.848 419.551C422.848 418.858 423.215 418.22 423.817 417.874L428.389 415.246Z" fill="#7760DB"/>
<path d="M415.705 334.123C420.032 334.123 423.54 330.612 423.54 326.282C423.54 321.952 420.032 318.441 415.705 318.441C411.378 318.441 407.871 321.952 407.871 326.282C407.871 330.612 411.378 334.123 415.705 334.123Z" fill="#40327A"/>
<path d="M408.002 328.001L428.445 415.939L437.339 414.553L423.485 325.589L408.002 328.001Z" fill="#40327A"/>
<path d="M445.181 218.56H429.941V237.339H445.181V218.56Z" fill="#FF95A9"/>
<path d="M437.561 244.965C441.77 244.965 445.181 241.551 445.181 237.34C445.181 233.128 441.77 229.714 437.561 229.714C433.353 229.714 429.941 233.128 429.941 237.34C429.941 241.551 433.353 244.965 437.561 244.965Z" fill="#FF95A9"/>
<path d="M451.27 227.412C457.261 227.412 462.118 222.551 462.118 216.555C462.118 210.56 457.261 205.699 451.27 205.699C445.279 205.699 440.422 210.56 440.422 216.555C440.422 222.551 445.279 227.412 451.27 227.412Z" fill="#40327A"/>
<path d="M410.469 202.331C410.469 189.097 421.185 178.372 434.409 178.372C447.633 178.372 458.35 189.097 458.35 202.331C458.35 215.565 447.633 226.289 434.409 226.289L422.203 214.074C415.719 214.074 410.469 208.819 410.469 202.331Z" fill="#40327A"/>
<path d="M445.874 214.157H442.41V207.225H445.874C447.786 207.225 449.338 208.777 449.338 210.691C449.338 212.604 447.786 214.157 445.874 214.157Z" fill="#FF95A9"/>
<path d="M419.149 194.046H445.181V227.675H429.013C422.543 227.675 417.41 222.212 417.805 215.744L419.149 194.046Z" fill="#FF95A9"/>
<path d="M445.181 207.225H445.874V187.204H425.251C419.806 187.204 415.394 191.62 415.394 197.069V197.464H416.086C421.981 197.464 427.724 199.391 432.428 202.948C436.099 205.721 440.574 207.225 445.181 207.225Z" fill="#40327A"/>
<path d="M397.831 288.788H431.082V284.629H397.831V288.788Z" fill="#40327A"/>
<path d="M400.514 288.791H334.012L334.005 288.715L333.527 278.344L331.802 241.304H398.304L400.029 278.42L400.514 288.791Z" fill="#C4B8FF"/>
<path d="M369.706 268.498C371.534 266.625 371.426 263.552 369.464 261.633C367.502 259.715 364.429 259.678 362.6 261.552C360.772 263.425 360.88 266.498 362.842 268.417C364.804 270.335 367.877 270.372 369.706 268.498Z" fill="white"/>
<path d="M400.514 288.791H333.527L334.005 288.715L400.029 278.42L400.514 288.791Z" fill="#DDD6FF"/>
<path d="M423.748 314.781L392.111 318.497L393.033 334.123H424.891L423.748 314.781Z" fill="#40327A"/>
<path d="M421.227 284.174C420.596 285.983 421.559 287.959 423.36 288.583C425.168 289.214 427.142 288.25 427.766 286.448C428.396 284.639 427.433 282.663 425.632 282.039C423.824 281.408 421.85 282.365 421.227 284.174Z" fill="#FF95A9"/>
<path d="M414.605 288.479C415.124 288.659 415.658 288.742 416.177 288.742V288.749L424.49 288.777L425.64 282.031L417.784 279.307C415.256 278.427 412.492 279.771 411.612 282.302C410.732 284.839 412.069 287.598 414.605 288.479Z" fill="#FF95A9"/>
<path d="M472.156 288.757L424.497 288.778L424.053 281.88L471.318 275.71L472.156 288.757Z" fill="#FF95A9"/>
<path d="M454.615 256.606L453.345 257.16L460.231 272.949L461.501 272.394L454.615 256.606Z" fill="white"/>
<path d="M418.878 273.748C413.759 272.382 410.711 267.107 412.069 261.991C412.318 261.062 412.692 260.188 413.198 259.384L413.184 259.377L413.579 258.739L420.264 249.401L421.393 250.212L415.145 258.933L415.158 258.94L414.743 259.585C414.126 260.417 413.676 261.346 413.413 262.351C412.249 266.732 414.861 271.245 419.239 272.41C419.841 272.57 420.451 272.66 421.067 272.687L421.019 274.074C420.298 274.039 419.578 273.935 418.878 273.748Z" fill="white"/>
<path d="M429.463 216.972C429.47 219.079 427.766 220.784 425.66 220.791C423.554 220.798 421.85 219.093 421.843 216.986L429.463 216.972Z" fill="white"/>
<path d="M462.562 421.484H410.219V422.871H462.562V421.484Z" fill="#40327A"/>
<path d="M480.178 421.484H470.313V422.871H480.178V421.484Z" fill="#40327A"/>
<path d="M398.979 241.276L397.595 241.341L399.804 288.824L401.188 288.76L398.979 241.276Z" fill="#40327A"/>
<path d="M251.959 288.791L251.231 295.723L237.453 421.485H233.955L244.297 288.791H251.959Z" fill="#DDD6FF"/>
<path d="M575.178 288.791L575.906 295.723L589.684 421.485H593.182L582.84 288.791H575.178Z" fill="#DDD6FF"/>
<path d="M589.075 288.791H236.83V295.723H589.075V288.791Z" fill="#7760DB"/>
<path d="M329.614 295.03H236.83V296.417H329.614V295.03Z" fill="#40327A"/>
<path d="M528.234 295.03H374.546V296.417H528.234V295.03Z" fill="#40327A"/>
<path d="M589.074 295.03H549.236V296.417H589.074V295.03Z" fill="#40327A"/>
<path d="M542.225 295.03H535.832V296.417H542.225V295.03Z" fill="#40327A"/>
<path d="M539.15 270.261H537.764V288.791H539.15V270.261Z" fill="#7760DB"/>
<path d="M513.013 213.934L490.465 199.106C493.284 194.815 501.687 188.187 508.337 186.371L514.274 177.324L523.536 183.418L517.599 192.465C518.569 199.286 515.833 209.636 513.013 213.934Z" fill="#C4B8FF"/>
<path d="M496.99 196.119L496.083 195.072C499.29 192.306 504.285 188.916 508.698 187.717L509.203 187.578L514.288 179.835L515.445 180.598L510.069 188.778L509.058 189.055C505.559 190.005 500.939 192.708 496.99 196.119Z" fill="white"/>
<path d="M493.991 199.05L492.945 198.135C493.43 197.581 493.984 197.005 494.593 196.416L495.556 197.414C494.981 197.976 494.448 198.53 493.991 199.05Z" fill="white"/>
<path d="M513.588 214.309L512.431 213.547C515.271 209.221 517.848 199.113 516.913 192.555L516.878 192.299L522.96 183.037L524.117 183.8L518.319 192.625C519.192 199.481 516.525 209.845 513.588 214.309Z" fill="#7760DB"/>
<path d="M513.013 213.934L490.465 199.105L513.013 213.934Z" fill="#DDD6FF"/>
<path d="M509.421 186.283L508.661 187.441L510.288 188.511L511.048 187.352L509.421 186.283Z" fill="#7760DB"/>
<path d="M512.282 188.112L511.521 189.271L517.236 193.028L517.996 191.869L512.282 188.112Z" fill="#7760DB"/>
<path d="M522.522 288.788H554.387V284.629H522.522V288.788Z" fill="#C4B8FF"/>
<path d="M533.843 283.939H530.283V285.326H533.843V283.939Z" fill="#7760DB"/>
<path d="M554.39 283.939H535.492V285.326H554.39V283.939Z" fill="#7760DB"/>
<path d="M563.709 362.341C564.891 355.051 559.944 348.182 552.66 346.999C545.375 345.816 538.511 350.766 537.328 358.057C536.146 365.347 541.093 372.216 548.378 373.399C555.663 374.582 562.527 369.632 563.709 362.341Z" fill="white"/>
<path d="M550.504 374.269C542.752 374.269 536.448 367.96 536.448 360.203C536.448 352.445 542.752 346.137 550.504 346.137C558.255 346.137 564.559 352.445 564.559 360.203C564.559 367.96 558.255 374.269 550.504 374.269ZM550.504 347.523C543.514 347.523 537.834 353.215 537.834 360.203C537.834 367.198 543.521 372.882 550.504 372.882C557.493 372.882 563.174 367.191 563.174 360.203C563.174 353.208 557.486 347.523 550.504 347.523Z" fill="#40327A"/>
<path d="M537.117 373.674C542.023 371.64 544.353 366.011 542.321 361.101C540.288 356.192 534.664 353.86 529.758 355.894C524.851 357.927 522.522 363.556 524.554 368.466C526.586 373.376 532.211 375.707 537.117 373.674Z" fill="white"/>
<path d="M533.421 375.107C527.734 375.107 523.113 370.476 523.113 364.791C523.113 359.1 527.741 354.476 533.421 354.476C539.108 354.476 543.729 359.106 543.729 364.791C543.736 370.476 539.108 375.107 533.421 375.107ZM533.421 355.855C528.503 355.855 524.499 359.862 524.499 364.784C524.499 369.706 528.503 373.713 533.421 373.713C538.339 373.713 542.343 369.706 542.343 364.784C542.343 359.862 538.346 355.855 533.421 355.855Z" fill="#40327A"/>
<path d="M568.133 361.589L567.226 368.57L567.053 369.956L564.586 389.007L561.58 412.182L561.282 414.497L560.375 421.485H521.395L520.487 414.497L520.307 413.111L518.125 396.251L514.717 369.956L514.544 368.57L513.636 361.589H568.133Z" fill="#A796F2"/>
<path d="M564.587 389.006L561.58 412.181L561.282 414.496L560.375 421.484H521.395L520.487 414.496L520.307 413.11L518.125 396.25L564.587 389.006Z" fill="#C4B8FF"/>
<path d="M526.452 413.741L525.073 413.866L525.004 413.11L521.028 369.956L520.972 369.325L522.358 369.2L522.427 369.956L526.396 413.11L526.452 413.741Z" fill="white"/>
<path d="M530.066 369.22L528.683 369.296L531.135 413.839L532.518 413.763L530.066 369.22Z" fill="white"/>
<path d="M537.718 369.256L536.333 369.281L537.139 413.82L538.524 413.795L537.718 369.256Z" fill="white"/>
<path d="M544.021 369.246L543.198 413.785L544.583 413.811L545.407 369.272L544.021 369.246Z" fill="white"/>
<path d="M551.732 369.239L549.25 413.778L550.633 413.856L553.116 369.317L551.732 369.239Z" fill="white"/>
<path d="M560.839 369.325L560.783 369.956L556.779 413.11L556.71 413.866L555.332 413.741L555.387 413.11L559.391 369.956L559.46 369.2L560.839 369.325Z" fill="white"/>
<path d="M514.551 368.569L514.724 369.956H567.059L567.233 368.569H514.551ZM561.462 413.11H520.314L520.494 414.497H561.289L561.587 412.181V412.147L561.462 413.11Z" fill="white"/>
<path d="M533.871 360.896H513.636V362.282H533.871V360.896Z" fill="#40327A"/>
<path d="M576.286 421.484H537.141V422.871H576.286V421.484Z" fill="#40327A"/>
<path d="M527.796 421.484H516.76V422.871H527.796V421.484Z" fill="#40327A"/>
<path d="M600.255 90.2881L584.198 123.716L572.934 114.947L599.673 90.6001C599.701 90.5724 599.673 90.5308 599.639 90.5446L563.977 107.973L555.186 101.13L600.117 90.1218C600.214 90.094 600.304 90.198 600.255 90.2881Z" fill="white"/>
<path d="M584.454 124.791L571.867 114.988L595.794 93.1998L563.901 108.791L553.642 100.805L599.957 89.4562C600.248 89.38 600.574 89.484 600.775 89.7266C600.976 89.9692 601.017 90.3159 600.886 90.6001L584.454 124.791ZM574.015 114.905L583.948 122.642L598.274 92.8115L574.015 114.905ZM556.745 101.463L564.067 107.162L594.817 92.1322L556.745 101.463Z" fill="#C4B8FF"/>
<path d="M599.68 90.6001L572.941 114.947L565.556 121.671C564.967 122.205 564.018 121.789 564.018 120.992L563.991 107.98L599.652 90.5515C599.673 90.5307 599.708 90.5723 599.68 90.6001Z" fill="white"/>
<path d="M564.94 122.607C564.718 122.607 564.496 122.558 564.282 122.468C563.693 122.205 563.319 121.643 563.319 120.999L563.284 107.55L563.672 107.356L599.86 89.6709L600.588 90.6414L600.144 91.1198L566.02 122.191C565.716 122.461 565.328 122.607 564.94 122.607ZM564.677 108.402L564.704 120.985C564.704 121.116 564.787 121.172 564.843 121.193C564.891 121.213 564.995 121.241 565.085 121.151L595.794 93.1926L564.677 108.402Z" fill="#C4B8FF"/>
<path d="M556.288 128.805L555.505 127.661C557.279 126.455 558.221 125.657 558.228 125.65L559.121 126.711C559.087 126.739 558.124 127.557 556.288 128.805Z" fill="#DDD6FF"/>
<path d="M508.878 142.212C506.522 142.157 504.125 141.997 501.749 141.748L501.895 140.368C504.229 140.611 506.592 140.763 508.912 140.826L508.878 142.212ZM516.02 142.087L515.936 140.701C518.271 140.562 520.619 140.32 522.926 139.987L523.127 141.36C520.779 141.706 518.389 141.949 516.02 142.087ZM494.684 140.729C492.377 140.306 490.035 139.779 487.722 139.176L488.075 137.838C490.354 138.434 492.668 138.947 494.94 139.37L494.684 140.729ZM530.144 140.042L529.826 138.691C532.098 138.157 534.377 137.519 536.594 136.798L537.023 138.115C534.772 138.85 532.458 139.502 530.144 140.042ZM480.884 137.131C478.668 136.382 476.416 135.543 474.207 134.635L474.733 133.353C476.915 134.247 479.139 135.079 481.328 135.82L480.884 137.131ZM543.715 135.606L543.175 134.33C545.343 133.408 547.476 132.382 549.506 131.287L550.164 132.507C548.093 133.623 545.925 134.663 543.715 135.606ZM467.695 131.73L467.113 131.446C465.18 130.503 463.227 129.588 461.294 128.729L461.855 127.46C463.802 128.327 465.769 129.242 467.716 130.198L468.291 130.476L467.695 131.73ZM454.789 125.997C452.594 125.124 450.363 124.299 448.174 123.543L448.624 122.233C450.834 122.995 453.078 123.827 455.302 124.708L454.789 125.997ZM441.454 121.394C439.189 120.729 436.896 120.119 434.645 119.571L434.971 118.226C437.243 118.774 439.563 119.391 441.849 120.063L441.454 121.394ZM427.745 118.108C425.418 117.678 423.076 117.311 420.783 117.013L420.957 115.64C423.277 115.938 425.646 116.306 427.995 116.742L427.745 118.108ZM392.707 117.034L392.506 115.661C394.792 115.321 397.182 115.072 399.607 114.905L399.697 116.292C397.307 116.451 394.952 116.701 392.707 117.034ZM413.773 116.326C411.411 116.167 409.042 116.084 406.735 116.077L406.742 114.69C409.076 114.697 411.473 114.781 413.87 114.947L413.773 116.326Z" fill="#DDD6FF"/>
<path d="M382.552 119.37L382.06 118.074C382.109 118.053 383.258 117.616 385.447 117.055L385.794 118.4C383.688 118.94 382.566 119.37 382.552 119.37Z" fill="#DDD6FF"/>
<path d="M370.318 176.195H333.036V150.281H370.318V176.195ZM334.421 174.808H368.933V151.668H334.421V174.808Z" fill="#C4B8FF"/>
<path d="M352.141 167.238L333.285 151.515L334.172 150.447L352.113 165.414L369.168 150.461L370.083 151.501L352.141 167.238Z" fill="#C4B8FF"/>
<path d="M374.253 150.981C374.253 153.54 372.182 155.612 369.625 155.612C367.069 155.612 364.998 153.54 364.998 150.981C364.998 148.423 367.069 146.351 369.625 146.351C372.182 146.351 374.253 148.423 374.253 150.981Z" fill="white"/>
<path d="M369.626 156.299C366.695 156.299 364.305 153.914 364.305 150.974C364.305 148.042 366.688 145.65 369.626 145.65C372.556 145.65 374.946 148.035 374.946 150.974C374.946 153.914 372.563 156.299 369.626 156.299ZM369.626 147.044C367.457 147.044 365.691 148.812 365.691 150.981C365.691 153.151 367.457 154.919 369.626 154.919C371.794 154.919 373.56 153.151 373.56 150.981C373.56 148.812 371.794 147.044 369.626 147.044Z" fill="#C4B8FF"/>
<path d="M599.569 196.784H598.184V200.673H599.569V196.784Z" fill="#C4B8FF"/>
<path d="M599.569 220.119H598.184V224.008H599.569V220.119Z" fill="#C4B8FF"/>
<path d="M592.658 198.232L591.458 198.925L593.402 202.293L594.602 201.6L592.658 198.232Z" fill="#C4B8FF"/>
<path d="M604.317 218.438L603.118 219.131L605.061 222.499L606.261 221.806L604.317 218.438Z" fill="#C4B8FF"/>
<path d="M587.429 202.993L586.737 204.193L590.102 206.138L590.795 204.937L587.429 202.993Z" fill="#C4B8FF"/>
<path d="M607.656 214.685L606.963 215.886L610.328 217.831L611.021 216.631L607.656 214.685Z" fill="#C4B8FF"/>
<path d="M589.164 209.706H585.278V211.093H589.164V209.706Z" fill="#C4B8FF"/>
<path d="M612.481 209.706H608.595V211.093H612.481V209.706Z" fill="#C4B8FF"/>
<path d="M590.129 214.68L586.763 216.624L587.456 217.825L590.822 215.881L590.129 214.68Z" fill="#C4B8FF"/>
<path d="M610.322 203.013L606.957 204.957L607.649 206.158L611.015 204.214L610.322 203.013Z" fill="#C4B8FF"/>
<path d="M593.42 218.462L591.478 221.83L592.678 222.523L594.62 219.155L593.42 218.462Z" fill="#C4B8FF"/>
<path d="M605.077 198.253L603.135 201.621L604.335 202.314L606.277 198.946L605.077 198.253Z" fill="#C4B8FF"/>
<path d="M241.713 382.58L238.734 409.769L241.713 382.58Z" fill="#F8F7FF"/>
<path d="M241.028 382.483L238.055 409.67L239.432 409.821L242.405 382.634L241.028 382.483Z" fill="white"/>
<path d="M243.785 363.689L242.025 379.745L243.785 363.689Z" fill="#F8F7FF"/>
<path d="M243.113 363.606L241.355 379.663L242.732 379.814L244.49 363.757L243.113 363.606Z" fill="white"/>
<path d="M489.849 410.476L490.652 413.859L489.849 410.476Z" fill="white"/>
<path d="M490.522 410.355L489.174 410.675L489.977 414.061L491.325 413.741L490.522 410.355Z" fill="#C4B8FF"/>
<path d="M478.515 362.677L489.107 407.356L478.515 362.677Z" fill="white"/>
<path d="M479.201 362.523L477.853 362.843L488.448 407.523L489.796 407.203L479.201 362.523Z" fill="#C4B8FF"/>
<path d="M583.706 299.925L588.056 355.717L583.706 299.925Z" fill="white"/>
<path d="M584.426 299.859L583.045 299.967L587.402 355.764L588.783 355.656L584.426 299.859Z" fill="#C4B8FF"/>
<path d="M588.458 360.867L588.826 365.602L588.458 360.867Z" fill="white"/>
<path d="M589.16 360.822L587.778 360.93L588.148 365.664L589.529 365.557L589.16 360.822Z" fill="#C4B8FF"/>
</svg>
