<svg width="24" height="19" viewBox="0 0 24 19" fill="none" xmlns="http://www.w3.org/2000/svg">
<g clip-path="url(#clip0)">
<path d="M24 2.30828C23.104 2.6848 22.176 2.93581 21.184 3.06131C22.208 2.46516 22.976 1.55525 23.36 0.425707C22.4 0.959104 21.344 1.36699 20.224 1.58663C19.328 0.676717 18.048 0.0805664 16.64 0.0805664C13.92 0.0805664 11.712 2.21415 11.712 4.84976C11.712 5.22627 11.744 5.57141 11.84 5.94793C7.744 5.75967 4.096 3.84572 1.664 0.990476C1.248 1.68075 0.992012 2.49654 0.992012 3.37508C0.992012 5.03802 1.856 6.48133 3.2 7.32849C2.4 7.29711 1.632 7.07748 0.96 6.73234C0.96 6.76371 0.96 6.76371 0.96 6.79509C0.96 7.39124 1.08801 7.98739 1.31201 8.52078C1.92001 10.0268 3.26401 11.125 4.92801 11.4702C4.51201 11.5643 4.064 11.627 3.616 11.627C3.296 11.627 2.97601 11.5957 2.68801 11.5329C3.32801 13.4155 5.152 14.796 7.296 14.8274C5.6 16.1138 3.488 16.8669 1.184 16.8669C0.800004 16.8669 0.384 16.8355 0 16.8041C2.176 18.1533 4.76801 18.9377 7.55201 18.9377C15.264 18.9377 20 13.6979 21.248 8.26978C21.472 7.29711 21.568 6.35582 21.568 5.38315C21.568 5.16352 21.568 4.97526 21.568 4.75563C22.496 4.09673 23.328 3.24957 24 2.30828Z" fill="#026FE4"/>
</g>
<defs>
<clipPath id="clip0">
<rect width="24" height="18.8571" fill="white" transform="translate(0 0.0805664)"/>
</clipPath>
</defs>
</svg>
